<?xml version="1.0" encoding="us-ascii" standalone="no"?><svg xmlns="http://www.w3.org/2000/svg" xmlns:xlink="http://www.w3.org/1999/xlink" contentStyleType="text/css" height="539px" preserveAspectRatio="none" style="width:1377px;height:539px;background:#FFFFFF;" version="1.1" viewBox="0 0 1377 539" width="1377px" zoomAndPan="magnify"><defs/><g><text fill="#000000" font-family="sans-serif" font-size="14" font-weight="bold" lengthAdjust="spacing" textLength="48" x="663.2188" y="34.5332">SID$2E</text><ellipse cx="1143.6875" cy="58.6094" fill="#222222" rx="10" ry="10" style="stroke:#222222;stroke-width:1.0;"/><rect fill="#F1F1F1" height="35.0938" rx="12.5" ry="12.5" style="stroke:#181818;stroke-width:0.5;" width="122" x="1082.6875" y="88.6094"/><text fill="#000000" font-family="sans-serif" font-size="12" lengthAdjust="spacing" textLength="102" x="1092.6875" y="111.0664">SID$2E&#12434;&#21463;&#20449;&#12375;&#12383;</text><polygon fill="#F1F1F1" points="1038.6875,143.7031,1248.6875,143.7031,1260.6875,155.7031,1248.6875,167.7031,1038.6875,167.7031,1026.6875,155.7031,1038.6875,143.7031" style="stroke:#181818;stroke-width:0.5;"/><text fill="#000000" font-family="sans-serif" font-size="11" lengthAdjust="spacing" textLength="210" x="1038.6875" y="160.2041">&#12522;&#12463;&#12456;&#12473;&#12488;&#65381;&#12513;&#12483;&#12475;&#12540;&#12472;&#38263;&#12373;&#12364;4&#12496;&#12452;&#12488;&#20197;&#19978;</text><text fill="#000000" font-family="sans-serif" font-size="11" lengthAdjust="spacing" textLength="18" x="1008.6875" y="153.2861">yes</text><text fill="#000000" font-family="sans-serif" font-size="11" lengthAdjust="spacing" textLength="12" x="1260.6875" y="153.2861">no</text><polygon fill="#F1F1F1" points="809.9375,177.7031,1144.9375,177.7031,1156.9375,189.7031,1144.9375,201.7031,809.9375,201.7031,797.9375,189.7031,809.9375,177.7031" style="stroke:#181818;stroke-width:0.5;"/><text fill="#000000" font-family="sans-serif" font-size="11" lengthAdjust="spacing" textLength="335" x="809.9375" y="194.2041">DID&#12364;&#12469;&#12509;&#12540;&#12488;&#12373;&#12428;&#12427;&#12288;&#12363;&#12388;&#12288;DID&#12364;&#29694;&#22312;&#12398;Session&#12391;&#12399;&#12469;&#12509;&#12540;&#12488;&#12377;&#12427;</text><text fill="#000000" font-family="sans-serif" font-size="11" lengthAdjust="spacing" textLength="18" x="779.9375" y="187.2861">yes</text><text fill="#000000" font-family="sans-serif" font-size="11" lengthAdjust="spacing" textLength="12" x="1156.9375" y="187.2861">no</text><polygon fill="#F1F1F1" points="630.4375,211.7031,945.4375,211.7031,957.4375,223.7031,945.4375,235.7031,630.4375,235.7031,618.4375,223.7031,630.4375,211.7031" style="stroke:#181818;stroke-width:0.5;"/><text fill="#000000" font-family="sans-serif" font-size="11" lengthAdjust="spacing" textLength="315" x="630.4375" y="228.2041">&#12522;&#12463;&#12456;&#12473;&#12488;&#65381;&#12513;&#12483;&#12475;&#12540;&#12472;&#12398;&#38263;&#12373; == DID&#12424;&#12426;&#31639;&#20986;&#12377;&#12427;&#12513;&#12483;&#12475;&#12540;&#12472;&#38263;</text><text fill="#000000" font-family="sans-serif" font-size="11" lengthAdjust="spacing" textLength="18" x="600.4375" y="221.2861">yes</text><text fill="#000000" font-family="sans-serif" font-size="11" lengthAdjust="spacing" textLength="12" x="957.4375" y="221.2861">no</text><polygon fill="#F1F1F1" points="547.9375,245.7031,668.9375,245.7031,680.9375,257.7031,668.9375,269.7031,547.9375,269.7031,535.9375,257.7031,547.9375,245.7031" style="stroke:#181818;stroke-width:0.5;"/><text fill="#000000" font-family="sans-serif" font-size="11" lengthAdjust="spacing" textLength="121" x="547.9375" y="262.2041">&#12475;&#12461;&#12517;&#12522;&#12486;&#12451;&#35299;&#38500;&#12398;&#26908;&#26619;</text><text fill="#000000" font-family="sans-serif" font-size="11" lengthAdjust="spacing" textLength="18" x="517.9375" y="255.2861">yes</text><text fill="#000000" font-family="sans-serif" font-size="11" lengthAdjust="spacing" textLength="12" x="680.9375" y="255.2861">no</text><polygon fill="#F1F1F1" points="421.875,279.7031,520.875,279.7031,532.875,291.7031,520.875,303.7031,421.875,303.7031,409.875,291.7031,421.875,279.7031" style="stroke:#181818;stroke-width:0.5;"/><text fill="#000000" font-family="sans-serif" font-size="11" lengthAdjust="spacing" textLength="99" x="421.875" y="296.2041">&#36554;&#20001;&#36939;&#36578;&#26465;&#20214;&#12398;&#26908;&#26619;</text><text fill="#000000" font-family="sans-serif" font-size="11" lengthAdjust="spacing" textLength="18" x="391.875" y="289.2861">yes</text><text fill="#000000" font-family="sans-serif" font-size="11" lengthAdjust="spacing" textLength="12" x="532.875" y="289.2861">no</text><polygon fill="#F1F1F1" points="268.25,313.7031,412.25,313.7031,424.25,325.7031,412.25,337.7031,268.25,337.7031,256.25,325.7031,268.25,313.7031" style="stroke:#181818;stroke-width:0.5;"/><text fill="#000000" font-family="sans-serif" font-size="11" lengthAdjust="spacing" textLength="144" x="268.25" y="330.2041">dataRecord&#12398;&#20516;&#12398;&#31684;&#22258;&#12398;&#26908;&#26619;</text><text fill="#000000" font-family="sans-serif" font-size="11" lengthAdjust="spacing" textLength="18" x="238.25" y="323.2861">yes</text><text fill="#000000" font-family="sans-serif" font-size="11" lengthAdjust="spacing" textLength="12" x="424.25" y="323.2861">no</text><polygon fill="#F1F1F1" points="171.5,347.7031,270.5,347.7031,282.5,359.7031,270.5,371.7031,171.5,371.7031,159.5,359.7031,171.5,347.7031" style="stroke:#181818;stroke-width:0.5;"/><text fill="#000000" font-family="sans-serif" font-size="11" lengthAdjust="spacing" textLength="99" x="171.5" y="364.2041">&#12513;&#12514;&#12522;&#12398;&#30064;&#24120;&#12398;&#26908;&#26619;</text><text fill="#000000" font-family="sans-serif" font-size="11" lengthAdjust="spacing" textLength="18" x="141.5" y="357.2861">yes</text><text fill="#000000" font-family="sans-serif" font-size="11" lengthAdjust="spacing" textLength="12" x="282.5" y="357.2861">no</text><rect fill="#F1F1F1" height="35.0938" rx="12.5" ry="12.5" style="stroke:#181818;stroke-width:0.5;" width="229" x="11" y="381.7031"/><text fill="#000000" font-family="sans-serif" font-size="12" lengthAdjust="spacing" textLength="209" x="21" y="404.1602">ECU &#12399;&#35201;&#27714;&#12373;&#12428;&#12383;&#26360;&#12365;&#36796;&#12415;&#20966;&#29702;&#12434;&#23455;&#34892;</text><rect fill="#F1F1F1" height="35.0938" rx="12.5" ry="12.5" style="stroke:#181818;stroke-width:0.5;" width="169" x="41" y="451.7969"/><text fill="#000000" font-family="sans-serif" font-size="12" lengthAdjust="spacing" textLength="149" x="51" y="474.2539">"6E [DID(MSE), DID]"&#12434;&#36820;&#36865;</text><ellipse cx="125.5" cy="517.8906" fill="none" rx="11" ry="11" style="stroke:#222222;stroke-width:1.0;"/><ellipse cx="125.5" cy="517.8906" fill="#222222" rx="6" ry="6" style="stroke:#222222;stroke-width:1.0;"/><rect fill="#F1F1F1" height="35.0938" rx="12.5" ry="12.5" style="stroke:#181818;stroke-width:0.5;" width="113" x="260" y="381.7031"/><text fill="#000000" font-family="sans-serif" font-size="12" lengthAdjust="spacing" textLength="93" x="270" y="404.1602">"7F 2E 72"&#12434;&#36820;&#36865;</text><ellipse cx="316.5" cy="462.7969" fill="none" rx="11" ry="11" style="stroke:#222222;stroke-width:1.0;"/><ellipse cx="316.5" cy="462.7969" fill="#222222" rx="6" ry="6" style="stroke:#222222;stroke-width:1.0;"/><rect fill="#F1F1F1" height="35.0938" rx="12.5" ry="12.5" style="stroke:#181818;stroke-width:0.5;" width="113" x="403" y="347.7031"/><text fill="#000000" font-family="sans-serif" font-size="12" lengthAdjust="spacing" textLength="93" x="413" y="370.1602">"7F 2E 31"&#12434;&#36820;&#36865;</text><ellipse cx="459.5" cy="428.7969" fill="none" rx="11" ry="11" style="stroke:#222222;stroke-width:1.0;"/><ellipse cx="459.5" cy="428.7969" fill="#222222" rx="6" ry="6" style="stroke:#222222;stroke-width:1.0;"/><rect fill="#F1F1F1" height="35.0938" rx="12.5" ry="12.5" style="stroke:#181818;stroke-width:0.5;" width="113" x="546" y="313.7031"/><text fill="#000000" font-family="sans-serif" font-size="12" lengthAdjust="spacing" textLength="93" x="556" y="336.1602">"7F 2E 22"&#12434;&#36820;&#36865;</text><ellipse cx="602.5" cy="394.7969" fill="none" rx="11" ry="11" style="stroke:#222222;stroke-width:1.0;"/><ellipse cx="602.5" cy="394.7969" fill="#222222" rx="6" ry="6" style="stroke:#222222;stroke-width:1.0;"/><rect fill="#F1F1F1" height="35.0938" rx="12.5" ry="12.5" style="stroke:#181818;stroke-width:0.5;" width="113" x="689" y="279.7031"/><text fill="#000000" font-family="sans-serif" font-size="12" lengthAdjust="spacing" textLength="93" x="699" y="302.1602">"7F 2E 33"&#12434;&#36820;&#36865;</text><ellipse cx="745.5" cy="360.7969" fill="none" rx="11" ry="11" style="stroke:#222222;stroke-width:1.0;"/><ellipse cx="745.5" cy="360.7969" fill="#222222" rx="6" ry="6" style="stroke:#222222;stroke-width:1.0;"/><rect fill="#F1F1F1" height="35.0938" rx="12.5" ry="12.5" style="stroke:#181818;stroke-width:0.5;" width="113" x="910.9375" y="245.7031"/><text fill="#000000" font-family="sans-serif" font-size="12" lengthAdjust="spacing" textLength="93" x="920.9375" y="268.1602">"7F 2E 13"&#12434;&#36820;&#36865;</text><ellipse cx="967.4375" cy="326.7969" fill="none" rx="11" ry="11" style="stroke:#222222;stroke-width:1.0;"/><ellipse cx="967.4375" cy="326.7969" fill="#222222" rx="6" ry="6" style="stroke:#222222;stroke-width:1.0;"/><rect fill="#F1F1F1" height="35.0938" rx="12.5" ry="12.5" style="stroke:#181818;stroke-width:0.5;" width="113" x="1110.4375" y="211.7031"/><text fill="#000000" font-family="sans-serif" font-size="12" lengthAdjust="spacing" textLength="93" x="1120.4375" y="234.1602">"7F 2E 31"&#12434;&#36820;&#36865;</text><ellipse cx="1166.9375" cy="292.7969" fill="none" rx="11" ry="11" style="stroke:#222222;stroke-width:1.0;"/><ellipse cx="1166.9375" cy="292.7969" fill="#222222" rx="6" ry="6" style="stroke:#222222;stroke-width:1.0;"/><rect fill="#F1F1F1" height="35.0938" rx="12.5" ry="12.5" style="stroke:#181818;stroke-width:0.5;" width="113" x="1253.4375" y="177.7031"/><text fill="#000000" font-family="sans-serif" font-size="12" lengthAdjust="spacing" textLength="93" x="1263.4375" y="200.1602">"7F 2E 13"&#12434;&#36820;&#36865;</text><ellipse cx="1309.9375" cy="258.7969" fill="none" rx="11" ry="11" style="stroke:#222222;stroke-width:1.0;"/><ellipse cx="1309.9375" cy="258.7969" fill="#222222" rx="6" ry="6" style="stroke:#222222;stroke-width:1.0;"/><line style="stroke:#181818;stroke-width:1.0;" x1="1143.6875" x2="1143.6875" y1="68.6094" y2="88.6094"/><polygon fill="#181818" points="1139.6875,78.6094,1143.6875,88.6094,1147.6875,78.6094,1143.6875,82.6094" style="stroke:#181818;stroke-width:1.0;"/><line style="stroke:#181818;stroke-width:1.0;" x1="125.5" x2="125.5" y1="416.7969" y2="451.7969"/><polygon fill="#181818" points="121.5,441.7969,125.5,451.7969,129.5,441.7969,125.5,445.7969" style="stroke:#181818;stroke-width:1.0;"/><line style="stroke:#181818;stroke-width:1.0;" x1="125.5" x2="125.5" y1="486.8906" y2="506.8906"/><polygon fill="#181818" points="121.5,496.8906,125.5,506.8906,129.5,496.8906,125.5,500.8906" style="stroke:#181818;stroke-width:1.0;"/><line style="stroke:#181818;stroke-width:1.0;" x1="316.5" x2="316.5" y1="416.7969" y2="451.7969"/><polygon fill="#181818" points="312.5,441.7969,316.5,451.7969,320.5,441.7969,316.5,445.7969" style="stroke:#181818;stroke-width:1.0;"/><line style="stroke:#181818;stroke-width:1.0;" x1="159.5" x2="125.5" y1="359.7031" y2="359.7031"/><line style="stroke:#181818;stroke-width:1.0;" x1="125.5" x2="125.5" y1="359.7031" y2="381.7031"/><polygon fill="#181818" points="121.5,371.7031,125.5,381.7031,129.5,371.7031,125.5,375.7031" style="stroke:#181818;stroke-width:1.0;"/><line style="stroke:#181818;stroke-width:1.0;" x1="282.5" x2="316.5" y1="359.7031" y2="359.7031"/><line style="stroke:#181818;stroke-width:1.0;" x1="316.5" x2="316.5" y1="359.7031" y2="381.7031"/><polygon fill="#181818" points="312.5,371.7031,316.5,381.7031,320.5,371.7031,316.5,375.7031" style="stroke:#181818;stroke-width:1.0;"/><line style="stroke:#181818;stroke-width:1.0;" x1="459.5" x2="459.5" y1="382.7969" y2="417.7969"/><polygon fill="#181818" points="455.5,407.7969,459.5,417.7969,463.5,407.7969,459.5,411.7969" style="stroke:#181818;stroke-width:1.0;"/><line style="stroke:#181818;stroke-width:1.0;" x1="256.25" x2="221" y1="325.7031" y2="325.7031"/><line style="stroke:#181818;stroke-width:1.0;" x1="221" x2="221" y1="325.7031" y2="347.7031"/><polygon fill="#181818" points="217,337.7031,221,347.7031,225,337.7031,221,341.7031" style="stroke:#181818;stroke-width:1.0;"/><line style="stroke:#181818;stroke-width:1.0;" x1="424.25" x2="459.5" y1="325.7031" y2="325.7031"/><line style="stroke:#181818;stroke-width:1.0;" x1="459.5" x2="459.5" y1="325.7031" y2="347.7031"/><polygon fill="#181818" points="455.5,337.7031,459.5,347.7031,463.5,337.7031,459.5,341.7031" style="stroke:#181818;stroke-width:1.0;"/><line style="stroke:#181818;stroke-width:1.0;" x1="602.5" x2="602.5" y1="348.7969" y2="383.7969"/><polygon fill="#181818" points="598.5,373.7969,602.5,383.7969,606.5,373.7969,602.5,377.7969" style="stroke:#181818;stroke-width:1.0;"/><line style="stroke:#181818;stroke-width:1.0;" x1="409.875" x2="340.25" y1="291.7031" y2="291.7031"/><line style="stroke:#181818;stroke-width:1.0;" x1="340.25" x2="340.25" y1="291.7031" y2="313.7031"/><polygon fill="#181818" points="336.25,303.7031,340.25,313.7031,344.25,303.7031,340.25,307.7031" style="stroke:#181818;stroke-width:1.0;"/><line style="stroke:#181818;stroke-width:1.0;" x1="532.875" x2="602.5" y1="291.7031" y2="291.7031"/><line style="stroke:#181818;stroke-width:1.0;" x1="602.5" x2="602.5" y1="291.7031" y2="313.7031"/><polygon fill="#181818" points="598.5,303.7031,602.5,313.7031,606.5,303.7031,602.5,307.7031" style="stroke:#181818;stroke-width:1.0;"/><line style="stroke:#181818;stroke-width:1.0;" x1="745.5" x2="745.5" y1="314.7969" y2="349.7969"/><polygon fill="#181818" points="741.5,339.7969,745.5,349.7969,749.5,339.7969,745.5,343.7969" style="stroke:#181818;stroke-width:1.0;"/><line style="stroke:#181818;stroke-width:1.0;" x1="535.9375" x2="471.375" y1="257.7031" y2="257.7031"/><line style="stroke:#181818;stroke-width:1.0;" x1="471.375" x2="471.375" y1="257.7031" y2="279.7031"/><polygon fill="#181818" points="467.375,269.7031,471.375,279.7031,475.375,269.7031,471.375,273.7031" style="stroke:#181818;stroke-width:1.0;"/><line style="stroke:#181818;stroke-width:1.0;" x1="680.9375" x2="745.5" y1="257.7031" y2="257.7031"/><line style="stroke:#181818;stroke-width:1.0;" x1="745.5" x2="745.5" y1="257.7031" y2="279.7031"/><polygon fill="#181818" points="741.5,269.7031,745.5,279.7031,749.5,269.7031,745.5,273.7031" style="stroke:#181818;stroke-width:1.0;"/><line style="stroke:#181818;stroke-width:1.0;" x1="967.4375" x2="967.4375" y1="280.7969" y2="315.7969"/><polygon fill="#181818" points="963.4375,305.7969,967.4375,315.7969,971.4375,305.7969,967.4375,309.7969" style="stroke:#181818;stroke-width:1.0;"/><line style="stroke:#181818;stroke-width:1.0;" x1="618.4375" x2="608.4375" y1="223.7031" y2="223.7031"/><line style="stroke:#181818;stroke-width:1.0;" x1="608.4375" x2="608.4375" y1="223.7031" y2="245.7031"/><polygon fill="#181818" points="604.4375,235.7031,608.4375,245.7031,612.4375,235.7031,608.4375,239.7031" style="stroke:#181818;stroke-width:1.0;"/><line style="stroke:#181818;stroke-width:1.0;" x1="957.4375" x2="967.4375" y1="223.7031" y2="223.7031"/><line style="stroke:#181818;stroke-width:1.0;" x1="967.4375" x2="967.4375" y1="223.7031" y2="245.7031"/><polygon fill="#181818" points="963.4375,235.7031,967.4375,245.7031,971.4375,235.7031,967.4375,239.7031" style="stroke:#181818;stroke-width:1.0;"/><line style="stroke:#181818;stroke-width:1.0;" x1="1166.9375" x2="1166.9375" y1="246.7969" y2="281.7969"/><polygon fill="#181818" points="1162.9375,271.7969,1166.9375,281.7969,1170.9375,271.7969,1166.9375,275.7969" style="stroke:#181818;stroke-width:1.0;"/><line style="stroke:#181818;stroke-width:1.0;" x1="797.9375" x2="787.9375" y1="189.7031" y2="189.7031"/><line style="stroke:#181818;stroke-width:1.0;" x1="787.9375" x2="787.9375" y1="189.7031" y2="211.7031"/><polygon fill="#181818" points="783.9375,201.7031,787.9375,211.7031,791.9375,201.7031,787.9375,205.7031" style="stroke:#181818;stroke-width:1.0;"/><line style="stroke:#181818;stroke-width:1.0;" x1="1156.9375" x2="1166.9375" y1="189.7031" y2="189.7031"/><line style="stroke:#181818;stroke-width:1.0;" x1="1166.9375" x2="1166.9375" y1="189.7031" y2="211.7031"/><polygon fill="#181818" points="1162.9375,201.7031,1166.9375,211.7031,1170.9375,201.7031,1166.9375,205.7031" style="stroke:#181818;stroke-width:1.0;"/><line style="stroke:#181818;stroke-width:1.0;" x1="1309.9375" x2="1309.9375" y1="212.7969" y2="247.7969"/><polygon fill="#181818" points="1305.9375,237.7969,1309.9375,247.7969,1313.9375,237.7969,1309.9375,241.7969" style="stroke:#181818;stroke-width:1.0;"/><line style="stroke:#181818;stroke-width:1.0;" x1="1026.6875" x2="977.4375" y1="155.7031" y2="155.7031"/><line style="stroke:#181818;stroke-width:1.0;" x1="977.4375" x2="977.4375" y1="155.7031" y2="177.7031"/><polygon fill="#181818" points="973.4375,167.7031,977.4375,177.7031,981.4375,167.7031,977.4375,171.7031" style="stroke:#181818;stroke-width:1.0;"/><line style="stroke:#181818;stroke-width:1.0;" x1="1260.6875" x2="1309.9375" y1="155.7031" y2="155.7031"/><line style="stroke:#181818;stroke-width:1.0;" x1="1309.9375" x2="1309.9375" y1="155.7031" y2="177.7031"/><polygon fill="#181818" points="1305.9375,167.7031,1309.9375,177.7031,1313.9375,167.7031,1309.9375,171.7031" style="stroke:#181818;stroke-width:1.0;"/><line style="stroke:#181818;stroke-width:1.0;" x1="1143.6875" x2="1143.6875" y1="123.7031" y2="143.7031"/><polygon fill="#181818" points="1139.6875,133.7031,1143.6875,143.7031,1147.6875,133.7031,1143.6875,137.7031" style="stroke:#181818;stroke-width:1.0;"/><!--SRC=[hP91I-D05CVl-HH3yT32NgooWk9fcmKFUx7iQV5GjX4BfHMJYxVEpAAbTL5aIn6L4cshBDYge1kDsW_paZGz-HLyOzfAQPDMsJabuVr_l_VcHKjfQON4bs9JKLbIjSI69irxRy3sxTsorTA1be5M5gJKQXZuNs1DOEV0xe3ddnzhm7NW79W9_06OqIdz0re2kZCBV0zO5OiiisOPXGZHrfHCU5DH8nB1Wx3OKWmBWTq0FnPfdXTHXb-AaCi1BGAjueDNrjvzie_EWJRYYggciXcWPq2RW-43J7eUyYRgoiPsZcYlURAuI8IJvO4LsesolNtleOT77Idh2R6ENG2l2JFV0dRgdfrs3gheSQf7JiNq3NS1hbcm3Br3YwvvuXphbdaxMRGRJoQqnBBoCxkHn9YT4zvsyvTzU3qvfNzrEFU960CHfKlRCDw746TU_lATuCBSEdMkM7VFjE8S8kkt-_G0j6LlrzjxM-AlQrHSVMSXc1VwB9CVkARmjxWS-IGMjXB2hDlwqydHuAogPTTz2vIqgeGpsJ7JXEQ-agXCvgB_nvb9fbQb3tNJwsHcUf9EVBiOtK6WlMUEZhs3aTPXew-jF-DCa6d8CcWOIU-Hftt90zGtuX0jU0zzYaSOIFlty9fwJRm0]--></g></svg>