<?xml version="1.0" encoding="us-ascii" standalone="no"?><svg xmlns="http://www.w3.org/2000/svg" xmlns:xlink="http://www.w3.org/1999/xlink" contentStyleType="text/css" height="669px" preserveAspectRatio="none" style="width:353px;height:669px;background:#FFFFFF;" version="1.1" viewBox="0 0 353 669" width="353px" zoomAndPan="magnify"><defs/><g><text fill="#000000" font-family="sans-serif" font-size="14" font-weight="bold" lengthAdjust="spacing" textLength="47" x="151.5" y="34.5332">SID$27</text><ellipse cx="154.5" cy="58.6094" fill="#222222" rx="10" ry="10" style="stroke:#222222;stroke-width:1.0;"/><rect fill="#ADD8E6" height="538.0684" style="stroke:#000000;stroke-width:1.5;" width="331" x="11" y="78.6094"/><path d="M67,78.6094 L67,89.2188 L57,99.2188 L11,99.2188 " fill="none" style="stroke:#000000;stroke-width:1.5;"/><text fill="#000000" font-family="sans-serif" font-size="14" lengthAdjust="spacing" textLength="46" x="14" y="94.1426">SID$27</text><rect fill="#F5F5F5" height="309.54" style="stroke:#000000;stroke-width:1.5;" width="275" x="23" y="207.1377"/><path d="M96,207.1377 L96,217.7471 L86,227.7471 L23,227.7471 " fill="none" style="stroke:#000000;stroke-width:1.5;"/><text fill="#000000" font-family="sans-serif" font-size="14" lengthAdjust="spacing" textLength="63" x="26" y="222.6709">checkReq</text><polygon fill="#F1F1F1" points="55,301.666,117,301.666,129,313.666,117,325.666,55,325.666,43,313.666,55,301.666" style="stroke:#181818;stroke-width:0.5;"/><text fill="#000000" font-family="sans-serif" font-size="11" lengthAdjust="spacing" textLength="18" x="90" y="337.085">yes</text><text fill="#000000" font-family="sans-serif" font-size="11" lengthAdjust="spacing" textLength="62" x="55" y="318.167">requestSeed</text><polygon fill="#F1F1F1" points="161,301.666,204,301.666,216,313.666,204,325.666,161,325.666,149,313.666,161,301.666" style="stroke:#181818;stroke-width:0.5;"/><text fill="#000000" font-family="sans-serif" font-size="11" lengthAdjust="spacing" textLength="18" x="186.5" y="337.085">yes</text><text fill="#000000" font-family="sans-serif" font-size="11" lengthAdjust="spacing" textLength="43" x="161" y="318.167">sendKey</text><text fill="#000000" font-family="sans-serif" font-size="11" lengthAdjust="spacing" textLength="12" x="216" y="311.249">no</text><polygon fill="#F1F1F1" points="80,244.7471,229,244.7471,241,256.7471,229,268.7471,80,268.7471,68,256.7471,80,244.7471" style="stroke:#181818;stroke-width:0.5;"/><text fill="#000000" font-family="sans-serif" font-size="11" lengthAdjust="spacing" textLength="18" x="158.5" y="280.166">yes</text><text fill="#000000" font-family="sans-serif" font-size="11" lengthAdjust="spacing" textLength="149" x="80" y="261.248">&#12522;&#12463;&#12456;&#12473;&#12488;&#65381;&#12513;&#12483;&#12475;&#12540;&#12472;&#12398;&#26908;&#26619;</text><text fill="#000000" font-family="sans-serif" font-size="11" lengthAdjust="spacing" textLength="12" x="241" y="254.3301">no</text><polygon fill="#F1F1F1" points="154.5,425.584,166.5,437.584,154.5,449.584,142.5,437.584,154.5,425.584" style="stroke:#181818;stroke-width:0.5;"/><rect fill="#F1F1F1" height="35.0938" rx="12.5" ry="12.5" style="stroke:#181818;stroke-width:0.5;" width="188" x="60.5" y="469.584"/><text fill="#000000" font-family="sans-serif" font-size="12" lengthAdjust="spacing" textLength="168" x="70.5" y="492.041">&#12524;&#12473;&#12509;&#12531;&#12473;&#12539;&#12513;&#12483;&#12475;&#12540;&#12472;&#12398;&#29983;&#25104;</text><polygon fill="#F1F1F1" points="47,160.2188,262,160.2188,274,172.2188,262,184.2188,47,184.2188,35,172.2188,47,160.2188" style="stroke:#181818;stroke-width:0.5;"/><text fill="#000000" font-family="sans-serif" font-size="11" lengthAdjust="spacing" textLength="18" x="158.5" y="195.6377">yes</text><text fill="#000000" font-family="sans-serif" font-size="11" lengthAdjust="spacing" textLength="215" x="47" y="176.7197">Service $27 &#12522;&#12463;&#12456;&#12473;&#12488;&#12539;&#12513;&#12483;&#12475;&#12540;&#12472;&#12434;&#21463;&#20449;</text><text fill="#000000" font-family="sans-serif" font-size="11" lengthAdjust="spacing" textLength="12" x="274" y="169.8018">no</text><polygon fill="#F1F1F1" points="154.5,536.6777,166.5,548.6777,154.5,560.6777,142.5,548.6777,154.5,536.6777" style="stroke:#181818;stroke-width:0.5;"/><polygon fill="#F1F1F1" points="154.5,116.2188,166.5,128.2188,154.5,140.2188,142.5,128.2188,154.5,116.2188" style="stroke:#181818;stroke-width:0.5;"/><polygon fill="#F1F1F1" points="154.5,580.6777,154.5,580.6777,166.5,592.6777,154.5,604.6777,154.5,604.6777,142.5,592.6777,154.5,580.6777" style="stroke:#181818;stroke-width:0.5;"/><ellipse cx="154.5" cy="647.6777" fill="none" rx="11" ry="11" style="stroke:#222222;stroke-width:1.0;"/><ellipse cx="154.5" cy="647.6777" fill="#222222" rx="6" ry="6" style="stroke:#222222;stroke-width:1.0;"/><line style="stroke:#181818;stroke-width:1.0;" x1="86" x2="86" y1="325.666" y2="405.584"/><polygon fill="#181818" points="82,395.584,86,405.584,90,395.584,86,399.584" style="stroke:#181818;stroke-width:1.0;"/><line style="stroke:#181818;stroke-width:1.0;" x1="182.5" x2="182.5" y1="325.666" y2="405.584"/><polygon fill="#181818" points="178.5,395.584,182.5,405.584,186.5,395.584,182.5,399.584" style="stroke:#181818;stroke-width:1.0;"/><line style="stroke:#181818;stroke-width:1.0;" x1="129" x2="149" y1="313.666" y2="313.666"/><polygon fill="#181818" points="139,309.666,149,313.666,139,317.666,143,313.666" style="stroke:#181818;stroke-width:1.0;"/><line style="stroke:#181818;stroke-width:1.0;" x1="154.5" x2="154.5" y1="268.7471" y2="286.666"/><line style="stroke:#181818;stroke-width:1.0;" x1="154.5" x2="86" y1="286.666" y2="286.666"/><line style="stroke:#181818;stroke-width:1.0;" x1="86" x2="86" y1="286.666" y2="301.666"/><polygon fill="#181818" points="82,291.666,86,301.666,90,291.666,86,295.666" style="stroke:#181818;stroke-width:1.0;"/><line style="stroke:#181818;stroke-width:1.0;" x1="216" x2="251" y1="313.666" y2="313.666"/><line style="stroke:#181818;stroke-width:1.0;" x1="251" x2="251" y1="313.666" y2="405.584"/><polygon fill="#181818" points="247,395.584,251,405.584,255,395.584,251,399.584" style="stroke:#181818;stroke-width:1.0;"/><line style="stroke:#181818;stroke-width:1.0;" x1="86" x2="251" y1="405.584" y2="405.584"/><line style="stroke:#181818;stroke-width:1.0;" x1="241" x2="276" y1="256.7471" y2="256.7471"/><polygon fill="#181818" points="272,345.584,276,355.584,280,345.584,276,349.584" style="stroke:#181818;stroke-width:1.0;"/><line style="stroke:#181818;stroke-width:1.0;" x1="276" x2="276" y1="256.7471" y2="437.584"/><line style="stroke:#181818;stroke-width:1.0;" x1="276" x2="166.5" y1="437.584" y2="437.584"/><polygon fill="#181818" points="176.5,433.584,166.5,437.584,176.5,441.584,172.5,437.584" style="stroke:#181818;stroke-width:1.0;"/><line style="stroke:#181818;stroke-width:1.0;" x1="154.5" x2="154.5" y1="405.584" y2="425.584"/><polygon fill="#181818" points="150.5,415.584,154.5,425.584,158.5,415.584,154.5,419.584" style="stroke:#181818;stroke-width:1.0;"/><line style="stroke:#181818;stroke-width:1.0;" x1="154.5" x2="154.5" y1="449.584" y2="469.584"/><polygon fill="#181818" points="150.5,459.584,154.5,469.584,158.5,459.584,154.5,463.584" style="stroke:#181818;stroke-width:1.0;"/><line style="stroke:#181818;stroke-width:1.0;" x1="154.5" x2="154.5" y1="184.2188" y2="244.7471"/><polygon fill="#181818" points="150.5,234.7471,154.5,244.7471,158.5,234.7471,154.5,238.7471" style="stroke:#181818;stroke-width:1.0;"/><line style="stroke:#181818;stroke-width:1.0;" x1="274" x2="308" y1="172.2188" y2="172.2188"/><polygon fill="#181818" points="304,365.584,308,375.584,312,365.584,308,369.584" style="stroke:#181818;stroke-width:1.0;"/><line style="stroke:#181818;stroke-width:1.0;" x1="308" x2="308" y1="172.2188" y2="548.6777"/><line style="stroke:#181818;stroke-width:1.0;" x1="308" x2="166.5" y1="548.6777" y2="548.6777"/><polygon fill="#181818" points="176.5,544.6777,166.5,548.6777,176.5,552.6777,172.5,548.6777" style="stroke:#181818;stroke-width:1.0;"/><line style="stroke:#181818;stroke-width:1.0;" x1="154.5" x2="154.5" y1="504.6777" y2="536.6777"/><polygon fill="#181818" points="150.5,526.6777,154.5,536.6777,158.5,526.6777,154.5,530.6777" style="stroke:#181818;stroke-width:1.0;"/><line style="stroke:#181818;stroke-width:1.0;" x1="154.5" x2="154.5" y1="140.2188" y2="160.2188"/><polygon fill="#181818" points="150.5,150.2188,154.5,160.2188,158.5,150.2188,154.5,154.2188" style="stroke:#181818;stroke-width:1.0;"/><line style="stroke:#181818;stroke-width:1.0;" x1="166.5" x2="326" y1="592.6777" y2="592.6777"/><polygon fill="#181818" points="322,385.584,326,375.584,330,385.584,326,381.584" style="stroke:#181818;stroke-width:1.0;"/><line style="stroke:#181818;stroke-width:1.0;" x1="326" x2="326" y1="128.2188" y2="592.6777"/><line style="stroke:#181818;stroke-width:1.0;" x1="326" x2="166.5" y1="128.2188" y2="128.2188"/><polygon fill="#181818" points="176.5,124.2188,166.5,128.2188,176.5,132.2188,172.5,128.2188" style="stroke:#181818;stroke-width:1.0;"/><line style="stroke:#181818;stroke-width:1.0;" x1="154.5" x2="154.5" y1="560.6777" y2="580.6777"/><polygon fill="#181818" points="150.5,570.6777,154.5,580.6777,158.5,570.6777,154.5,574.6777" style="stroke:#181818;stroke-width:1.0;"/><line style="stroke:#181818;stroke-width:1.0;" x1="154.5" x2="154.5" y1="68.6094" y2="116.2188"/><polygon fill="#181818" points="150.5,106.2188,154.5,116.2188,158.5,106.2188,154.5,110.2188" style="stroke:#181818;stroke-width:1.0;"/><line style="stroke:#181818;stroke-width:1.0;" x1="154.5" x2="154.5" y1="604.6777" y2="636.6777"/><polygon fill="#181818" points="150.5,626.6777,154.5,636.6777,158.5,626.6777,154.5,630.6777" style="stroke:#181818;stroke-width:1.0;"/><!--SRC=[TP6nJiCm48PtFyL9PN1N5YJO40k2YGpCLN8Ggo594nTKeGxOIpSGGc81LPL0GWZ1m58K40zp44PU0TUEgZJ0JUVpv_-_yqaX8mHlSsDfUONbifD91YPIamWfahYwWjQss0_bUjJ7Omjac6B7iM8Fk8VPeV0HPYZfUr9FfEv8lP0UaIv8JqXhKYPv9JKbTVvvUldnFcc33346Fi2ypQnMtTaFqU_kO0zQkw6Gw1qaNMDUOSwsOVNzTjkqEdaiRwxASL6tWhc6q-4PzlgOImynM6YfZc6Keq5pZ8Cj73ZiRuh7IQCO1wPP4-nVp2Bpqohf1plHDUbdcnI_v_gw69UZixNgqT1zp4mOh39Rb7NxWgDGHCYTxz3iEqb_0000]--></g></svg>