<?xml version="1.0" encoding="us-ascii" standalone="no"?><svg xmlns="http://www.w3.org/2000/svg" xmlns:xlink="http://www.w3.org/1999/xlink" contentStyleType="text/css" height="1552px" preserveAspectRatio="none" style="width:1279px;height:1552px;background:#FFFFFF;" version="1.1" viewBox="0 0 1279 1552" width="1279px" zoomAndPan="magnify"><defs/><g><text fill="#000000" font-family="sans-serif" font-size="14" font-weight="bold" lengthAdjust="spacing" textLength="99" x="583.25" y="24.5332">ECU Simulator</text><!--class GUI--><g id="elem_GUI"><rect codeLine="3" fill="#F1F1F1" height="188.875" id="GUI" rx="2.5" ry="2.5" style="stroke:#181818;stroke-width:0.5;" width="219" x="195" y="312.6094"/><ellipse cx="288.75" cy="328.6094" fill="#ADD1B2" rx="11" ry="11" style="stroke:#181818;stroke-width:1.0;"/><path d="M291.5156,324.4844 Q291.6719,324.2656 291.8594,324.1563 Q292.0469,324.0469 292.2656,324.0469 Q292.6406,324.0469 292.875,324.3125 Q293.1094,324.5625 293.1094,325.1719 L293.1094,326.625 Q293.1094,327.2344 292.875,327.5 Q292.6406,327.7656 292.2656,327.7656 Q291.9219,327.7656 291.7188,327.5625 Q291.5156,327.375 291.4063,326.8594 Q291.3594,326.5 291.1719,326.3125 Q290.8438,325.9375 290.2344,325.7188 Q289.625,325.5 289,325.5 Q288.2344,325.5 287.5938,325.8281 Q286.9688,326.1563 286.4688,326.9063 Q285.9844,327.6563 285.9844,328.6875 L285.9844,329.7813 Q285.9844,331.0156 286.875,331.8438 Q287.7656,332.6563 289.3594,332.6563 Q290.2969,332.6563 290.9531,332.4063 Q291.3438,332.25 291.7656,331.8125 Q292.0313,331.5469 292.1719,331.4688 Q292.3281,331.3906 292.5313,331.3906 Q292.8594,331.3906 293.1094,331.6563 Q293.375,331.9063 293.375,332.25 Q293.375,332.5938 293.0313,333 Q292.5313,333.5781 291.7344,333.9063 Q290.6563,334.3594 289.3594,334.3594 Q287.8438,334.3594 286.6406,333.7344 Q285.6563,333.2344 284.9688,332.1719 Q284.2813,331.0938 284.2813,329.8125 L284.2813,328.6563 Q284.2813,327.3281 284.8906,326.1875 Q285.5156,325.0313 286.6094,324.4219 Q287.7031,323.7969 288.9375,323.7969 Q289.6719,323.7969 290.3125,323.9688 Q290.9688,324.125 291.5156,324.4844 Z " fill="#000000"/><text fill="#000000" font-family="sans-serif" font-size="14" lengthAdjust="spacing" textLength="23" x="309.25" y="334.3379">GUI</text><line style="stroke:#181818;stroke-width:0.5;" x1="196" x2="413" y1="344.6094" y2="344.6094"/><text fill="#000000" font-family="sans-serif" font-size="14" lengthAdjust="spacing" textLength="91" x="201" y="363.1426">+bus: BusABC</text><text fill="#000000" font-family="sans-serif" font-size="14" lengthAdjust="spacing" textLength="67" x="201" y="380.752">+ecu: ECU</text><text fill="#000000" font-family="sans-serif" font-size="14" lengthAdjust="spacing" textLength="105" x="201" y="398.3613">+energy: Energy</text><text fill="#000000" font-family="sans-serif" font-size="14" lengthAdjust="spacing" textLength="133" x="201" y="415.9707">+msg_queue: Queue</text><text fill="#000000" font-family="sans-serif" font-size="14" lengthAdjust="spacing" textLength="115" x="201" y="433.5801">+running: boolean</text><line style="stroke:#181818;stroke-width:0.5;" x1="196" x2="413" y1="440.6563" y2="440.6563"/><text fill="#000000" font-family="sans-serif" font-size="14" lengthAdjust="spacing" textLength="39" x="201" y="459.1895">+run()</text><text fill="#000000" font-family="sans-serif" font-size="14" lengthAdjust="spacing" textLength="45" x="201" y="476.7988">+stop()</text><text fill="#000000" font-family="sans-serif" font-size="14" lengthAdjust="spacing" textLength="207" x="201" y="494.4082">+send_message(data: Message)</text></g><!--class ECU--><g id="elem_ECU"><rect codeLine="14" fill="#F1F1F1" height="576.2813" id="ECU" rx="2.5" ry="2.5" style="stroke:#181818;stroke-width:0.5;" width="207" x="440" y="614.6094"/><ellipse cx="525.25" cy="630.6094" fill="#ADD1B2" rx="11" ry="11" style="stroke:#181818;stroke-width:1.0;"/><path d="M528.0156,626.4844 Q528.1719,626.2656 528.3594,626.1563 Q528.5469,626.0469 528.7656,626.0469 Q529.1406,626.0469 529.375,626.3125 Q529.6094,626.5625 529.6094,627.1719 L529.6094,628.625 Q529.6094,629.2344 529.375,629.5 Q529.1406,629.7656 528.7656,629.7656 Q528.4219,629.7656 528.2188,629.5625 Q528.0156,629.375 527.9063,628.8594 Q527.8594,628.5 527.6719,628.3125 Q527.3438,627.9375 526.7344,627.7188 Q526.125,627.5 525.5,627.5 Q524.7344,627.5 524.0938,627.8281 Q523.4688,628.1563 522.9688,628.9063 Q522.4844,629.6563 522.4844,630.6875 L522.4844,631.7813 Q522.4844,633.0156 523.375,633.8438 Q524.2656,634.6563 525.8594,634.6563 Q526.7969,634.6563 527.4531,634.4063 Q527.8438,634.25 528.2656,633.8125 Q528.5313,633.5469 528.6719,633.4688 Q528.8281,633.3906 529.0313,633.3906 Q529.3594,633.3906 529.6094,633.6563 Q529.875,633.9063 529.875,634.25 Q529.875,634.5938 529.5313,635 Q529.0313,635.5781 528.2344,635.9063 Q527.1563,636.3594 525.8594,636.3594 Q524.3438,636.3594 523.1406,635.7344 Q522.1563,635.2344 521.4688,634.1719 Q520.7813,633.0938 520.7813,631.8125 L520.7813,630.6563 Q520.7813,629.3281 521.3906,628.1875 Q522.0156,627.0313 523.1094,626.4219 Q524.2031,625.7969 525.4375,625.7969 Q526.1719,625.7969 526.8125,625.9688 Q527.4688,626.125 528.0156,626.4844 Z " fill="#000000"/><text fill="#000000" font-family="sans-serif" font-size="14" lengthAdjust="spacing" textLength="28" x="545.75" y="636.3379">ECU</text><line style="stroke:#181818;stroke-width:0.5;" x1="441" x2="646" y1="646.6094" y2="646.6094"/><text fill="#000000" font-family="sans-serif" font-size="14" lengthAdjust="spacing" textLength="91" x="446" y="665.1426">+bus: BusABC</text><text fill="#000000" font-family="sans-serif" font-size="14" lengthAdjust="spacing" textLength="112" x="446" y="682.752">+enerygy: Energy</text><text fill="#000000" font-family="sans-serif" font-size="14" lengthAdjust="spacing" textLength="132" x="446" y="700.3613">+SID_HANDLER: dict</text><text fill="#000000" font-family="sans-serif" font-size="14" lengthAdjust="spacing" textLength="123" x="446" y="717.9707">+start_event: Event</text><text fill="#000000" font-family="sans-serif" font-size="14" lengthAdjust="spacing" textLength="122" x="446" y="735.5801">+stop_event: Event</text><text fill="#000000" font-family="sans-serif" font-size="14" lengthAdjust="spacing" textLength="120" x="446" y="753.1895">+dtc: DTCManager</text><text fill="#000000" font-family="sans-serif" font-size="14" lengthAdjust="spacing" textLength="114" x="446" y="770.7988">+did: DIDManager</text><text fill="#000000" font-family="sans-serif" font-size="14" lengthAdjust="spacing" textLength="119" x="446" y="788.4082">+illegal_access: int</text><text fill="#000000" font-family="sans-serif" font-size="14" lengthAdjust="spacing" textLength="155" x="446" y="806.0176">+power_on_time: double</text><text fill="#000000" font-family="sans-serif" font-size="14" lengthAdjust="spacing" textLength="106" x="446" y="823.627">+dt_igon: double</text><text fill="#000000" font-family="sans-serif" font-size="14" lengthAdjust="spacing" textLength="115" x="446" y="841.2363">+running: boolean</text><text fill="#000000" font-family="sans-serif" font-size="14" lengthAdjust="spacing" textLength="116" x="446" y="858.8457">+security: Security</text><text fill="#000000" font-family="sans-serif" font-size="14" lengthAdjust="spacing" textLength="177" x="446" y="876.4551">+received_request: boolean</text><text fill="#000000" font-family="sans-serif" font-size="14" lengthAdjust="spacing" textLength="112" x="446" y="894.0645">+moving: boolean</text><text fill="#000000" font-family="sans-serif" font-size="14" lengthAdjust="spacing" textLength="174" x="446" y="911.6738">+is_memory_error: boolean</text><text fill="#000000" font-family="sans-serif" font-size="14" lengthAdjust="spacing" textLength="132" x="446" y="929.2832">+session: SESSIONS</text><line style="stroke:#181818;stroke-width:0.5;" x1="441" x2="646" y1="936.3594" y2="936.3594"/><text fill="#000000" font-family="sans-serif" font-size="14" lengthAdjust="spacing" textLength="89" x="446" y="954.8926">+reset_state()</text><text fill="#000000" font-family="sans-serif" font-size="14" lengthAdjust="spacing" textLength="87" x="446" y="972.502">+hard_reset()</text><text fill="#000000" font-family="sans-serif" font-size="14" lengthAdjust="spacing" textLength="39" x="446" y="990.1113">+run()</text><text fill="#000000" font-family="sans-serif" font-size="14" lengthAdjust="spacing" textLength="46" x="446" y="1007.7207">+start()</text><text fill="#000000" font-family="sans-serif" font-size="14" lengthAdjust="spacing" textLength="45" x="446" y="1025.3301">+stop()</text><text fill="#000000" font-family="sans-serif" font-size="14" lengthAdjust="spacing" textLength="186" x="446" y="1042.9395">+DTCStatusAvailabilityMask()</text><text fill="#000000" font-family="sans-serif" font-size="14" lengthAdjust="spacing" textLength="146" x="446" y="1060.5488">+DTCFormatIdentifier()</text><text fill="#000000" font-family="sans-serif" font-size="14" lengthAdjust="spacing" textLength="53" x="446" y="1078.1582">+dtcstr()</text><text fill="#000000" font-family="sans-serif" font-size="14" lengthAdjust="spacing" textLength="126" x="446" y="1095.7676">+dtc_available_list()</text><text fill="#000000" font-family="sans-serif" font-size="14" lengthAdjust="spacing" textLength="102" x="446" y="1113.377">+extend_delay()</text><text fill="#000000" font-family="sans-serif" font-size="14" lengthAdjust="spacing" textLength="163" x="446" y="1130.9863">+communication_control()</text><text fill="#000000" font-family="sans-serif" font-size="14" lengthAdjust="spacing" textLength="87" x="446" y="1148.5957">+dtc_setting()</text><text fill="#000000" font-family="sans-serif" font-size="14" lengthAdjust="spacing" textLength="76" x="446" y="1166.2051">+dtc_clear()</text><text fill="#000000" font-family="sans-serif" font-size="14" lengthAdjust="spacing" textLength="195" x="446" y="1183.8145">+find_dataRecord(did: int)-&gt;list</text></g><!--class Security--><g id="elem_Security"><rect codeLine="48" fill="#F1F1F1" height="100.8281" id="Security" rx="2.5" ry="2.5" style="stroke:#181818;stroke-width:0.5;" width="96" x="637.5" y="80.6094"/><ellipse cx="658.35" cy="96.6094" fill="#A9DCDF" rx="11" ry="11" style="stroke:#181818;stroke-width:1.0;"/><path d="M660.5375,98.375 L656.3969,98.375 L655.975,99.4063 L656.3969,99.4063 Q657.0063,99.4063 657.2719,99.6406 Q657.5375,99.875 657.5375,100.2656 Q657.5375,100.6406 657.2719,100.875 Q657.0063,101.1094 656.3969,101.1094 L654.1,101.1094 Q653.4906,101.1094 653.2406,100.875 Q652.975,100.6406 652.975,100.25 Q652.975,99.875 653.2563,99.6406 Q653.5219,99.3906 654.1469,99.4063 L656.8188,92.75 L655.7094,92.75 Q655.1,92.75 654.8344,92.5156 Q654.5688,92.2813 654.5688,91.8906 Q654.5688,91.5156 654.8344,91.2813 Q655.1,91.0469 655.7094,91.0469 L659.3813,91.0469 L662.7719,99.4063 Q663.3656,99.4063 663.5531,99.5469 Q663.9438,99.8125 663.9438,100.2656 Q663.9438,100.6406 663.6781,100.875 Q663.4281,101.1094 662.8188,101.1094 L660.5219,101.1094 Q659.9125,101.1094 659.6469,100.875 Q659.3813,100.6406 659.3813,100.25 Q659.3813,99.875 659.6469,99.6406 Q659.9125,99.4063 660.5219,99.4063 L660.9438,99.4063 L660.5375,98.375 Z M659.8188,96.6719 L658.4594,93.2969 L657.0844,96.6719 L659.8188,96.6719 Z " fill="#000000"/><text fill="#000000" font-family="sans-serif" font-size="14" font-style="italic" lengthAdjust="spacing" textLength="51" x="673.65" y="102.3379">Security</text><line style="stroke:#181818;stroke-width:0.5;" x1="638.5" x2="732.5" y1="112.6094" y2="112.6094"/><text fill="#000000" font-family="sans-serif" font-size="14" lengthAdjust="spacing" textLength="75" x="643.5" y="131.1426">+FALSE: int</text><text fill="#000000" font-family="sans-serif" font-size="14" lengthAdjust="spacing" textLength="84" x="643.5" y="148.752">+TYPE_V: int</text><text fill="#000000" font-family="sans-serif" font-size="14" lengthAdjust="spacing" textLength="83" x="643.5" y="166.3613">+TYPE_X: int</text><line style="stroke:#181818;stroke-width:0.5;" x1="638.5" x2="732.5" y1="173.4375" y2="173.4375"/></g><!--class Energy--><g id="elem_Energy"><rect codeLine="54" fill="#F1F1F1" height="83.2188" id="Energy" rx="2.5" ry="2.5" style="stroke:#181818;stroke-width:0.5;" width="117" x="287" y="1365.6094"/><ellipse cx="320" cy="1381.6094" fill="#A9DCDF" rx="11" ry="11" style="stroke:#181818;stroke-width:1.0;"/><path d="M322.1875,1383.375 L318.0469,1383.375 L317.625,1384.4063 L318.0469,1384.4063 Q318.6563,1384.4063 318.9219,1384.6406 Q319.1875,1384.875 319.1875,1385.2656 Q319.1875,1385.6406 318.9219,1385.875 Q318.6563,1386.1094 318.0469,1386.1094 L315.75,1386.1094 Q315.1406,1386.1094 314.8906,1385.875 Q314.625,1385.6406 314.625,1385.25 Q314.625,1384.875 314.9063,1384.6406 Q315.1719,1384.3906 315.7969,1384.4063 L318.4688,1377.75 L317.3594,1377.75 Q316.75,1377.75 316.4844,1377.5156 Q316.2188,1377.2813 316.2188,1376.8906 Q316.2188,1376.5156 316.4844,1376.2813 Q316.75,1376.0469 317.3594,1376.0469 L321.0313,1376.0469 L324.4219,1384.4063 Q325.0156,1384.4063 325.2031,1384.5469 Q325.5938,1384.8125 325.5938,1385.2656 Q325.5938,1385.6406 325.3281,1385.875 Q325.0781,1386.1094 324.4688,1386.1094 L322.1719,1386.1094 Q321.5625,1386.1094 321.2969,1385.875 Q321.0313,1385.6406 321.0313,1385.25 Q321.0313,1384.875 321.2969,1384.6406 Q321.5625,1384.4063 322.1719,1384.4063 L322.5938,1384.4063 L322.1875,1383.375 Z M321.4688,1381.6719 L320.1094,1378.2969 L318.7344,1381.6719 L321.4688,1381.6719 Z " fill="#000000"/><text fill="#000000" font-family="sans-serif" font-size="14" font-style="italic" lengthAdjust="spacing" textLength="45" x="338" y="1387.3379">Energy</text><line style="stroke:#181818;stroke-width:0.5;" x1="288" x2="403" y1="1397.6094" y2="1397.6094"/><text fill="#000000" font-family="sans-serif" font-size="14" lengthAdjust="spacing" textLength="105" x="293" y="1416.1426">+voltage: double</text><text fill="#000000" font-family="sans-serif" font-size="14" lengthAdjust="spacing" textLength="89" x="293" y="1433.752">+status: string</text><line style="stroke:#181818;stroke-width:0.5;" x1="288" x2="403" y1="1440.8281" y2="1440.8281"/></g><!--class DID--><g id="elem_DID"><rect codeLine="59" fill="#F1F1F1" height="259.3125" id="DID" rx="2.5" ry="2.5" style="stroke:#181818;stroke-width:0.5;" width="210" x="1000.5" y="773.1094"/><ellipse cx="1089.25" cy="789.1094" fill="#A9DCDF" rx="11" ry="11" style="stroke:#181818;stroke-width:1.0;"/><path d="M1091.4375,790.875 L1087.2969,790.875 L1086.875,791.9063 L1087.2969,791.9063 Q1087.9063,791.9063 1088.1719,792.1406 Q1088.4375,792.375 1088.4375,792.7656 Q1088.4375,793.1406 1088.1719,793.375 Q1087.9063,793.6094 1087.2969,793.6094 L1085,793.6094 Q1084.3906,793.6094 1084.1406,793.375 Q1083.875,793.1406 1083.875,792.75 Q1083.875,792.375 1084.1563,792.1406 Q1084.4219,791.8906 1085.0469,791.9063 L1087.7188,785.25 L1086.6094,785.25 Q1086,785.25 1085.7344,785.0156 Q1085.4688,784.7813 1085.4688,784.3906 Q1085.4688,784.0156 1085.7344,783.7813 Q1086,783.5469 1086.6094,783.5469 L1090.2813,783.5469 L1093.6719,791.9063 Q1094.2656,791.9063 1094.4531,792.0469 Q1094.8438,792.3125 1094.8438,792.7656 Q1094.8438,793.1406 1094.5781,793.375 Q1094.3281,793.6094 1093.7188,793.6094 L1091.4219,793.6094 Q1090.8125,793.6094 1090.5469,793.375 Q1090.2813,793.1406 1090.2813,792.75 Q1090.2813,792.375 1090.5469,792.1406 Q1090.8125,791.9063 1091.4219,791.9063 L1091.8438,791.9063 L1091.4375,790.875 Z M1090.7188,789.1719 L1089.3594,785.7969 L1087.9844,789.1719 L1090.7188,789.1719 Z " fill="#000000"/><text fill="#000000" font-family="sans-serif" font-size="14" font-style="italic" lengthAdjust="spacing" textLength="24" x="1109.75" y="794.8379">DID</text><line style="stroke:#181818;stroke-width:0.5;" x1="1001.5" x2="1209.5" y1="805.1094" y2="805.1094"/><text fill="#000000" font-family="sans-serif" font-size="14" lengthAdjust="spacing" textLength="42" x="1006.5" y="823.6426">+id: int</text><text fill="#000000" font-family="sans-serif" font-size="14" lengthAdjust="spacing" textLength="67" x="1006.5" y="841.252">+name: str</text><text fill="#000000" font-family="sans-serif" font-size="14" lengthAdjust="spacing" textLength="87" x="1006.5" y="858.8613">+category: str</text><text fill="#000000" font-family="sans-serif" font-size="14" lengthAdjust="spacing" textLength="70" x="1006.5" y="876.4707">+length: int</text><text fill="#000000" font-family="sans-serif" font-size="14" lengthAdjust="spacing" textLength="122" x="1006.5" y="894.0801">+get_func: Callable</text><text fill="#000000" font-family="sans-serif" font-size="14" lengthAdjust="spacing" textLength="84" x="1006.5" y="911.6895">+value: bytes</text><text fill="#000000" font-family="sans-serif" font-size="14" lengthAdjust="spacing" textLength="157" x="1006.5" y="929.2988">+supported_services: list</text><text fill="#000000" font-family="sans-serif" font-size="14" lengthAdjust="spacing" textLength="160" x="1006.5" y="946.9082">+supported_sessions: list</text><text fill="#000000" font-family="sans-serif" font-size="14" lengthAdjust="spacing" textLength="198" x="1006.5" y="964.5176">+supported_security_levels: list</text><text fill="#000000" font-family="sans-serif" font-size="14" lengthAdjust="spacing" textLength="193" x="1006.5" y="982.127">+supported_security_0x2E: list</text><text fill="#000000" font-family="sans-serif" font-size="14" lengthAdjust="spacing" textLength="147" x="1006.5" y="999.7363">+supported_driving: list</text><text fill="#000000" font-family="sans-serif" font-size="14" lengthAdjust="spacing" textLength="76" x="1006.5" y="1017.3457">+refusal: list</text><line style="stroke:#181818;stroke-width:0.5;" x1="1001.5" x2="1209.5" y1="1024.4219" y2="1024.4219"/></g><!--class DIDManager--><g id="elem_DIDManager"><rect codeLine="74" fill="#F1F1F1" height="276.9219" id="DIDManager" rx="2.5" ry="2.5" style="stroke:#181818;stroke-width:0.5;" width="414" x="858.5" y="1268.6094"/><ellipse cx="1021.75" cy="1284.6094" fill="#ADD1B2" rx="11" ry="11" style="stroke:#181818;stroke-width:1.0;"/><path d="M1024.5156,1280.4844 Q1024.6719,1280.2656 1024.8594,1280.1563 Q1025.0469,1280.0469 1025.2656,1280.0469 Q1025.6406,1280.0469 1025.875,1280.3125 Q1026.1094,1280.5625 1026.1094,1281.1719 L1026.1094,1282.625 Q1026.1094,1283.2344 1025.875,1283.5 Q1025.6406,1283.7656 1025.2656,1283.7656 Q1024.9219,1283.7656 1024.7188,1283.5625 Q1024.5156,1283.375 1024.4063,1282.8594 Q1024.3594,1282.5 1024.1719,1282.3125 Q1023.8438,1281.9375 1023.2344,1281.7188 Q1022.625,1281.5 1022,1281.5 Q1021.2344,1281.5 1020.5938,1281.8281 Q1019.9688,1282.1563 1019.4688,1282.9063 Q1018.9844,1283.6563 1018.9844,1284.6875 L1018.9844,1285.7813 Q1018.9844,1287.0156 1019.875,1287.8438 Q1020.7656,1288.6563 1022.3594,1288.6563 Q1023.2969,1288.6563 1023.9531,1288.4063 Q1024.3438,1288.25 1024.7656,1287.8125 Q1025.0313,1287.5469 1025.1719,1287.4688 Q1025.3281,1287.3906 1025.5313,1287.3906 Q1025.8594,1287.3906 1026.1094,1287.6563 Q1026.375,1287.9063 1026.375,1288.25 Q1026.375,1288.5938 1026.0313,1289 Q1025.5313,1289.5781 1024.7344,1289.9063 Q1023.6563,1290.3594 1022.3594,1290.3594 Q1020.8438,1290.3594 1019.6406,1289.7344 Q1018.6563,1289.2344 1017.9688,1288.1719 Q1017.2813,1287.0938 1017.2813,1285.8125 L1017.2813,1284.6563 Q1017.2813,1283.3281 1017.8906,1282.1875 Q1018.5156,1281.0313 1019.6094,1280.4219 Q1020.7031,1279.7969 1021.9375,1279.7969 Q1022.6719,1279.7969 1023.3125,1279.9688 Q1023.9688,1280.125 1024.5156,1280.4844 Z " fill="#000000"/><text fill="#000000" font-family="sans-serif" font-size="14" lengthAdjust="spacing" textLength="79" x="1042.25" y="1290.3379">DIDManager</text><line style="stroke:#181818;stroke-width:0.5;" x1="859.5" x2="1271.5" y1="1300.6094" y2="1300.6094"/><text fill="#000000" font-family="sans-serif" font-size="14" lengthAdjust="spacing" textLength="133" x="864.5" y="1319.1426">+did_config_path: str</text><text fill="#000000" font-family="sans-serif" font-size="14" lengthAdjust="spacing" textLength="137" x="864.5" y="1336.752">+ecu_config_path: str</text><text fill="#000000" font-family="sans-serif" font-size="14" lengthAdjust="spacing" textLength="136" x="864.5" y="1354.3613">+supported_dids: dict</text><text fill="#000000" font-family="sans-serif" font-size="14" lengthAdjust="spacing" textLength="122" x="864.5" y="1371.9707">+did_sid_table: dict</text><text fill="#000000" font-family="sans-serif" font-size="14" lengthAdjust="spacing" textLength="120" x="864.5" y="1389.5801">+func_registry: dict</text><text fill="#000000" font-family="sans-serif" font-size="14" lengthAdjust="spacing" textLength="67" x="864.5" y="1407.1895">+ecu: ECU</text><line style="stroke:#181818;stroke-width:0.5;" x1="859.5" x2="1271.5" y1="1414.2656" y2="1414.2656"/><text fill="#000000" font-family="sans-serif" font-size="14" lengthAdjust="spacing" textLength="284" x="864.5" y="1432.7988">+write_data_record(did: int, data_record: list)</text><text fill="#000000" font-family="sans-serif" font-size="14" lengthAdjust="spacing" textLength="402" x="864.5" y="1450.4082">+check_special_did_update(did: int, data_record: list)-&gt;boolean</text><text fill="#000000" font-family="sans-serif" font-size="14" lengthAdjust="spacing" textLength="240" x="864.5" y="1468.0176">+get_data_record_length(did: int)-&gt;int</text><text fill="#000000" font-family="sans-serif" font-size="14" lengthAdjust="spacing" textLength="206" x="864.5" y="1485.627">+is_supported(did: int)-&gt;boolean</text><text fill="#000000" font-family="sans-serif" font-size="14" lengthAdjust="spacing" textLength="146" x="864.5" y="1503.2363">+read_did(did: int)-&gt;list</text><text fill="#000000" font-family="sans-serif" font-size="14" lengthAdjust="spacing" textLength="109" x="864.5" y="1520.8457">+refresh_cache()</text><text fill="#000000" font-family="sans-serif" font-size="14" lengthAdjust="spacing" textLength="67" x="864.5" y="1538.4551">+...()-&gt;Any</text></g><!--class DTC--><g id="elem_DTC"><rect codeLine="90" fill="#F1F1F1" height="276.9219" id="DTC" rx="2.5" ry="2.5" style="stroke:#181818;stroke-width:0.5;" width="283" x="682" y="764.1094"/><ellipse cx="804.75" cy="780.1094" fill="#A9DCDF" rx="11" ry="11" style="stroke:#181818;stroke-width:1.0;"/><path d="M806.9375,781.875 L802.7969,781.875 L802.375,782.9063 L802.7969,782.9063 Q803.4063,782.9063 803.6719,783.1406 Q803.9375,783.375 803.9375,783.7656 Q803.9375,784.1406 803.6719,784.375 Q803.4063,784.6094 802.7969,784.6094 L800.5,784.6094 Q799.8906,784.6094 799.6406,784.375 Q799.375,784.1406 799.375,783.75 Q799.375,783.375 799.6563,783.1406 Q799.9219,782.8906 800.5469,782.9063 L803.2188,776.25 L802.1094,776.25 Q801.5,776.25 801.2344,776.0156 Q800.9688,775.7813 800.9688,775.3906 Q800.9688,775.0156 801.2344,774.7813 Q801.5,774.5469 802.1094,774.5469 L805.7813,774.5469 L809.1719,782.9063 Q809.7656,782.9063 809.9531,783.0469 Q810.3438,783.3125 810.3438,783.7656 Q810.3438,784.1406 810.0781,784.375 Q809.8281,784.6094 809.2188,784.6094 L806.9219,784.6094 Q806.3125,784.6094 806.0469,784.375 Q805.7813,784.1406 805.7813,783.75 Q805.7813,783.375 806.0469,783.1406 Q806.3125,782.9063 806.9219,782.9063 L807.3438,782.9063 L806.9375,781.875 Z M806.2188,780.1719 L804.8594,776.7969 L803.4844,780.1719 L806.2188,780.1719 Z " fill="#000000"/><text fill="#000000" font-family="sans-serif" font-size="14" font-style="italic" lengthAdjust="spacing" textLength="29" x="825.25" y="785.8379">DTC</text><line style="stroke:#181818;stroke-width:0.5;" x1="683" x2="964" y1="796.1094" y2="796.1094"/><text fill="#000000" font-family="sans-serif" font-size="14" lengthAdjust="spacing" textLength="58" x="688" y="814.6426">+high: int</text><text fill="#000000" font-family="sans-serif" font-size="14" lengthAdjust="spacing" textLength="53" x="688" y="832.252">+mid: int</text><text fill="#000000" font-family="sans-serif" font-size="14" lengthAdjust="spacing" textLength="51" x="688" y="849.8613">+low: int</text><text fill="#000000" font-family="sans-serif" font-size="14" lengthAdjust="spacing" textLength="69" x="688" y="867.4707">+status: int</text><text fill="#000000" font-family="sans-serif" font-size="14" lengthAdjust="spacing" textLength="93" x="688" y="885.0801">+testFailed: int</text><text fill="#000000" font-family="sans-serif" font-size="14" lengthAdjust="spacing" textLength="221" x="688" y="902.6895">+testFailedThisMonitoringCycle: int</text><text fill="#000000" font-family="sans-serif" font-size="14" lengthAdjust="spacing" textLength="111" x="688" y="920.2988">+pendingDTC: int</text><text fill="#000000" font-family="sans-serif" font-size="14" lengthAdjust="spacing" textLength="122" x="688" y="937.9082">+confirmedDTC: int</text><text fill="#000000" font-family="sans-serif" font-size="14" lengthAdjust="spacing" textLength="239" x="688" y="955.5176">+testNotCompletedSinceLastClear: int</text><text fill="#000000" font-family="sans-serif" font-size="14" lengthAdjust="spacing" textLength="189" x="688" y="973.127">+testFailedSinceLastClear: int</text><text fill="#000000" font-family="sans-serif" font-size="14" lengthAdjust="spacing" textLength="271" x="688" y="990.7363">+testNotCompletedThisMonitoringCycle: int</text><text fill="#000000" font-family="sans-serif" font-size="14" lengthAdjust="spacing" textLength="203" x="688" y="1008.3457">+warningIndicatorRequested: int</text><line style="stroke:#181818;stroke-width:0.5;" x1="683" x2="964" y1="1015.4219" y2="1015.4219"/><text fill="#000000" font-family="sans-serif" font-size="14" lengthAdjust="spacing" textLength="211" x="688" y="1033.9551">+check_dtc_setting(method: Any)</text></g><!--class DTCManager--><g id="elem_DTCManager"><rect codeLine="106" fill="#F1F1F1" height="153.6563" id="DTCManager" rx="2.5" ry="2.5" style="stroke:#181818;stroke-width:0.5;" width="208" x="507.5" y="1330.1094"/><ellipse cx="564.75" cy="1346.1094" fill="#ADD1B2" rx="11" ry="11" style="stroke:#181818;stroke-width:1.0;"/><path d="M567.5156,1341.9844 Q567.6719,1341.7656 567.8594,1341.6563 Q568.0469,1341.5469 568.2656,1341.5469 Q568.6406,1341.5469 568.875,1341.8125 Q569.1094,1342.0625 569.1094,1342.6719 L569.1094,1344.125 Q569.1094,1344.7344 568.875,1345 Q568.6406,1345.2656 568.2656,1345.2656 Q567.9219,1345.2656 567.7188,1345.0625 Q567.5156,1344.875 567.4063,1344.3594 Q567.3594,1344 567.1719,1343.8125 Q566.8438,1343.4375 566.2344,1343.2188 Q565.625,1343 565,1343 Q564.2344,1343 563.5938,1343.3281 Q562.9688,1343.6563 562.4688,1344.4063 Q561.9844,1345.1563 561.9844,1346.1875 L561.9844,1347.2813 Q561.9844,1348.5156 562.875,1349.3438 Q563.7656,1350.1563 565.3594,1350.1563 Q566.2969,1350.1563 566.9531,1349.9063 Q567.3438,1349.75 567.7656,1349.3125 Q568.0313,1349.0469 568.1719,1348.9688 Q568.3281,1348.8906 568.5313,1348.8906 Q568.8594,1348.8906 569.1094,1349.1563 Q569.375,1349.4063 569.375,1349.75 Q569.375,1350.0938 569.0313,1350.5 Q568.5313,1351.0781 567.7344,1351.4063 Q566.6563,1351.8594 565.3594,1351.8594 Q563.8438,1351.8594 562.6406,1351.2344 Q561.6563,1350.7344 560.9688,1349.6719 Q560.2813,1348.5938 560.2813,1347.3125 L560.2813,1346.1563 Q560.2813,1344.8281 560.8906,1343.6875 Q561.5156,1342.5313 562.6094,1341.9219 Q563.7031,1341.2969 564.9375,1341.2969 Q565.6719,1341.2969 566.3125,1341.4688 Q566.9688,1341.625 567.5156,1341.9844 Z " fill="#000000"/><text fill="#000000" font-family="sans-serif" font-size="14" lengthAdjust="spacing" textLength="85" x="585.25" y="1351.8379">DTCManager</text><line style="stroke:#181818;stroke-width:0.5;" x1="508.5" x2="714.5" y1="1362.1094" y2="1362.1094"/><text fill="#000000" font-family="sans-serif" font-size="14" lengthAdjust="spacing" textLength="77" x="513.5" y="1380.6426">+dtc_list: list</text><text fill="#000000" font-family="sans-serif" font-size="14" lengthAdjust="spacing" textLength="136" x="513.5" y="1398.252">+dtc_setting: boolean</text><line style="stroke:#181818;stroke-width:0.5;" x1="508.5" x2="714.5" y1="1405.3281" y2="1405.3281"/><text fill="#000000" font-family="sans-serif" font-size="14" lengthAdjust="spacing" textLength="76" x="513.5" y="1423.8613">+clear_dtc()</text><text fill="#000000" font-family="sans-serif" font-size="14" lengthAdjust="spacing" textLength="102" x="513.5" y="1441.4707">+get_dtcs()-&gt;list</text><text fill="#000000" font-family="sans-serif" font-size="14" lengthAdjust="spacing" textLength="196" x="513.5" y="1459.0801">+report_number(mask: int)-&gt;int</text><text fill="#000000" font-family="sans-serif" font-size="14" lengthAdjust="spacing" textLength="169" x="513.5" y="1476.6895">+report_dtc(mask: int)-&gt;list</text></g><!--class SESSIONS--><g id="elem_SESSIONS"><rect codeLine="115" fill="#F1F1F1" height="171.2656" id="SESSIONS" rx="2.5" ry="2.5" style="stroke:#181818;stroke-width:0.5;" width="252" x="768.5" y="45.6094"/><ellipse cx="855.25" cy="61.6094" fill="#A9DCDF" rx="11" ry="11" style="stroke:#181818;stroke-width:1.0;"/><path d="M857.4375,63.375 L853.2969,63.375 L852.875,64.4063 L853.2969,64.4063 Q853.9063,64.4063 854.1719,64.6406 Q854.4375,64.875 854.4375,65.2656 Q854.4375,65.6406 854.1719,65.875 Q853.9063,66.1094 853.2969,66.1094 L851,66.1094 Q850.3906,66.1094 850.1406,65.875 Q849.875,65.6406 849.875,65.25 Q849.875,64.875 850.1563,64.6406 Q850.4219,64.3906 851.0469,64.4063 L853.7188,57.75 L852.6094,57.75 Q852,57.75 851.7344,57.5156 Q851.4688,57.2813 851.4688,56.8906 Q851.4688,56.5156 851.7344,56.2813 Q852,56.0469 852.6094,56.0469 L856.2813,56.0469 L859.6719,64.4063 Q860.2656,64.4063 860.4531,64.5469 Q860.8438,64.8125 860.8438,65.2656 Q860.8438,65.6406 860.5781,65.875 Q860.3281,66.1094 859.7188,66.1094 L857.4219,66.1094 Q856.8125,66.1094 856.5469,65.875 Q856.2813,65.6406 856.2813,65.25 Q856.2813,64.875 856.5469,64.6406 Q856.8125,64.4063 857.4219,64.4063 L857.8438,64.4063 L857.4375,63.375 Z M856.7188,61.6719 L855.3594,58.2969 L853.9844,61.6719 L856.7188,61.6719 Z " fill="#000000"/><text fill="#000000" font-family="sans-serif" font-size="14" font-style="italic" lengthAdjust="spacing" textLength="70" x="875.75" y="67.3379">SESSIONS</text><line style="stroke:#181818;stroke-width:0.5;" x1="769.5" x2="1019.5" y1="77.6094" y2="77.6094"/><text fill="#000000" font-family="sans-serif" font-size="14" lengthAdjust="spacing" textLength="161" x="774.5" y="96.1426">+DEFAULT_SESSION: int</text><text fill="#000000" font-family="sans-serif" font-size="14" lengthAdjust="spacing" textLength="203" x="774.5" y="113.752">+PROGRAMMING_SESSION: int</text><text fill="#000000" font-family="sans-serif" font-size="14" lengthAdjust="spacing" textLength="171" x="774.5" y="131.3613">+EXTENDED_SESSION: int</text><text fill="#000000" font-family="sans-serif" font-size="14" lengthAdjust="spacing" textLength="191" x="774.5" y="148.9707">+FOTAINSTALL_SESSION: int</text><text fill="#000000" font-family="sans-serif" font-size="14" lengthAdjust="spacing" textLength="185" x="774.5" y="166.5801">+FOTAACTIVE_SESSION: int</text><text fill="#000000" font-family="sans-serif" font-size="14" lengthAdjust="spacing" textLength="240" x="774.5" y="184.1895">+FOTAINSTALLACTIVE_SESSION: int</text><text fill="#000000" font-family="sans-serif" font-size="14" lengthAdjust="spacing" textLength="190" x="774.5" y="201.7988">+ENGINEERING_SESSION: int</text><line style="stroke:#181818;stroke-width:0.5;" x1="769.5" x2="1019.5" y1="208.875" y2="208.875"/></g><!--class BaseSID--><g id="elem_BaseSID"><rect codeLine="125" fill="#F1F1F1" height="259.3125" id="BaseSID" rx="2.5" ry="2.5" style="stroke:#181818;stroke-width:0.5;" width="339" x="449" y="277.6094"/><ellipse cx="586.75" cy="293.6094" fill="#A9DCDF" rx="11" ry="11" style="stroke:#181818;stroke-width:1.0;"/><path d="M588.9375,295.375 L584.7969,295.375 L584.375,296.4063 L584.7969,296.4063 Q585.4063,296.4063 585.6719,296.6406 Q585.9375,296.875 585.9375,297.2656 Q585.9375,297.6406 585.6719,297.875 Q585.4063,298.1094 584.7969,298.1094 L582.5,298.1094 Q581.8906,298.1094 581.6406,297.875 Q581.375,297.6406 581.375,297.25 Q581.375,296.875 581.6563,296.6406 Q581.9219,296.3906 582.5469,296.4063 L585.2188,289.75 L584.1094,289.75 Q583.5,289.75 583.2344,289.5156 Q582.9688,289.2813 582.9688,288.8906 Q582.9688,288.5156 583.2344,288.2813 Q583.5,288.0469 584.1094,288.0469 L587.7813,288.0469 L591.1719,296.4063 Q591.7656,296.4063 591.9531,296.5469 Q592.3438,296.8125 592.3438,297.2656 Q592.3438,297.6406 592.0781,297.875 Q591.8281,298.1094 591.2188,298.1094 L588.9219,298.1094 Q588.3125,298.1094 588.0469,297.875 Q587.7813,297.6406 587.7813,297.25 Q587.7813,296.875 588.0469,296.6406 Q588.3125,296.4063 588.9219,296.4063 L589.3438,296.4063 L588.9375,295.375 Z M588.2188,293.6719 L586.8594,290.2969 L585.4844,293.6719 L588.2188,293.6719 Z " fill="#000000"/><text fill="#000000" font-family="sans-serif" font-size="14" font-style="italic" lengthAdjust="spacing" textLength="55" x="607.25" y="299.3379">BaseSID</text><line style="stroke:#181818;stroke-width:0.5;" x1="450" x2="787" y1="309.6094" y2="309.6094"/><text fill="#000000" font-family="sans-serif" font-size="14" lengthAdjust="spacing" textLength="130" x="455" y="328.1426">+SID_0x10: BaseSID</text><text fill="#000000" font-family="sans-serif" font-size="14" lengthAdjust="spacing" textLength="130" x="455" y="345.752">+SID_0x11: BaseSID</text><text fill="#000000" font-family="sans-serif" font-size="14" lengthAdjust="spacing" textLength="130" x="455" y="363.3613">+SID_0x14: BaseSID</text><text fill="#000000" font-family="sans-serif" font-size="14" lengthAdjust="spacing" textLength="130" x="455" y="380.9707">+SID_0x19: BaseSID</text><text fill="#000000" font-family="sans-serif" font-size="14" lengthAdjust="spacing" textLength="130" x="455" y="398.5801">+SID_0x22: BaseSID</text><text fill="#000000" font-family="sans-serif" font-size="14" lengthAdjust="spacing" textLength="130" x="455" y="416.1895">+SID_0x27: BaseSID</text><text fill="#000000" font-family="sans-serif" font-size="14" lengthAdjust="spacing" textLength="130" x="455" y="433.7988">+SID_0x28: BaseSID</text><text fill="#000000" font-family="sans-serif" font-size="14" lengthAdjust="spacing" textLength="131" x="455" y="451.4082">+SID_0x2E: BaseSID</text><text fill="#000000" font-family="sans-serif" font-size="14" lengthAdjust="spacing" textLength="131" x="455" y="469.0176">+SID_0x3E: BaseSID</text><text fill="#000000" font-family="sans-serif" font-size="14" lengthAdjust="spacing" textLength="130" x="455" y="486.627">+SID_0x85: BaseSID</text><line style="stroke:#181818;stroke-width:0.5;" x1="450" x2="787" y1="493.7031" y2="493.7031"/><text fill="#000000" font-family="sans-serif" font-size="14" lengthAdjust="spacing" textLength="321" x="455" y="512.2363">+PositiveResponse(ecu: ECU, data: list)-&gt;Message</text><text fill="#000000" font-family="sans-serif" font-size="14" lengthAdjust="spacing" textLength="327" x="455" y="529.8457">+NegativeResponse(ecu: ECU, data: list)-&gt;Message</text></g><!--class PowerInput--><g id="elem_PowerInput"><rect codeLine="140" fill="#F1F1F1" height="83.2188" id="PowerInput" rx="2.5" ry="2.5" style="stroke:#181818;stroke-width:0.5;" width="119" x="286" y="861.1094"/><ellipse cx="308.65" cy="877.1094" fill="#ADD1B2" rx="11" ry="11" style="stroke:#181818;stroke-width:1.0;"/><path d="M311.4156,872.9844 Q311.5719,872.7656 311.7594,872.6563 Q311.9469,872.5469 312.1656,872.5469 Q312.5406,872.5469 312.775,872.8125 Q313.0094,873.0625 313.0094,873.6719 L313.0094,875.125 Q313.0094,875.7344 312.775,876 Q312.5406,876.2656 312.1656,876.2656 Q311.8219,876.2656 311.6188,876.0625 Q311.4156,875.875 311.3063,875.3594 Q311.2594,875 311.0719,874.8125 Q310.7438,874.4375 310.1344,874.2188 Q309.525,874 308.9,874 Q308.1344,874 307.4938,874.3281 Q306.8688,874.6563 306.3688,875.4063 Q305.8844,876.1563 305.8844,877.1875 L305.8844,878.2813 Q305.8844,879.5156 306.775,880.3438 Q307.6656,881.1563 309.2594,881.1563 Q310.1969,881.1563 310.8531,880.9063 Q311.2438,880.75 311.6656,880.3125 Q311.9313,880.0469 312.0719,879.9688 Q312.2281,879.8906 312.4313,879.8906 Q312.7594,879.8906 313.0094,880.1563 Q313.275,880.4063 313.275,880.75 Q313.275,881.0938 312.9313,881.5 Q312.4313,882.0781 311.6344,882.4063 Q310.5563,882.8594 309.2594,882.8594 Q307.7438,882.8594 306.5406,882.2344 Q305.5563,881.7344 304.8688,880.6719 Q304.1813,879.5938 304.1813,878.3125 L304.1813,877.1563 Q304.1813,875.8281 304.7906,874.6875 Q305.4156,873.5313 306.5094,872.9219 Q307.6031,872.2969 308.8375,872.2969 Q309.5719,872.2969 310.2125,872.4688 Q310.8688,872.625 311.4156,872.9844 Z " fill="#000000"/><text fill="#000000" font-family="sans-serif" font-size="14" lengthAdjust="spacing" textLength="70" x="324.35" y="882.8379">PowerInput</text><line style="stroke:#181818;stroke-width:0.5;" x1="287" x2="404" y1="893.1094" y2="893.1094"/><text fill="#000000" font-family="sans-serif" font-size="14" lengthAdjust="spacing" textLength="107" x="292" y="911.6426">+Voltage: double</text><text fill="#000000" font-family="sans-serif" font-size="14" lengthAdjust="spacing" textLength="89" x="292" y="929.252">+status: string</text><line style="stroke:#181818;stroke-width:0.5;" x1="287" x2="404" y1="936.3281" y2="936.3281"/></g><!--class WrappedMessage--><g id="elem_WrappedMessage"><rect codeLine="145" fill="#F1F1F1" height="171.2656" id="WrappedMessage" rx="2.5" ry="2.5" style="stroke:#181818;stroke-width:0.5;" width="595" x="7" y="45.6094"/><ellipse cx="241.75" cy="61.6094" fill="#A9DCDF" rx="11" ry="11" style="stroke:#181818;stroke-width:1.0;"/><path d="M243.9375,63.375 L239.7969,63.375 L239.375,64.4063 L239.7969,64.4063 Q240.4063,64.4063 240.6719,64.6406 Q240.9375,64.875 240.9375,65.2656 Q240.9375,65.6406 240.6719,65.875 Q240.4063,66.1094 239.7969,66.1094 L237.5,66.1094 Q236.8906,66.1094 236.6406,65.875 Q236.375,65.6406 236.375,65.25 Q236.375,64.875 236.6563,64.6406 Q236.9219,64.3906 237.5469,64.4063 L240.2188,57.75 L239.1094,57.75 Q238.5,57.75 238.2344,57.5156 Q237.9688,57.2813 237.9688,56.8906 Q237.9688,56.5156 238.2344,56.2813 Q238.5,56.0469 239.1094,56.0469 L242.7813,56.0469 L246.1719,64.4063 Q246.7656,64.4063 246.9531,64.5469 Q247.3438,64.8125 247.3438,65.2656 Q247.3438,65.6406 247.0781,65.875 Q246.8281,66.1094 246.2188,66.1094 L243.9219,66.1094 Q243.3125,66.1094 243.0469,65.875 Q242.7813,65.6406 242.7813,65.25 Q242.7813,64.875 243.0469,64.6406 Q243.3125,64.4063 243.9219,64.4063 L244.3438,64.4063 L243.9375,63.375 Z M243.2188,61.6719 L241.8594,58.2969 L240.4844,61.6719 L243.2188,61.6719 Z " fill="#000000"/><text fill="#000000" font-family="sans-serif" font-size="14" font-style="italic" lengthAdjust="spacing" textLength="117" x="262.25" y="67.3379">WrappedMessage</text><line style="stroke:#181818;stroke-width:0.5;" x1="8" x2="601" y1="77.6094" y2="77.6094"/><text fill="#000000" font-family="sans-serif" font-size="14" lengthAdjust="spacing" textLength="132" x="13" y="96.1426">+session: SESSIONS</text><text fill="#000000" font-family="sans-serif" font-size="14" lengthAdjust="spacing" textLength="114" x="13" y="113.752">+security: security</text><line style="stroke:#181818;stroke-width:0.5;" x1="8" x2="601" y1="120.8281" y2="120.8281"/><text fill="#000000" font-family="sans-serif" font-size="14" lengthAdjust="spacing" textLength="116" x="13" y="139.3613">+msg_id_str()-&gt;str</text><text fill="#000000" font-family="sans-serif" font-size="14" lengthAdjust="spacing" textLength="99" x="13" y="156.9707">+data_str()-&gt;str</text><text fill="#000000" font-family="sans-serif" font-size="14" lengthAdjust="spacing" textLength="108" x="13" y="174.5801">+combined()-&gt;str</text><text fill="#000000" font-family="sans-serif" font-size="14" lengthAdjust="spacing" textLength="101" x="13" y="192.1895">+direction()-&gt;str</text><text fill="#000000" font-family="sans-serif" font-size="14" lengthAdjust="spacing" textLength="583" x="13" y="209.7988">+wrap_from_msg(msg: Message, session: SESSIONS, security: security)-&gt;WrappedMessage</text></g><!--link PowerInput to Energy--><g id="link_PowerInput_Energy"><path codeLine="154" d="M345.5,944.3094 C345.5,1038.5794 345.5,1253.0794 345.5,1347.3894 " fill="none" id="PowerInput-to-Energy" style="stroke:#181818;stroke-width:1.0;"/><polygon fill="none" points="345.5,1365.3894,351.5,1347.3894,339.5,1347.3894,345.5,1365.3894" style="stroke:#181818;stroke-width:1.0;"/></g><!--link DID to DIDManager--><g id="link_DID_DIDManager"><path codeLine="155" d="M1095.25,1032.3594 C1089.5,1104.6194 1083.7475,1176.8361 1077.8875,1250.4961 " fill="none" id="DID-to-DIDManager" style="stroke:#181818;stroke-width:1.0;"/><polygon fill="none" points="1076.46,1268.4394,1083.8686,1250.9719,1071.9064,1250.0202,1076.46,1268.4394" style="stroke:#181818;stroke-width:1.0;"/></g><!--link DTC to DTCManager--><g id="link_DTC_DTCManager"><path codeLine="156" d="M809.78,1041.4494 C799.72,1103.9794 782.37,1177.4394 752.5,1238.6094 C736.49,1271.3994 724.5188,1289.608 700.9788,1316.488 " fill="none" id="DTC-to-DTCManager" style="stroke:#181818;stroke-width:1.0;"/><polygon fill="none" points="689.12,1330.0294,705.4926,1320.4409,696.465,1312.5351,689.12,1330.0294" style="stroke:#181818;stroke-width:1.0;"/></g><!--link WrappedMessage to GUI--><g id="link_WrappedMessage_GUI"><path codeLine="157" d="M304.5,216.9294 C304.5,247.1094 304.5,263.2494 304.5,294.1494 " fill="none" id="WrappedMessage-to-GUI" style="stroke:#181818;stroke-width:1.0;"/><polygon fill="none" points="304.5,312.1494,310.5,294.1494,298.5,294.1494,304.5,312.1494" style="stroke:#181818;stroke-width:1.0;"/></g><!--link GUI to Energy--><g id="link_GUI_Energy"><path codeLine="158" d="M271.78,501.7594 C261.16,536.7094 250.76,577.0394 245.5,614.6094 C209.99,868.1394 190.32,940.6294 245.5,1190.6094 C259.77,1255.2494 292.4112,1318.3758 317.0512,1360.3258 " fill="none" id="GUI-to-Energy" style="stroke:#181818;stroke-width:1.0;"/><polygon fill="#181818" points="320.09,1365.4994,318.9809,1355.7132,317.5577,1361.1881,312.0828,1359.7649,320.09,1365.4994" style="stroke:#181818;stroke-width:1.0;"/><text fill="#000000" font-family="sans-serif" font-size="13" lengthAdjust="spacing" textLength="21" x="246.5" y="908.1045">use</text></g><!--link ECU to Energy--><g id="link_ECU_Energy"><path codeLine="159" d="M439.86,1166.6294 C409.26,1244.2794 381.4598,1314.8472 363.7698,1359.7372 " fill="none" id="ECU-to-Energy" style="stroke:#181818;stroke-width:1.0;"/><polygon fill="#181818" points="361.57,1365.3194,368.5912,1358.4126,363.4032,1360.6675,361.1482,1355.4796,361.57,1365.3194" style="stroke:#181818;stroke-width:1.0;"/><text fill="#000000" font-family="sans-serif" font-size="13" lengthAdjust="spacing" textLength="21" x="416.5" y="1235.1045">use</text></g><!--link GUI to ECU--><g id="link_GUI_ECU"><path codeLine="160" d="M325.46,501.6794 C335.28,530.5694 349.41,560.9694 369.5,584.6094 C387.03,605.2394 404.5,594.3894 422.5,614.6094 C428.52,621.3794 430.6846,623.6684 436.1846,631.0484 " fill="none" id="GUI-to-ECU" style="stroke:#181818;stroke-width:1.0;"/><polygon fill="#181818" points="439.77,635.8594,437.5992,626.2527,436.7822,631.8503,431.1846,631.0332,439.77,635.8594" style="stroke:#181818;stroke-width:1.0;"/><text fill="#000000" font-family="sans-serif" font-size="13" lengthAdjust="spacing" textLength="53" x="370.5" y="581.1045">Message</text></g><!--link ECU to GUI--><g id="link_ECU_GUI"><path codeLine="161" d="M452.07,614.1994 C444.64,597.8494 436.79,581.8794 428.5,566.6094 C416.5,544.4994 405.0512,527.0809 389.6012,506.5809 " fill="none" id="ECU-to-GUI" style="stroke:#181818;stroke-width:1.0;"/><polygon fill="#181818" points="385.99,501.7894,388.2124,511.3842,388.9993,505.7824,394.6012,506.5693,385.99,501.7894" style="stroke:#181818;stroke-width:1.0;"/><text fill="#000000" font-family="sans-serif" font-size="13" lengthAdjust="spacing" textLength="105" x="438.5" y="581.1045">WrappedMessage</text></g><!--link ECU to DTCManager--><g id="link_ECU_DTCManager"><path codeLine="162" d="M582.37,1190.8194 C589.3,1242.0394 595.1448,1285.2836 600.3448,1323.6836 " fill="none" id="ECU-to-DTCManager" style="stroke:#181818;stroke-width:1.0;"/><polygon fill="#181818" points="601.15,1329.6294,603.9061,1320.174,600.479,1324.6746,595.9785,1321.2475,601.15,1329.6294" style="stroke:#181818;stroke-width:1.0;"/><text fill="#000000" font-family="sans-serif" font-size="13" lengthAdjust="spacing" textLength="79" x="589.5" y="1235.1045">DTC, security</text></g><!--link ECU to DIDManager--><g id="link_ECU_DIDManager"><path codeLine="163" d="M647.04,1169.5294 C652.59,1176.8594 658.4,1183.9094 664.5,1190.6094 C717.43,1248.7694 784.4096,1291.624 853.0996,1325.524 " fill="none" id="ECU-to-DIDManager" style="stroke:#181818;stroke-width:1.0;"/><polygon fill="#181818" points="858.48,1328.1794,852.1796,1320.6094,853.9963,1325.9666,848.6391,1327.7833,858.48,1328.1794" style="stroke:#181818;stroke-width:1.0;"/><text fill="#000000" font-family="sans-serif" font-size="13" lengthAdjust="spacing" textLength="21" x="709.5" y="1235.1045">DID</text></g><!--link BaseSID to ECU--><g id="link_BaseSID_ECU"><path codeLine="164" d="M598.94,536.7994 C595.25,561.0794 592.1609,581.4174 588.0709,608.3474 " fill="none" id="BaseSID-to-ECU" style="stroke:#181818;stroke-width:1.0;"/><polygon fill="#181818" points="587.17,614.2794,592.476,605.982,587.9208,609.3361,584.5667,604.7808,587.17,614.2794" style="stroke:#181818;stroke-width:1.0;"/><text fill="#000000" font-family="sans-serif" font-size="13" lengthAdjust="spacing" textLength="51" x="595.5" y="581.1045">BaseSID</text></g><!--SRC=[dLTXR_8s4FxEh_17gfMgRxTfx_AX4eMqYmIq8xHxzyaooH6i9d5cExIist_VEN620w7JXeGWpvtFvxldpXVDTGh4dpoJa6TbohIG0_NAyu99bf4ePKgDjPPyNMe88f67_4yWruDAG1wU0_8n8FZvRbqgZzoLQdmtgG68Ii_OjKyvo6IFGFLROvbAw1ybbE2HNyrFZSeoptcUU6GjH0eiRz7XHVrNQL6q_o6FQGPAiGI6CTFC8_FwwMBmzy1wQGvtralqPt_iM1XCwI_ZnNJcBpqIyqWt6pEfAUmWrwXlVWuEzS2nZZmoNKtcB4T_f0LvZ60mxO0yJI5XAMLHXCvxX3Sc2l46aegSQfvXb69HhbDeh5EUYBmBziTEOIeartZ8qFwpsX01tq5C9M0Qb3vQbedTgIskCDoPa7iAKWfvifDIt3WL-c4OF2x2GREJ0aqnVXgQp6sPD1iZtY2T56Ea-_ADuGpH2YPmntZArZp5qyoPUdKKxeNCc0vYJ0JVS92D2FEXjFj4MMqa1PforUu7xzgmAeQKxHii4bbMvZnY6ez7iGoq5Abh2i-XCLek565Sskqst9X4WYuX4Z8ULZp0F5-CRitUXgniZUwnIDT5r-RACfVSZsUXxt23h7v_ykdB2VAjHauDrWotvdOYrKZ0BdrK5LgFu38yIuy99AvTRzsl7t9cs8cQDbYOvWGfua0fv8dUEaiIvCEcpB529YojSc3zOgdf1-kz1cMTAej2I8qqLI1t72l48oPaA3jLgEXd5KwbTK1fYhMQ_flIzVkDtwyIIruNna4eOLCgbbgeRJo7Elzegz-GPyCJMZ0JZpP0kEqPYRCnZvNRZumrXLzjmkSAJ62njX9qncJX8EZsv3SyA5IaHEKEAo-9WzQdQWfX2z4hLGL471kMyQ0iObFMdoqTtNQwXCczeqHhShWbqT84sqrxVbUXUpS0gu9pKbHDRh3DR6d4qFUc7A-kheQeDSxt7PPZzx2PslB4fMlMuNigtfodfcfQ0Achxx6pGDmBhhPSpKNEyQP56atsaKdUeULZxq4OFN70YXaoWxWB6viBeISYArB028KyZs36b9wOrjEx-QSghgtFlNnZqbmq0VeQcP5XMTyWdHFNL76ROmPwAr05m-vSpuShqiQ-QfncOPEjYZ3OlOUTn1hBviajH6Utum4238jeNcPhl18ol39Eo6PLpCQk_5n_jbUSTNhgtu-VPojgOISEJyl7X-LuFWyM3prI_zlANqpzQO_e_d4r3XRXQZoRdP6E9wlWnVzywLaTV_4GB7n_UUmNwJdi7LCGjitVp4VNxr-klGRlm5_wuH_wuPzxuPkRVlYdVlXhF-ptmj_tmrz_R67ItYrFGd6DCz8IL84N2moR3bgtkRQ_sQ6pNhJ0OUw_B6ehuScCUq5UbBgPLr_-rpNzcsH50R6r_t5kDZiQ3bLdE3J3kRbVpCGqkcrlewfl7uCu7QrvZXsweycnlPjngOE-eMjq8qL6SOCXVjk1_PASU7X9Jhr3OztZuVcTk8r6VzqsipnUl_MpCszZix7OOJ3lsgl5-6OpC6yter5ZZdYaL30mBnCdOAk9mlP0hQgHUaT9QOK7FqZrjd0uyq6bTPzKxmw3XgPsomET_m40]--></g></svg>