<?xml version="1.0" encoding="us-ascii" standalone="no"?><svg xmlns="http://www.w3.org/2000/svg" xmlns:xlink="http://www.w3.org/1999/xlink" contentStyleType="text/css" height="361px" preserveAspectRatio="none" style="width:1093px;height:361px;background:#FFFFFF;" version="1.1" viewBox="0 0 1093 361" width="1093px" zoomAndPan="magnify"><defs/><g><!--class DTC--><g id="elem_DTC"><rect codeLine="4" fill="#F1F1F1" height="347.3594" id="DTC" rx="2.5" ry="2.5" style="stroke:#181818;stroke-width:0.5;" width="385" x="701" y="7"/><ellipse cx="874.75" cy="23" fill="#ADD1B2" rx="11" ry="11" style="stroke:#181818;stroke-width:1.0;"/><path d="M877.5156,18.875 Q877.6719,18.6563 877.8594,18.5469 Q878.0469,18.4375 878.2656,18.4375 Q878.6406,18.4375 878.875,18.7031 Q879.1094,18.9531 879.1094,19.5625 L879.1094,21.0156 Q879.1094,21.625 878.875,21.8906 Q878.6406,22.1563 878.2656,22.1563 Q877.9219,22.1563 877.7188,21.9531 Q877.5156,21.7656 877.4063,21.25 Q877.3594,20.8906 877.1719,20.7031 Q876.8438,20.3281 876.2344,20.1094 Q875.625,19.8906 875,19.8906 Q874.2344,19.8906 873.5938,20.2188 Q872.9688,20.5469 872.4688,21.2969 Q871.9844,22.0469 871.9844,23.0781 L871.9844,24.1719 Q871.9844,25.4063 872.875,26.2344 Q873.7656,27.0469 875.3594,27.0469 Q876.2969,27.0469 876.9531,26.7969 Q877.3438,26.6406 877.7656,26.2031 Q878.0313,25.9375 878.1719,25.8594 Q878.3281,25.7813 878.5313,25.7813 Q878.8594,25.7813 879.1094,26.0469 Q879.375,26.2969 879.375,26.6406 Q879.375,26.9844 879.0313,27.3906 Q878.5313,27.9688 877.7344,28.2969 Q876.6563,28.75 875.3594,28.75 Q873.8438,28.75 872.6406,28.125 Q871.6563,27.625 870.9688,26.5625 Q870.2813,25.4844 870.2813,24.2031 L870.2813,23.0469 Q870.2813,21.7188 870.8906,20.5781 Q871.5156,19.4219 872.6094,18.8125 Q873.7031,18.1875 874.9375,18.1875 Q875.6719,18.1875 876.3125,18.3594 Q876.9688,18.5156 877.5156,18.875 Z " fill="#000000"/><text fill="#000000" font-family="sans-serif" font-size="14" lengthAdjust="spacing" textLength="29" x="895.25" y="28.7285">DTC</text><line style="stroke:#181818;stroke-width:0.5;" x1="702" x2="1085" y1="39" y2="39"/><text fill="#000000" font-family="sans-serif" font-size="14" lengthAdjust="spacing" textLength="102" x="707" y="57.5332">-_data: List&lt;int&gt;</text><text fill="#000000" font-family="sans-serif" font-size="14" lengthAdjust="spacing" textLength="58" x="707" y="75.1426">+high: int</text><text fill="#000000" font-family="sans-serif" font-size="14" lengthAdjust="spacing" textLength="53" x="707" y="92.752">+mid: int</text><text fill="#000000" font-family="sans-serif" font-size="14" lengthAdjust="spacing" textLength="51" x="707" y="110.3613">+low: int</text><text fill="#000000" font-family="sans-serif" font-size="14" lengthAdjust="spacing" textLength="69" x="707" y="127.9707">+status: int</text><text fill="#000000" font-family="sans-serif" font-size="14" lengthAdjust="spacing" textLength="105" x="707" y="145.5801">+testFailed: bool</text><text fill="#000000" font-family="sans-serif" font-size="14" lengthAdjust="spacing" textLength="233" x="707" y="163.1895">+testFailedThisMonitoringCycle: bool</text><text fill="#000000" font-family="sans-serif" font-size="14" lengthAdjust="spacing" textLength="123" x="707" y="180.7988">+pendingDTC: bool</text><text fill="#000000" font-family="sans-serif" font-size="14" lengthAdjust="spacing" textLength="134" x="707" y="198.4082">+confirmedDTC: bool</text><text fill="#000000" font-family="sans-serif" font-size="14" lengthAdjust="spacing" textLength="251" x="707" y="216.0176">+testNotCompletedSinceLastClear: bool</text><text fill="#000000" font-family="sans-serif" font-size="14" lengthAdjust="spacing" textLength="201" x="707" y="233.627">+testFailedSinceLastClear: bool</text><text fill="#000000" font-family="sans-serif" font-size="14" lengthAdjust="spacing" textLength="283" x="707" y="251.2363">+testNotCompletedThisMonitoringCycle: bool</text><text fill="#000000" font-family="sans-serif" font-size="14" lengthAdjust="spacing" textLength="215" x="707" y="268.8457">+warningIndicatorRequested: bool</text><line style="stroke:#181818;stroke-width:0.5;" x1="702" x2="1085" y1="275.9219" y2="275.9219"/><text fill="#000000" font-family="sans-serif" font-size="14" lengthAdjust="spacing" textLength="96" x="707" y="294.4551">+__init__(data)</text><text fill="#000000" font-family="sans-serif" font-size="14" lengthAdjust="spacing" textLength="114" x="707" y="312.0645">+to_bytes(): bytes</text><text fill="#000000" font-family="sans-serif" font-size="14" lengthAdjust="spacing" textLength="116" x="707" y="329.6738">+to_list(): List&lt;int&gt;</text><text fill="#000000" font-family="sans-serif" font-size="14" lengthAdjust="spacing" textLength="373" x="707" y="347.2832">+from_dtc_string(dtc_str: str, status_byte: int = None): DTC</text></g><!--class DTCManager--><g id="elem_DTCManager"><rect codeLine="24" fill="#F1F1F1" height="188.875" id="DTCManager" rx="2.5" ry="2.5" style="stroke:#181818;stroke-width:0.5;" width="226" x="351" y="86"/><ellipse cx="417.25" cy="102" fill="#ADD1B2" rx="11" ry="11" style="stroke:#181818;stroke-width:1.0;"/><path d="M420.0156,97.875 Q420.1719,97.6563 420.3594,97.5469 Q420.5469,97.4375 420.7656,97.4375 Q421.1406,97.4375 421.375,97.7031 Q421.6094,97.9531 421.6094,98.5625 L421.6094,100.0156 Q421.6094,100.625 421.375,100.8906 Q421.1406,101.1563 420.7656,101.1563 Q420.4219,101.1563 420.2188,100.9531 Q420.0156,100.7656 419.9063,100.25 Q419.8594,99.8906 419.6719,99.7031 Q419.3438,99.3281 418.7344,99.1094 Q418.125,98.8906 417.5,98.8906 Q416.7344,98.8906 416.0938,99.2188 Q415.4688,99.5469 414.9688,100.2969 Q414.4844,101.0469 414.4844,102.0781 L414.4844,103.1719 Q414.4844,104.4063 415.375,105.2344 Q416.2656,106.0469 417.8594,106.0469 Q418.7969,106.0469 419.4531,105.7969 Q419.8438,105.6406 420.2656,105.2031 Q420.5313,104.9375 420.6719,104.8594 Q420.8281,104.7813 421.0313,104.7813 Q421.3594,104.7813 421.6094,105.0469 Q421.875,105.2969 421.875,105.6406 Q421.875,105.9844 421.5313,106.3906 Q421.0313,106.9688 420.2344,107.2969 Q419.1563,107.75 417.8594,107.75 Q416.3438,107.75 415.1406,107.125 Q414.1563,106.625 413.4688,105.5625 Q412.7813,104.4844 412.7813,103.2031 L412.7813,102.0469 Q412.7813,100.7188 413.3906,99.5781 Q414.0156,98.4219 415.1094,97.8125 Q416.2031,97.1875 417.4375,97.1875 Q418.1719,97.1875 418.8125,97.3594 Q419.4688,97.5156 420.0156,97.875 Z " fill="#000000"/><text fill="#000000" font-family="sans-serif" font-size="14" lengthAdjust="spacing" textLength="85" x="437.75" y="107.7285">DTCManager</text><line style="stroke:#181818;stroke-width:0.5;" x1="352" x2="576" y1="118" y2="118"/><text fill="#000000" font-family="sans-serif" font-size="14" lengthAdjust="spacing" textLength="132" x="357" y="136.5332">-_dtc_list: List&lt;DTC&gt;</text><line style="stroke:#181818;stroke-width:0.5;" x1="352" x2="576" y1="143.6094" y2="143.6094"/><text fill="#000000" font-family="sans-serif" font-size="14" lengthAdjust="spacing" textLength="153" x="357" y="162.1426">+__init__(dtc_list=None)</text><text fill="#000000" font-family="sans-serif" font-size="14" lengthAdjust="spacing" textLength="172" x="357" y="179.752">+__iadd__(dtc_code: DTC)</text><text fill="#000000" font-family="sans-serif" font-size="14" lengthAdjust="spacing" textLength="169" x="357" y="197.3613">+__add__(dtc_code: DTC)</text><text fill="#000000" font-family="sans-serif" font-size="14" lengthAdjust="spacing" textLength="76" x="357" y="214.9707">+clear_dtc()</text><text fill="#000000" font-family="sans-serif" font-size="14" lengthAdjust="spacing" textLength="147" x="357" y="232.5801">+get_dtcs(): List&lt;DTC&gt;</text><text fill="#000000" font-family="sans-serif" font-size="14" lengthAdjust="spacing" textLength="191" x="357" y="250.1895">+report_number(mask: int): int</text><text fill="#000000" font-family="sans-serif" font-size="14" lengthAdjust="spacing" textLength="214" x="357" y="267.7988">+report_dtc(mask: int): List&lt;DTC&gt;</text></g><!--class ECU--><g id="elem_ECU"><rect codeLine="35" fill="#F1F1F1" height="153.6563" id="ECU" rx="2.5" ry="2.5" style="stroke:#181818;stroke-width:0.5;" width="216" x="7" y="103.5"/><ellipse cx="96.75" cy="119.5" fill="#ADD1B2" rx="11" ry="11" style="stroke:#181818;stroke-width:1.0;"/><path d="M99.5156,115.375 Q99.6719,115.1563 99.8594,115.0469 Q100.0469,114.9375 100.2656,114.9375 Q100.6406,114.9375 100.875,115.2031 Q101.1094,115.4531 101.1094,116.0625 L101.1094,117.5156 Q101.1094,118.125 100.875,118.3906 Q100.6406,118.6563 100.2656,118.6563 Q99.9219,118.6563 99.7188,118.4531 Q99.5156,118.2656 99.4063,117.75 Q99.3594,117.3906 99.1719,117.2031 Q98.8438,116.8281 98.2344,116.6094 Q97.625,116.3906 97,116.3906 Q96.2344,116.3906 95.5938,116.7188 Q94.9688,117.0469 94.4688,117.7969 Q93.9844,118.5469 93.9844,119.5781 L93.9844,120.6719 Q93.9844,121.9063 94.875,122.7344 Q95.7656,123.5469 97.3594,123.5469 Q98.2969,123.5469 98.9531,123.2969 Q99.3438,123.1406 99.7656,122.7031 Q100.0313,122.4375 100.1719,122.3594 Q100.3281,122.2813 100.5313,122.2813 Q100.8594,122.2813 101.1094,122.5469 Q101.375,122.7969 101.375,123.1406 Q101.375,123.4844 101.0313,123.8906 Q100.5313,124.4688 99.7344,124.7969 Q98.6563,125.25 97.3594,125.25 Q95.8438,125.25 94.6406,124.625 Q93.6563,124.125 92.9688,123.0625 Q92.2813,121.9844 92.2813,120.7031 L92.2813,119.5469 Q92.2813,118.2188 92.8906,117.0781 Q93.5156,115.9219 94.6094,115.3125 Q95.7031,114.6875 96.9375,114.6875 Q97.6719,114.6875 98.3125,114.8594 Q98.9688,115.0156 99.5156,115.375 Z " fill="#000000"/><text fill="#000000" font-family="sans-serif" font-size="14" lengthAdjust="spacing" textLength="28" x="117.25" y="125.2285">ECU</text><line style="stroke:#181818;stroke-width:0.5;" x1="8" x2="222" y1="135.5" y2="135.5"/><text fill="#000000" font-family="sans-serif" font-size="14" lengthAdjust="spacing" textLength="117" x="13" y="154.0332">-dtc: DTCManager</text><text fill="#000000" font-family="sans-serif" font-size="14" lengthAdjust="spacing" textLength="204" x="13" y="171.6426">-_DTCStatusAvailabilityMask: int</text><text fill="#000000" font-family="sans-serif" font-size="14" lengthAdjust="spacing" textLength="164" x="13" y="189.252">-_DTCFormatIdentifier: int</text><text fill="#000000" font-family="sans-serif" font-size="14" lengthAdjust="spacing" textLength="12" x="13" y="206.8613">...</text><line style="stroke:#181818;stroke-width:0.5;" x1="8" x2="222" y1="213.9375" y2="213.9375"/><text fill="#000000" font-family="sans-serif" font-size="14" lengthAdjust="spacing" textLength="76" x="13" y="232.4707">+dtc_clear()</text><text fill="#000000" font-family="sans-serif" font-size="14" lengthAdjust="spacing" textLength="30" x="13" y="250.0801">+...()</text></g><!--reverse link ECU to DTCManager--><g id="link_ECU_DTCManager"><path codeLine="44" d="M235.42,180.5 C275.92,180.5 310.08,180.5 350.99,180.5 " fill="none" id="ECU-backto-DTCManager" style="stroke:#181818;stroke-width:1.0;"/><polygon fill="none" points="223.42,180.5,229.42,184.5,235.42,180.5,229.42,176.5,223.42,180.5" style="stroke:#181818;stroke-width:1.0;"/><polygon fill="#000000" points="263,171.6758,253.9549,168.7369,253.9549,174.6147,263,171.6758" style="stroke:#000000;stroke-width:1.0;"/><text fill="#000000" font-family="sans-serif" font-size="13" lengthAdjust="spacing" textLength="53" x="267" y="176.9951">manages</text><text fill="#000000" font-family="sans-serif" font-size="13" lengthAdjust="spacing" textLength="7" x="230.9396" y="194.556">1</text><text fill="#000000" font-family="sans-serif" font-size="13" lengthAdjust="spacing" textLength="7" x="336.162" y="194.5486">1</text></g><!--reverse link DTCManager to DTC--><g id="link_DTCManager_DTC"><path codeLine="45" d="M589.04,180.5 C627.02,180.5 658.57,180.5 700.96,180.5 " fill="none" id="DTCManager-backto-DTC" style="stroke:#181818;stroke-width:1.0;"/><polygon fill="#181818" points="577.04,180.5,583.04,184.5,589.04,180.5,583.04,176.5,577.04,180.5" style="stroke:#181818;stroke-width:1.0;"/><polygon fill="#000000" points="617,171.6758,607.9549,168.7369,607.9549,174.6147,617,171.6758" style="stroke:#000000;stroke-width:1.0;"/><text fill="#000000" font-family="sans-serif" font-size="13" lengthAdjust="spacing" textLength="49" x="621" y="176.9951">contains</text><text fill="#000000" font-family="sans-serif" font-size="13" lengthAdjust="spacing" textLength="7" x="584.87" y="194.5486">1</text><text fill="#000000" font-family="sans-serif" font-size="13" lengthAdjust="spacing" textLength="5" x="687.7318" y="194.3325">*</text></g><!--SRC=[XLDDRnen4Btlhx1oMjA2qkkgYHHj6mafv53Iyyfh3p2AFuWzDA9L_tl7bW67A0qNxFSURsQU1mCh4kH5mFM6XCO0Yj2x9ZwXsyeWhL16ndXB573S4SoLTqly3UAgQJ8ZlZtsuayZ-3CLWvOaEt6FaRwYeviCVnB3W0vf6Df4JmguuOgTO5MvMzJrrVYN-Xf9qYxM246aEua6-6UZz-OD_BZ1kF1Ss0Tqwtwl3BnIRi5f9hZ_Lp0FkC9WGPyJoVd1K-_jrW21Ng9JS2yZzGPaUAU93qIrtqVzliZWc9Xprqgow0SyxzZYV7u_Z7ksRYSCfyC9D_mi2Jv_dbNmTj2aXaYfSbkE7OSUFfVaiscENroB1- -0VJYWvc-r1Wlfv1f2jGrib8gMaYnvkn55SfqzJwpKkh3AQyYrJkn_I9LYJeNR0x86IlTudBng8y3M1nhSpeuGMYlZKnvnKkzPqIJBMd2oEaRmlVzvd9tbNPN98H56bZdFsr-y7d94WxHV76mhrPqFLj9SWoDS8OIwepnuchFCE9lD2iCdnhYXrCh5bmlXfzFyNRrE9sm-HN7JL71INIRrPLQpZFy89D4btJy0]--></g></svg>