<?xml version="1.0" encoding="us-ascii" standalone="no"?><svg xmlns="http://www.w3.org/2000/svg" xmlns:xlink="http://www.w3.org/1999/xlink" contentStyleType="text/css" height="764px" preserveAspectRatio="none" style="width:1308px;height:764px;background:#FFFFFF;" version="1.1" viewBox="0 0 1308 764" width="1308px" zoomAndPan="magnify"><defs/><g><text fill="#000000" font-family="sans-serif" font-size="14" font-weight="bold" lengthAdjust="spacing" textLength="47" x="629" y="34.5332">SID$14</text><ellipse cx="952.3906" cy="58.6094" fill="#222222" rx="10" ry="10" style="stroke:#222222;stroke-width:1.0;"/><rect fill="#ADD8E6" height="633.2314" style="stroke:#000000;stroke-width:1.5;" width="1286" x="11" y="78.6094"/><path d="M67,78.6094 L67,89.2188 L57,99.2188 L11,99.2188 " fill="none" style="stroke:#000000;stroke-width:1.5;"/><text fill="#000000" font-family="sans-serif" font-size="14" lengthAdjust="spacing" textLength="46" x="14" y="94.1426">SID$14</text><rect fill="#F5F5F5" height="404.7031" style="stroke:#000000;stroke-width:1.5;" width="1230" x="23" y="207.1377"/><path d="M96,207.1377 L96,217.7471 L86,227.7471 L23,227.7471 " fill="none" style="stroke:#000000;stroke-width:1.5;"/><text fill="#000000" font-family="sans-serif" font-size="14" lengthAdjust="spacing" textLength="63" x="26" y="222.6709">checkReq</text><polygon fill="#F1F1F1" points="850.3906,244.7471,1054.3906,244.7471,1066.3906,256.7471,1054.3906,268.7471,850.3906,268.7471,838.3906,256.7471,850.3906,244.7471" style="stroke:#181818;stroke-width:0.5;"/><text fill="#000000" font-family="sans-serif" font-size="11" lengthAdjust="spacing" textLength="204" x="850.3906" y="261.248">DiagnosticSession != programmingSession</text><text fill="#000000" font-family="sans-serif" font-size="11" lengthAdjust="spacing" textLength="18" x="820.3906" y="254.3301">yes</text><text fill="#000000" font-family="sans-serif" font-size="11" lengthAdjust="spacing" textLength="12" x="1066.3906" y="254.3301">no</text><polygon fill="#F1F1F1" points="676.7813,278.7471,827.7813,278.7471,839.7813,290.7471,827.7813,302.7471,676.7813,302.7471,664.7813,290.7471,676.7813,278.7471" style="stroke:#181818;stroke-width:0.5;"/><text fill="#000000" font-family="sans-serif" font-size="11" lengthAdjust="spacing" textLength="151" x="676.7813" y="295.248">len(RequestMessage) == 4byte</text><text fill="#000000" font-family="sans-serif" font-size="11" lengthAdjust="spacing" textLength="18" x="646.7813" y="288.3301">yes</text><text fill="#000000" font-family="sans-serif" font-size="11" lengthAdjust="spacing" textLength="12" x="839.7813" y="288.3301">no</text><polygon fill="#F1F1F1" points="504.0625,312.7471,614.0625,312.7471,626.0625,324.7471,614.0625,336.7471,504.0625,336.7471,492.0625,324.7471,504.0625,312.7471" style="stroke:#181818;stroke-width:0.5;"/><text fill="#000000" font-family="sans-serif" font-size="11" lengthAdjust="spacing" textLength="110" x="504.0625" y="329.248">groupOfDtc == FFFFFF</text><text fill="#000000" font-family="sans-serif" font-size="11" lengthAdjust="spacing" textLength="18" x="474.0625" y="322.3301">yes</text><text fill="#000000" font-family="sans-serif" font-size="11" lengthAdjust="spacing" textLength="12" x="626.0625" y="322.3301">no</text><polygon fill="#F1F1F1" points="330.125,346.7471,429.125,346.7471,441.125,358.7471,429.125,370.7471,330.125,370.7471,318.125,358.7471,330.125,346.7471" style="stroke:#181818;stroke-width:0.5;"/><text fill="#000000" font-family="sans-serif" font-size="11" lengthAdjust="spacing" textLength="99" x="330.125" y="363.248">&#36554;&#20001;&#36939;&#36578;&#26465;&#20214;&#12398;&#26908;&#26619;</text><text fill="#000000" font-family="sans-serif" font-size="11" lengthAdjust="spacing" textLength="18" x="300.125" y="356.3301">yes</text><text fill="#000000" font-family="sans-serif" font-size="11" lengthAdjust="spacing" textLength="12" x="441.125" y="356.3301">no</text><polygon fill="#F1F1F1" points="167.25,380.7471,288.25,380.7471,300.25,392.7471,288.25,404.7471,167.25,404.7471,155.25,392.7471,167.25,380.7471" style="stroke:#181818;stroke-width:0.5;"/><text fill="#000000" font-family="sans-serif" font-size="11" lengthAdjust="spacing" textLength="121" x="167.25" y="397.248">&#12513;&#12514;&#12522;&#12456;&#12521;&#12540;&#12364;&#30330;&#29983;&#12375;&#12383;</text><text fill="#000000" font-family="sans-serif" font-size="11" lengthAdjust="spacing" textLength="12" x="143.25" y="390.3301">no</text><text fill="#000000" font-family="sans-serif" font-size="11" lengthAdjust="spacing" textLength="18" x="300.25" y="390.3301">yes</text><rect fill="#F1F1F1" height="35.0938" rx="12.5" ry="12.5" style="stroke:#181818;stroke-width:0.5;" width="170" x="46" y="414.7471"/><text fill="#000000" font-family="sans-serif" font-size="12" lengthAdjust="spacing" textLength="150" x="56" y="437.2041">SID = $54&#12398;&#12509;&#12472;&#12524;&#12473;&#12434;&#36820;&#36865;</text><rect fill="#F1F1F1" height="35.0938" rx="12.5" ry="12.5" style="stroke:#181818;stroke-width:0.5;" width="177" x="236" y="414.7471"/><text fill="#000000" font-family="sans-serif" font-size="12" lengthAdjust="spacing" textLength="157" x="246" y="437.2041">NRC = $72&#12398;&#12493;&#12460;&#12524;&#12473;&#12434;&#36820;&#36865;</text><polygon fill="#F1F1F1" points="227.75,455.8408,239.75,467.8408,227.75,479.8408,215.75,467.8408,227.75,455.8408" style="stroke:#181818;stroke-width:0.5;"/><rect fill="#F1F1F1" height="35.0938" rx="12.5" ry="12.5" style="stroke:#181818;stroke-width:0.5;" width="177" x="443" y="380.7471"/><text fill="#000000" font-family="sans-serif" font-size="12" lengthAdjust="spacing" textLength="157" x="453" y="403.2041">NRC = $22&#12398;&#12493;&#12460;&#12524;&#12473;&#12434;&#36820;&#36865;</text><polygon fill="#F1F1F1" points="379.625,485.8408,391.625,497.8408,379.625,509.8408,367.625,497.8408,379.625,485.8408" style="stroke:#181818;stroke-width:0.5;"/><rect fill="#F1F1F1" height="35.0938" rx="12.5" ry="12.5" style="stroke:#181818;stroke-width:0.5;" width="177" x="650" y="346.7471"/><text fill="#000000" font-family="sans-serif" font-size="12" lengthAdjust="spacing" textLength="157" x="660" y="369.2041">NRC = $31&#12398;&#12493;&#12460;&#12524;&#12473;&#12434;&#36820;&#36865;</text><polygon fill="#F1F1F1" points="559.0625,515.8408,571.0625,527.8408,559.0625,539.8408,547.0625,527.8408,559.0625,515.8408" style="stroke:#181818;stroke-width:0.5;"/><rect fill="#F1F1F1" height="35.0938" rx="12.5" ry="12.5" style="stroke:#181818;stroke-width:0.5;" width="177" x="857" y="312.7471"/><text fill="#000000" font-family="sans-serif" font-size="12" lengthAdjust="spacing" textLength="157" x="867" y="335.2041">NRC = $13&#12398;&#12493;&#12460;&#12524;&#12473;&#12434;&#36820;&#36865;</text><polygon fill="#F1F1F1" points="752.2813,545.8408,764.2813,557.8408,752.2813,569.8408,740.2813,557.8408,752.2813,545.8408" style="stroke:#181818;stroke-width:0.5;"/><rect fill="#F1F1F1" height="35.0938" rx="12.5" ry="12.5" style="stroke:#181818;stroke-width:0.5;" width="177" x="1064" y="278.7471"/><text fill="#000000" font-family="sans-serif" font-size="12" lengthAdjust="spacing" textLength="157" x="1074" y="301.2041">NRC = $7F&#12398;&#12493;&#12460;&#12524;&#12473;&#12434;&#36820;&#36865;</text><polygon fill="#F1F1F1" points="952.3906,575.8408,964.3906,587.8408,952.3906,599.8408,940.3906,587.8408,952.3906,575.8408" style="stroke:#181818;stroke-width:0.5;"/><polygon fill="#F1F1F1" points="844.8906,160.2188,1059.8906,160.2188,1071.8906,172.2188,1059.8906,184.2188,844.8906,184.2188,832.8906,172.2188,844.8906,160.2188" style="stroke:#181818;stroke-width:0.5;"/><text fill="#000000" font-family="sans-serif" font-size="11" lengthAdjust="spacing" textLength="18" x="956.3906" y="195.6377">yes</text><text fill="#000000" font-family="sans-serif" font-size="11" lengthAdjust="spacing" textLength="215" x="844.8906" y="176.7197">Service $14 &#12522;&#12463;&#12456;&#12473;&#12488;&#12539;&#12513;&#12483;&#12475;&#12540;&#12472;&#12434;&#21463;&#20449;</text><text fill="#000000" font-family="sans-serif" font-size="11" lengthAdjust="spacing" textLength="12" x="1071.8906" y="169.8018">no</text><polygon fill="#F1F1F1" points="952.3906,631.8408,964.3906,643.8408,952.3906,655.8408,940.3906,643.8408,952.3906,631.8408" style="stroke:#181818;stroke-width:0.5;"/><polygon fill="#F1F1F1" points="952.3906,116.2188,964.3906,128.2188,952.3906,140.2188,940.3906,128.2188,952.3906,116.2188" style="stroke:#181818;stroke-width:0.5;"/><polygon fill="#F1F1F1" points="952.3906,675.8408,952.3906,675.8408,964.3906,687.8408,952.3906,699.8408,952.3906,699.8408,940.3906,687.8408,952.3906,675.8408" style="stroke:#181818;stroke-width:0.5;"/><ellipse cx="952.3906" cy="742.8408" fill="none" rx="11" ry="11" style="stroke:#222222;stroke-width:1.0;"/><ellipse cx="952.3906" cy="742.8408" fill="#222222" rx="6" ry="6" style="stroke:#222222;stroke-width:1.0;"/><line style="stroke:#181818;stroke-width:1.0;" x1="155.25" x2="131" y1="392.7471" y2="392.7471"/><line style="stroke:#181818;stroke-width:1.0;" x1="131" x2="131" y1="392.7471" y2="414.7471"/><polygon fill="#181818" points="127,404.7471,131,414.7471,135,404.7471,131,408.7471" style="stroke:#181818;stroke-width:1.0;"/><line style="stroke:#181818;stroke-width:1.0;" x1="300.25" x2="324.5" y1="392.7471" y2="392.7471"/><line style="stroke:#181818;stroke-width:1.0;" x1="324.5" x2="324.5" y1="392.7471" y2="414.7471"/><polygon fill="#181818" points="320.5,404.7471,324.5,414.7471,328.5,404.7471,324.5,408.7471" style="stroke:#181818;stroke-width:1.0;"/><line style="stroke:#181818;stroke-width:1.0;" x1="131" x2="131" y1="449.8408" y2="467.8408"/><line style="stroke:#181818;stroke-width:1.0;" x1="131" x2="215.75" y1="467.8408" y2="467.8408"/><polygon fill="#181818" points="205.75,463.8408,215.75,467.8408,205.75,471.8408,209.75,467.8408" style="stroke:#181818;stroke-width:1.0;"/><line style="stroke:#181818;stroke-width:1.0;" x1="324.5" x2="324.5" y1="449.8408" y2="467.8408"/><line style="stroke:#181818;stroke-width:1.0;" x1="324.5" x2="239.75" y1="467.8408" y2="467.8408"/><polygon fill="#181818" points="249.75,463.8408,239.75,467.8408,249.75,471.8408,245.75,467.8408" style="stroke:#181818;stroke-width:1.0;"/><line style="stroke:#181818;stroke-width:1.0;" x1="318.125" x2="227.75" y1="358.7471" y2="358.7471"/><line style="stroke:#181818;stroke-width:1.0;" x1="227.75" x2="227.75" y1="358.7471" y2="380.7471"/><polygon fill="#181818" points="223.75,370.7471,227.75,380.7471,231.75,370.7471,227.75,374.7471" style="stroke:#181818;stroke-width:1.0;"/><line style="stroke:#181818;stroke-width:1.0;" x1="441.125" x2="531.5" y1="358.7471" y2="358.7471"/><line style="stroke:#181818;stroke-width:1.0;" x1="531.5" x2="531.5" y1="358.7471" y2="380.7471"/><polygon fill="#181818" points="527.5,370.7471,531.5,380.7471,535.5,370.7471,531.5,374.7471" style="stroke:#181818;stroke-width:1.0;"/><line style="stroke:#181818;stroke-width:1.0;" x1="227.75" x2="227.75" y1="479.8408" y2="497.8408"/><line style="stroke:#181818;stroke-width:1.0;" x1="227.75" x2="367.625" y1="497.8408" y2="497.8408"/><polygon fill="#181818" points="357.625,493.8408,367.625,497.8408,357.625,501.8408,361.625,497.8408" style="stroke:#181818;stroke-width:1.0;"/><line style="stroke:#181818;stroke-width:1.0;" x1="531.5" x2="531.5" y1="415.8408" y2="497.8408"/><line style="stroke:#181818;stroke-width:1.0;" x1="531.5" x2="391.625" y1="497.8408" y2="497.8408"/><polygon fill="#181818" points="401.625,493.8408,391.625,497.8408,401.625,501.8408,397.625,497.8408" style="stroke:#181818;stroke-width:1.0;"/><line style="stroke:#181818;stroke-width:1.0;" x1="492.0625" x2="379.625" y1="324.7471" y2="324.7471"/><line style="stroke:#181818;stroke-width:1.0;" x1="379.625" x2="379.625" y1="324.7471" y2="346.7471"/><polygon fill="#181818" points="375.625,336.7471,379.625,346.7471,383.625,336.7471,379.625,340.7471" style="stroke:#181818;stroke-width:1.0;"/><line style="stroke:#181818;stroke-width:1.0;" x1="626.0625" x2="738.5" y1="324.7471" y2="324.7471"/><line style="stroke:#181818;stroke-width:1.0;" x1="738.5" x2="738.5" y1="324.7471" y2="346.7471"/><polygon fill="#181818" points="734.5,336.7471,738.5,346.7471,742.5,336.7471,738.5,340.7471" style="stroke:#181818;stroke-width:1.0;"/><line style="stroke:#181818;stroke-width:1.0;" x1="379.625" x2="379.625" y1="509.8408" y2="527.8408"/><line style="stroke:#181818;stroke-width:1.0;" x1="379.625" x2="547.0625" y1="527.8408" y2="527.8408"/><polygon fill="#181818" points="537.0625,523.8408,547.0625,527.8408,537.0625,531.8408,541.0625,527.8408" style="stroke:#181818;stroke-width:1.0;"/><line style="stroke:#181818;stroke-width:1.0;" x1="738.5" x2="738.5" y1="381.8408" y2="527.8408"/><line style="stroke:#181818;stroke-width:1.0;" x1="738.5" x2="571.0625" y1="527.8408" y2="527.8408"/><polygon fill="#181818" points="581.0625,523.8408,571.0625,527.8408,581.0625,531.8408,577.0625,527.8408" style="stroke:#181818;stroke-width:1.0;"/><line style="stroke:#181818;stroke-width:1.0;" x1="664.7813" x2="559.0625" y1="290.7471" y2="290.7471"/><line style="stroke:#181818;stroke-width:1.0;" x1="559.0625" x2="559.0625" y1="290.7471" y2="312.7471"/><polygon fill="#181818" points="555.0625,302.7471,559.0625,312.7471,563.0625,302.7471,559.0625,306.7471" style="stroke:#181818;stroke-width:1.0;"/><line style="stroke:#181818;stroke-width:1.0;" x1="839.7813" x2="945.5" y1="290.7471" y2="290.7471"/><line style="stroke:#181818;stroke-width:1.0;" x1="945.5" x2="945.5" y1="290.7471" y2="312.7471"/><polygon fill="#181818" points="941.5,302.7471,945.5,312.7471,949.5,302.7471,945.5,306.7471" style="stroke:#181818;stroke-width:1.0;"/><line style="stroke:#181818;stroke-width:1.0;" x1="559.0625" x2="559.0625" y1="539.8408" y2="557.8408"/><line style="stroke:#181818;stroke-width:1.0;" x1="559.0625" x2="740.2813" y1="557.8408" y2="557.8408"/><polygon fill="#181818" points="730.2813,553.8408,740.2813,557.8408,730.2813,561.8408,734.2813,557.8408" style="stroke:#181818;stroke-width:1.0;"/><line style="stroke:#181818;stroke-width:1.0;" x1="945.5" x2="945.5" y1="347.8408" y2="557.8408"/><line style="stroke:#181818;stroke-width:1.0;" x1="945.5" x2="764.2813" y1="557.8408" y2="557.8408"/><polygon fill="#181818" points="774.2813,553.8408,764.2813,557.8408,774.2813,561.8408,770.2813,557.8408" style="stroke:#181818;stroke-width:1.0;"/><line style="stroke:#181818;stroke-width:1.0;" x1="838.3906" x2="752.2813" y1="256.7471" y2="256.7471"/><line style="stroke:#181818;stroke-width:1.0;" x1="752.2813" x2="752.2813" y1="256.7471" y2="278.7471"/><polygon fill="#181818" points="748.2813,268.7471,752.2813,278.7471,756.2813,268.7471,752.2813,272.7471" style="stroke:#181818;stroke-width:1.0;"/><line style="stroke:#181818;stroke-width:1.0;" x1="1066.3906" x2="1152.5" y1="256.7471" y2="256.7471"/><line style="stroke:#181818;stroke-width:1.0;" x1="1152.5" x2="1152.5" y1="256.7471" y2="278.7471"/><polygon fill="#181818" points="1148.5,268.7471,1152.5,278.7471,1156.5,268.7471,1152.5,272.7471" style="stroke:#181818;stroke-width:1.0;"/><line style="stroke:#181818;stroke-width:1.0;" x1="752.2813" x2="752.2813" y1="569.8408" y2="587.8408"/><line style="stroke:#181818;stroke-width:1.0;" x1="752.2813" x2="940.3906" y1="587.8408" y2="587.8408"/><polygon fill="#181818" points="930.3906,583.8408,940.3906,587.8408,930.3906,591.8408,934.3906,587.8408" style="stroke:#181818;stroke-width:1.0;"/><line style="stroke:#181818;stroke-width:1.0;" x1="1152.5" x2="1152.5" y1="313.8408" y2="587.8408"/><line style="stroke:#181818;stroke-width:1.0;" x1="1152.5" x2="964.3906" y1="587.8408" y2="587.8408"/><polygon fill="#181818" points="974.3906,583.8408,964.3906,587.8408,974.3906,591.8408,970.3906,587.8408" style="stroke:#181818;stroke-width:1.0;"/><line style="stroke:#181818;stroke-width:1.0;" x1="952.3906" x2="952.3906" y1="184.2188" y2="244.7471"/><polygon fill="#181818" points="948.3906,234.7471,952.3906,244.7471,956.3906,234.7471,952.3906,238.7471" style="stroke:#181818;stroke-width:1.0;"/><line style="stroke:#181818;stroke-width:1.0;" x1="1071.8906" x2="1263" y1="172.2188" y2="172.2188"/><polygon fill="#181818" points="1259,403.4893,1263,413.4893,1267,403.4893,1263,407.4893" style="stroke:#181818;stroke-width:1.0;"/><line style="stroke:#181818;stroke-width:1.0;" x1="1263" x2="1263" y1="172.2188" y2="643.8408"/><line style="stroke:#181818;stroke-width:1.0;" x1="1263" x2="964.3906" y1="643.8408" y2="643.8408"/><polygon fill="#181818" points="974.3906,639.8408,964.3906,643.8408,974.3906,647.8408,970.3906,643.8408" style="stroke:#181818;stroke-width:1.0;"/><line style="stroke:#181818;stroke-width:1.0;" x1="952.3906" x2="952.3906" y1="599.8408" y2="631.8408"/><polygon fill="#181818" points="948.3906,621.8408,952.3906,631.8408,956.3906,621.8408,952.3906,625.8408" style="stroke:#181818;stroke-width:1.0;"/><line style="stroke:#181818;stroke-width:1.0;" x1="952.3906" x2="952.3906" y1="140.2188" y2="160.2188"/><polygon fill="#181818" points="948.3906,150.2188,952.3906,160.2188,956.3906,150.2188,952.3906,154.2188" style="stroke:#181818;stroke-width:1.0;"/><line style="stroke:#181818;stroke-width:1.0;" x1="964.3906" x2="1281" y1="687.8408" y2="687.8408"/><polygon fill="#181818" points="1277,423.4893,1281,413.4893,1285,423.4893,1281,419.4893" style="stroke:#181818;stroke-width:1.0;"/><line style="stroke:#181818;stroke-width:1.0;" x1="1281" x2="1281" y1="128.2188" y2="687.8408"/><line style="stroke:#181818;stroke-width:1.0;" x1="1281" x2="964.3906" y1="128.2188" y2="128.2188"/><polygon fill="#181818" points="974.3906,124.2188,964.3906,128.2188,974.3906,132.2188,970.3906,128.2188" style="stroke:#181818;stroke-width:1.0;"/><line style="stroke:#181818;stroke-width:1.0;" x1="952.3906" x2="952.3906" y1="655.8408" y2="675.8408"/><polygon fill="#181818" points="948.3906,665.8408,952.3906,675.8408,956.3906,665.8408,952.3906,669.8408" style="stroke:#181818;stroke-width:1.0;"/><line style="stroke:#181818;stroke-width:1.0;" x1="952.3906" x2="952.3906" y1="68.6094" y2="116.2188"/><polygon fill="#181818" points="948.3906,106.2188,952.3906,116.2188,956.3906,106.2188,952.3906,110.2188" style="stroke:#181818;stroke-width:1.0;"/><line style="stroke:#181818;stroke-width:1.0;" x1="952.3906" x2="952.3906" y1="699.8408" y2="731.8408"/><polygon fill="#181818" points="948.3906,721.8408,952.3906,731.8408,956.3906,721.8408,952.3906,725.8408" style="stroke:#181818;stroke-width:1.0;"/><!--SRC=[bPHFI-D05C3l-HIps4DwhEqYkFIo5a5G5-p1SpQ-9eDf4fEf8YAOp6LPTraGGGIbLFQW8kvjKIFqmxnQwxTm9d-wxMfhVQSXyzxlzp8l6KQP1QIwKCaLIehFD8yfH8Gh5fHHnqwtoDGYDKpssMh0JfpWWGjQaajhHAs2jqbr838L-IM6Vp0yn_0M-JVa4V8MSewXMDnZU8FXmSEleqwxbIVC19kes-3dbPWrQDPDqDTNO8DChPgKGRNkh0jvcfPeArGpRCTdLA-2xykY3sNYUexXQVKwjOtqwQ27z04Pn09R5Pe6-6n9v6i6v4cvJ4fVjnaCTKZ-2rfJ3Szfk5zg5QRBalaunjQaTRteU-UczHJizwApxcch4_t5uBhx-wJRZDuiJn7nePx5XtsE_48URV3ZyVZkyR29mH46pGnaEwCvCcR5Y4cPv3wMH0_8J-M4-9KSNdZGQny-xGMVHjQ3vSFuJcF3yigSDCnCnuQV65vDRh3NQ4qPwHxtSfbs-ftQrvLZTPcgM9XSzL8pKf7X2yN9yCDeYNtv6VI7ClysSv2tc_o2_w3AS4PoCv0jargW9ifTSRCuxZC0]--></g></svg>