<?xml version="1.0" encoding="us-ascii" standalone="no"?><svg xmlns="http://www.w3.org/2000/svg" xmlns:xlink="http://www.w3.org/1999/xlink" contentStyleType="text/css" height="764px" preserveAspectRatio="none" style="width:1290px;height:764px;background:#FFFFFF;" version="1.1" viewBox="0 0 1290 764" width="1290px" zoomAndPan="magnify"><defs/><g><text fill="#000000" font-family="sans-serif" font-size="14" font-weight="bold" lengthAdjust="spacing" textLength="47" x="620.3906" y="34.5332">SID$11</text><ellipse cx="935.1719" cy="58.6094" fill="#222222" rx="10" ry="10" style="stroke:#222222;stroke-width:1.0;"/><rect fill="#ADD8E6" height="633.2314" style="stroke:#000000;stroke-width:1.5;" width="1268.7813" x="11" y="78.6094"/><path d="M67,78.6094 L67,89.2188 L57,99.2188 L11,99.2188 " fill="none" style="stroke:#000000;stroke-width:1.5;"/><text fill="#000000" font-family="sans-serif" font-size="14" lengthAdjust="spacing" textLength="46" x="14" y="94.1426">SID$11</text><rect fill="#F5F5F5" height="404.7031" style="stroke:#000000;stroke-width:1.5;" width="1212.7813" x="23" y="207.1377"/><path d="M96,207.1377 L96,217.7471 L86,227.7471 L23,227.7471 " fill="none" style="stroke:#000000;stroke-width:1.5;"/><text fill="#000000" font-family="sans-serif" font-size="14" lengthAdjust="spacing" textLength="63" x="26" y="222.6709">checkReq</text><polygon fill="#F1F1F1" points="847.6719,244.7471,1022.6719,244.7471,1034.6719,256.7471,1022.6719,268.7471,847.6719,268.7471,835.6719,256.7471,847.6719,244.7471" style="stroke:#181818;stroke-width:0.5;"/><text fill="#000000" font-family="sans-serif" font-size="11" lengthAdjust="spacing" textLength="175" x="847.6719" y="261.248">DiagnosticSession != defaultSession</text><text fill="#000000" font-family="sans-serif" font-size="11" lengthAdjust="spacing" textLength="18" x="817.6719" y="254.3301">yes</text><text fill="#000000" font-family="sans-serif" font-size="11" lengthAdjust="spacing" textLength="12" x="1034.6719" y="254.3301">no</text><polygon fill="#F1F1F1" points="662.5625,278.7471,807.5625,278.7471,819.5625,290.7471,807.5625,302.7471,662.5625,302.7471,650.5625,290.7471,662.5625,278.7471" style="stroke:#181818;stroke-width:0.5;"/><text fill="#000000" font-family="sans-serif" font-size="11" lengthAdjust="spacing" textLength="145" x="662.5625" y="295.248">len(RequestMessage) &lt; 2byte</text><text fill="#000000" font-family="sans-serif" font-size="11" lengthAdjust="spacing" textLength="18" x="632.5625" y="288.3301">yes</text><text fill="#000000" font-family="sans-serif" font-size="11" lengthAdjust="spacing" textLength="12" x="819.5625" y="288.3301">no</text><polygon fill="#F1F1F1" points="519.5625,312.7471,598.5625,312.7471,610.5625,324.7471,598.5625,336.7471,519.5625,336.7471,507.5625,324.7471,519.5625,312.7471" style="stroke:#181818;stroke-width:0.5;"/><text fill="#000000" font-family="sans-serif" font-size="11" lengthAdjust="spacing" textLength="79" x="519.5625" y="329.248">resetType == 01</text><text fill="#000000" font-family="sans-serif" font-size="11" lengthAdjust="spacing" textLength="18" x="489.5625" y="322.3301">yes</text><text fill="#000000" font-family="sans-serif" font-size="11" lengthAdjust="spacing" textLength="12" x="610.5625" y="322.3301">no</text><polygon fill="#F1F1F1" points="304.125,346.7471,455.125,346.7471,467.125,358.7471,455.125,370.7471,304.125,370.7471,292.125,358.7471,304.125,346.7471" style="stroke:#181818;stroke-width:0.5;"/><text fill="#000000" font-family="sans-serif" font-size="11" lengthAdjust="spacing" textLength="151" x="304.125" y="363.248">len(RequestMessage) == 2byte</text><text fill="#000000" font-family="sans-serif" font-size="11" lengthAdjust="spacing" textLength="18" x="274.125" y="356.3301">yes</text><text fill="#000000" font-family="sans-serif" font-size="11" lengthAdjust="spacing" textLength="12" x="467.125" y="356.3301">no</text><polygon fill="#F1F1F1" points="178.25,380.7471,277.25,380.7471,289.25,392.7471,277.25,404.7471,178.25,404.7471,166.25,392.7471,178.25,380.7471" style="stroke:#181818;stroke-width:0.5;"/><text fill="#000000" font-family="sans-serif" font-size="11" lengthAdjust="spacing" textLength="99" x="178.25" y="397.248">&#36554;&#20001;&#36939;&#36578;&#26465;&#20214;&#12398;&#26908;&#26619;</text><text fill="#000000" font-family="sans-serif" font-size="11" lengthAdjust="spacing" textLength="12" x="154.25" y="390.3301">no</text><text fill="#000000" font-family="sans-serif" font-size="11" lengthAdjust="spacing" textLength="18" x="289.25" y="390.3301">yes</text><rect fill="#F1F1F1" height="35.0938" rx="12.5" ry="12.5" style="stroke:#181818;stroke-width:0.5;" width="170" x="46" y="414.7471"/><text fill="#000000" font-family="sans-serif" font-size="12" lengthAdjust="spacing" textLength="150" x="56" y="437.2041">SID = $51&#12398;&#12509;&#12472;&#12524;&#12473;&#12434;&#36820;&#36865;</text><rect fill="#F1F1F1" height="35.0938" rx="12.5" ry="12.5" style="stroke:#181818;stroke-width:0.5;" width="177" x="236" y="414.7471"/><text fill="#000000" font-family="sans-serif" font-size="12" lengthAdjust="spacing" textLength="157" x="246" y="437.2041">NRC = $22&#12398;&#12493;&#12460;&#12524;&#12473;&#12434;&#36820;&#36865;</text><polygon fill="#F1F1F1" points="227.75,455.8408,239.75,467.8408,227.75,479.8408,215.75,467.8408,227.75,455.8408" style="stroke:#181818;stroke-width:0.5;"/><rect fill="#F1F1F1" height="35.0938" rx="12.5" ry="12.5" style="stroke:#181818;stroke-width:0.5;" width="177" x="443" y="380.7471"/><text fill="#000000" font-family="sans-serif" font-size="12" lengthAdjust="spacing" textLength="157" x="453" y="403.2041">NRC = $13&#12398;&#12493;&#12460;&#12524;&#12473;&#12434;&#36820;&#36865;</text><polygon fill="#F1F1F1" points="379.625,485.8408,391.625,497.8408,379.625,509.8408,367.625,497.8408,379.625,485.8408" style="stroke:#181818;stroke-width:0.5;"/><rect fill="#F1F1F1" height="35.0938" rx="12.5" ry="12.5" style="stroke:#181818;stroke-width:0.5;" width="177" x="632.7813" y="346.7471"/><text fill="#000000" font-family="sans-serif" font-size="12" lengthAdjust="spacing" textLength="157" x="642.7813" y="369.2041">NRC = $12&#12398;&#12493;&#12460;&#12524;&#12473;&#12434;&#36820;&#36865;</text><polygon fill="#F1F1F1" points="559.0625,515.8408,571.0625,527.8408,559.0625,539.8408,547.0625,527.8408,559.0625,515.8408" style="stroke:#181818;stroke-width:0.5;"/><rect fill="#F1F1F1" height="35.0938" rx="12.5" ry="12.5" style="stroke:#181818;stroke-width:0.5;" width="177" x="839.7813" y="312.7471"/><text fill="#000000" font-family="sans-serif" font-size="12" lengthAdjust="spacing" textLength="157" x="849.7813" y="335.2041">NRC = $13&#12398;&#12493;&#12460;&#12524;&#12473;&#12434;&#36820;&#36865;</text><polygon fill="#F1F1F1" points="735.0625,545.8408,747.0625,557.8408,735.0625,569.8408,723.0625,557.8408,735.0625,545.8408" style="stroke:#181818;stroke-width:0.5;"/><rect fill="#F1F1F1" height="35.0938" rx="12.5" ry="12.5" style="stroke:#181818;stroke-width:0.5;" width="177" x="1046.7813" y="278.7471"/><text fill="#000000" font-family="sans-serif" font-size="12" lengthAdjust="spacing" textLength="157" x="1056.7813" y="301.2041">NRC = $7F&#12398;&#12493;&#12460;&#12524;&#12473;&#12434;&#36820;&#36865;</text><polygon fill="#F1F1F1" points="935.1719,575.8408,947.1719,587.8408,935.1719,599.8408,923.1719,587.8408,935.1719,575.8408" style="stroke:#181818;stroke-width:0.5;"/><polygon fill="#F1F1F1" points="827.6719,160.2188,1042.6719,160.2188,1054.6719,172.2188,1042.6719,184.2188,827.6719,184.2188,815.6719,172.2188,827.6719,160.2188" style="stroke:#181818;stroke-width:0.5;"/><text fill="#000000" font-family="sans-serif" font-size="11" lengthAdjust="spacing" textLength="18" x="939.1719" y="195.6377">yes</text><text fill="#000000" font-family="sans-serif" font-size="11" lengthAdjust="spacing" textLength="215" x="827.6719" y="176.7197">Service $11 &#12522;&#12463;&#12456;&#12473;&#12488;&#12539;&#12513;&#12483;&#12475;&#12540;&#12472;&#12434;&#21463;&#20449;</text><text fill="#000000" font-family="sans-serif" font-size="11" lengthAdjust="spacing" textLength="12" x="1054.6719" y="169.8018">no</text><polygon fill="#F1F1F1" points="935.1719,631.8408,947.1719,643.8408,935.1719,655.8408,923.1719,643.8408,935.1719,631.8408" style="stroke:#181818;stroke-width:0.5;"/><polygon fill="#F1F1F1" points="935.1719,116.2188,947.1719,128.2188,935.1719,140.2188,923.1719,128.2188,935.1719,116.2188" style="stroke:#181818;stroke-width:0.5;"/><polygon fill="#F1F1F1" points="922.1719,675.8408,948.1719,675.8408,960.1719,687.8408,948.1719,699.8408,922.1719,699.8408,910.1719,687.8408,922.1719,675.8408" style="stroke:#181818;stroke-width:0.5;"/><text fill="#000000" font-family="sans-serif" font-size="11" lengthAdjust="spacing" textLength="26" x="922.1719" y="692.3418">TRUE</text><ellipse cx="935.1719" cy="742.8408" fill="none" rx="11" ry="11" style="stroke:#222222;stroke-width:1.0;"/><ellipse cx="935.1719" cy="742.8408" fill="#222222" rx="6" ry="6" style="stroke:#222222;stroke-width:1.0;"/><line style="stroke:#181818;stroke-width:1.0;" x1="166.25" x2="131" y1="392.7471" y2="392.7471"/><line style="stroke:#181818;stroke-width:1.0;" x1="131" x2="131" y1="392.7471" y2="414.7471"/><polygon fill="#181818" points="127,404.7471,131,414.7471,135,404.7471,131,408.7471" style="stroke:#181818;stroke-width:1.0;"/><line style="stroke:#181818;stroke-width:1.0;" x1="289.25" x2="324.5" y1="392.7471" y2="392.7471"/><line style="stroke:#181818;stroke-width:1.0;" x1="324.5" x2="324.5" y1="392.7471" y2="414.7471"/><polygon fill="#181818" points="320.5,404.7471,324.5,414.7471,328.5,404.7471,324.5,408.7471" style="stroke:#181818;stroke-width:1.0;"/><line style="stroke:#181818;stroke-width:1.0;" x1="131" x2="131" y1="449.8408" y2="467.8408"/><line style="stroke:#181818;stroke-width:1.0;" x1="131" x2="215.75" y1="467.8408" y2="467.8408"/><polygon fill="#181818" points="205.75,463.8408,215.75,467.8408,205.75,471.8408,209.75,467.8408" style="stroke:#181818;stroke-width:1.0;"/><line style="stroke:#181818;stroke-width:1.0;" x1="324.5" x2="324.5" y1="449.8408" y2="467.8408"/><line style="stroke:#181818;stroke-width:1.0;" x1="324.5" x2="239.75" y1="467.8408" y2="467.8408"/><polygon fill="#181818" points="249.75,463.8408,239.75,467.8408,249.75,471.8408,245.75,467.8408" style="stroke:#181818;stroke-width:1.0;"/><line style="stroke:#181818;stroke-width:1.0;" x1="292.125" x2="227.75" y1="358.7471" y2="358.7471"/><line style="stroke:#181818;stroke-width:1.0;" x1="227.75" x2="227.75" y1="358.7471" y2="380.7471"/><polygon fill="#181818" points="223.75,370.7471,227.75,380.7471,231.75,370.7471,227.75,374.7471" style="stroke:#181818;stroke-width:1.0;"/><line style="stroke:#181818;stroke-width:1.0;" x1="467.125" x2="531.5" y1="358.7471" y2="358.7471"/><line style="stroke:#181818;stroke-width:1.0;" x1="531.5" x2="531.5" y1="358.7471" y2="380.7471"/><polygon fill="#181818" points="527.5,370.7471,531.5,380.7471,535.5,370.7471,531.5,374.7471" style="stroke:#181818;stroke-width:1.0;"/><line style="stroke:#181818;stroke-width:1.0;" x1="227.75" x2="227.75" y1="479.8408" y2="497.8408"/><line style="stroke:#181818;stroke-width:1.0;" x1="227.75" x2="367.625" y1="497.8408" y2="497.8408"/><polygon fill="#181818" points="357.625,493.8408,367.625,497.8408,357.625,501.8408,361.625,497.8408" style="stroke:#181818;stroke-width:1.0;"/><line style="stroke:#181818;stroke-width:1.0;" x1="531.5" x2="531.5" y1="415.8408" y2="497.8408"/><line style="stroke:#181818;stroke-width:1.0;" x1="531.5" x2="391.625" y1="497.8408" y2="497.8408"/><polygon fill="#181818" points="401.625,493.8408,391.625,497.8408,401.625,501.8408,397.625,497.8408" style="stroke:#181818;stroke-width:1.0;"/><line style="stroke:#181818;stroke-width:1.0;" x1="507.5625" x2="379.625" y1="324.7471" y2="324.7471"/><line style="stroke:#181818;stroke-width:1.0;" x1="379.625" x2="379.625" y1="324.7471" y2="346.7471"/><polygon fill="#181818" points="375.625,336.7471,379.625,346.7471,383.625,336.7471,379.625,340.7471" style="stroke:#181818;stroke-width:1.0;"/><line style="stroke:#181818;stroke-width:1.0;" x1="610.5625" x2="721.2813" y1="324.7471" y2="324.7471"/><line style="stroke:#181818;stroke-width:1.0;" x1="721.2813" x2="721.2813" y1="324.7471" y2="346.7471"/><polygon fill="#181818" points="717.2813,336.7471,721.2813,346.7471,725.2813,336.7471,721.2813,340.7471" style="stroke:#181818;stroke-width:1.0;"/><line style="stroke:#181818;stroke-width:1.0;" x1="379.625" x2="379.625" y1="509.8408" y2="527.8408"/><line style="stroke:#181818;stroke-width:1.0;" x1="379.625" x2="547.0625" y1="527.8408" y2="527.8408"/><polygon fill="#181818" points="537.0625,523.8408,547.0625,527.8408,537.0625,531.8408,541.0625,527.8408" style="stroke:#181818;stroke-width:1.0;"/><line style="stroke:#181818;stroke-width:1.0;" x1="721.2813" x2="721.2813" y1="381.8408" y2="527.8408"/><line style="stroke:#181818;stroke-width:1.0;" x1="721.2813" x2="571.0625" y1="527.8408" y2="527.8408"/><polygon fill="#181818" points="581.0625,523.8408,571.0625,527.8408,581.0625,531.8408,577.0625,527.8408" style="stroke:#181818;stroke-width:1.0;"/><line style="stroke:#181818;stroke-width:1.0;" x1="650.5625" x2="559.0625" y1="290.7471" y2="290.7471"/><line style="stroke:#181818;stroke-width:1.0;" x1="559.0625" x2="559.0625" y1="290.7471" y2="312.7471"/><polygon fill="#181818" points="555.0625,302.7471,559.0625,312.7471,563.0625,302.7471,559.0625,306.7471" style="stroke:#181818;stroke-width:1.0;"/><line style="stroke:#181818;stroke-width:1.0;" x1="819.5625" x2="928.2813" y1="290.7471" y2="290.7471"/><line style="stroke:#181818;stroke-width:1.0;" x1="928.2813" x2="928.2813" y1="290.7471" y2="312.7471"/><polygon fill="#181818" points="924.2813,302.7471,928.2813,312.7471,932.2813,302.7471,928.2813,306.7471" style="stroke:#181818;stroke-width:1.0;"/><line style="stroke:#181818;stroke-width:1.0;" x1="559.0625" x2="559.0625" y1="539.8408" y2="557.8408"/><line style="stroke:#181818;stroke-width:1.0;" x1="559.0625" x2="723.0625" y1="557.8408" y2="557.8408"/><polygon fill="#181818" points="713.0625,553.8408,723.0625,557.8408,713.0625,561.8408,717.0625,557.8408" style="stroke:#181818;stroke-width:1.0;"/><line style="stroke:#181818;stroke-width:1.0;" x1="928.2813" x2="928.2813" y1="347.8408" y2="557.8408"/><line style="stroke:#181818;stroke-width:1.0;" x1="928.2813" x2="747.0625" y1="557.8408" y2="557.8408"/><polygon fill="#181818" points="757.0625,553.8408,747.0625,557.8408,757.0625,561.8408,753.0625,557.8408" style="stroke:#181818;stroke-width:1.0;"/><line style="stroke:#181818;stroke-width:1.0;" x1="835.6719" x2="735.0625" y1="256.7471" y2="256.7471"/><line style="stroke:#181818;stroke-width:1.0;" x1="735.0625" x2="735.0625" y1="256.7471" y2="278.7471"/><polygon fill="#181818" points="731.0625,268.7471,735.0625,278.7471,739.0625,268.7471,735.0625,272.7471" style="stroke:#181818;stroke-width:1.0;"/><line style="stroke:#181818;stroke-width:1.0;" x1="1034.6719" x2="1135.2813" y1="256.7471" y2="256.7471"/><line style="stroke:#181818;stroke-width:1.0;" x1="1135.2813" x2="1135.2813" y1="256.7471" y2="278.7471"/><polygon fill="#181818" points="1131.2813,268.7471,1135.2813,278.7471,1139.2813,268.7471,1135.2813,272.7471" style="stroke:#181818;stroke-width:1.0;"/><line style="stroke:#181818;stroke-width:1.0;" x1="735.0625" x2="735.0625" y1="569.8408" y2="587.8408"/><line style="stroke:#181818;stroke-width:1.0;" x1="735.0625" x2="923.1719" y1="587.8408" y2="587.8408"/><polygon fill="#181818" points="913.1719,583.8408,923.1719,587.8408,913.1719,591.8408,917.1719,587.8408" style="stroke:#181818;stroke-width:1.0;"/><line style="stroke:#181818;stroke-width:1.0;" x1="1135.2813" x2="1135.2813" y1="313.8408" y2="587.8408"/><line style="stroke:#181818;stroke-width:1.0;" x1="1135.2813" x2="947.1719" y1="587.8408" y2="587.8408"/><polygon fill="#181818" points="957.1719,583.8408,947.1719,587.8408,957.1719,591.8408,953.1719,587.8408" style="stroke:#181818;stroke-width:1.0;"/><line style="stroke:#181818;stroke-width:1.0;" x1="935.1719" x2="935.1719" y1="184.2188" y2="244.7471"/><polygon fill="#181818" points="931.1719,234.7471,935.1719,244.7471,939.1719,234.7471,935.1719,238.7471" style="stroke:#181818;stroke-width:1.0;"/><line style="stroke:#181818;stroke-width:1.0;" x1="1054.6719" x2="1245.7813" y1="172.2188" y2="172.2188"/><polygon fill="#181818" points="1241.7813,403.4893,1245.7813,413.4893,1249.7813,403.4893,1245.7813,407.4893" style="stroke:#181818;stroke-width:1.0;"/><line style="stroke:#181818;stroke-width:1.0;" x1="1245.7813" x2="1245.7813" y1="172.2188" y2="643.8408"/><line style="stroke:#181818;stroke-width:1.0;" x1="1245.7813" x2="947.1719" y1="643.8408" y2="643.8408"/><polygon fill="#181818" points="957.1719,639.8408,947.1719,643.8408,957.1719,647.8408,953.1719,643.8408" style="stroke:#181818;stroke-width:1.0;"/><line style="stroke:#181818;stroke-width:1.0;" x1="935.1719" x2="935.1719" y1="599.8408" y2="631.8408"/><polygon fill="#181818" points="931.1719,621.8408,935.1719,631.8408,939.1719,621.8408,935.1719,625.8408" style="stroke:#181818;stroke-width:1.0;"/><line style="stroke:#181818;stroke-width:1.0;" x1="935.1719" x2="935.1719" y1="140.2188" y2="160.2188"/><polygon fill="#181818" points="931.1719,150.2188,935.1719,160.2188,939.1719,150.2188,935.1719,154.2188" style="stroke:#181818;stroke-width:1.0;"/><line style="stroke:#181818;stroke-width:1.0;" x1="960.1719" x2="1263.7813" y1="687.8408" y2="687.8408"/><polygon fill="#181818" points="1259.7813,423.4893,1263.7813,413.4893,1267.7813,423.4893,1263.7813,419.4893" style="stroke:#181818;stroke-width:1.0;"/><line style="stroke:#181818;stroke-width:1.0;" x1="1263.7813" x2="1263.7813" y1="128.2188" y2="687.8408"/><line style="stroke:#181818;stroke-width:1.0;" x1="1263.7813" x2="947.1719" y1="128.2188" y2="128.2188"/><polygon fill="#181818" points="957.1719,124.2188,947.1719,128.2188,957.1719,132.2188,953.1719,128.2188" style="stroke:#181818;stroke-width:1.0;"/><line style="stroke:#181818;stroke-width:1.0;" x1="935.1719" x2="935.1719" y1="655.8408" y2="675.8408"/><polygon fill="#181818" points="931.1719,665.8408,935.1719,675.8408,939.1719,665.8408,935.1719,669.8408" style="stroke:#181818;stroke-width:1.0;"/><line style="stroke:#181818;stroke-width:1.0;" x1="935.1719" x2="935.1719" y1="68.6094" y2="116.2188"/><polygon fill="#181818" points="931.1719,106.2188,935.1719,116.2188,939.1719,106.2188,935.1719,110.2188" style="stroke:#181818;stroke-width:1.0;"/><line style="stroke:#181818;stroke-width:1.0;" x1="935.1719" x2="935.1719" y1="699.8408" y2="731.8408"/><polygon fill="#181818" points="931.1719,721.8408,935.1719,731.8408,939.1719,721.8408,935.1719,725.8408" style="stroke:#181818;stroke-width:1.0;"/><!--SRC=[bPHFIm916CRl-odUqCDwQuq8AYzbGL0TrEYywRlkuBPhxbX82BbxYI822ReaONI8aBg5iO4VPapqMpJhhgRvBz_JCFiypszUtfsXX6e8yPreK984ayevAW2lB5yGIWpT_mI1NP9MwOQMn_Ek88TPb3qjKK2CO-wK915SARDVcVNEh1TcVJBxajaEiwlCjfd55r_CgZEh_7rxtsnKGq1Lr44ie1aIkbc3vAIAoKmCJo1mg1AAyMCZm-6-pCD6YPpM3PEIP1nDqpKjH225YfpNgBypo82-kHUWeIvoH1vDkiVrSXf3i0xXemB5eSF1doAAc4CJQQAGHOX4O56QAlSjusZSF1itaD5shfhrQgTqtNQUMfLgq_bWfRVMyqFhqUb5wCRa1BTM-KmX0i5bYLkPNN57OjVSQLdbTkEkSr5Qc-X7pSJfP-mIzcERBY4SxX9kc5NxFq5F4KMOo9xMN0yhBSs77O-SYkkZvkXm53CHCMydmz5kxEXlqCjSsPwTEPXNzExSRwWmhF2U0ZXJYOPY8dQmvM6B_3aniZy0]--></g></svg>