<?xml version="1.0" encoding="us-ascii" standalone="no"?><svg xmlns="http://www.w3.org/2000/svg" xmlns:xlink="http://www.w3.org/1999/xlink" contentStyleType="text/css" height="809px" preserveAspectRatio="none" style="width:1385px;height:809px;background:#FFFFFF;" version="1.1" viewBox="0 0 1385 809" width="1385px" zoomAndPan="magnify"><defs/><g><text fill="#000000" font-family="sans-serif" font-size="14" font-weight="bold" lengthAdjust="spacing" textLength="47" x="667.75" y="34.5332">SID$22</text><ellipse cx="1171.25" cy="58.6094" fill="#222222" rx="10" ry="10" style="stroke:#222222;stroke-width:1.0;"/><rect fill="#F1F1F1" height="35.0938" rx="12.5" ry="12.5" style="stroke:#181818;stroke-width:0.5;" width="121" x="1110.75" y="88.6094"/><text fill="#000000" font-family="sans-serif" font-size="12" lengthAdjust="spacing" textLength="101" x="1120.75" y="111.0664">SID$22&#12434;&#21463;&#20449;&#12375;&#12383;</text><polygon fill="#F1F1F1" points="1091.25,143.7031,1251.25,143.7031,1263.25,155.7031,1251.25,167.7031,1091.25,167.7031,1079.25,155.7031,1091.25,143.7031" style="stroke:#181818;stroke-width:0.5;"/><text fill="#000000" font-family="sans-serif" font-size="11" lengthAdjust="spacing" textLength="160" x="1091.25" y="160.2041">&#12522;&#12463;&#12456;&#12473;&#12488;&#65381;&#12513;&#12483;&#12475;&#12540;&#12472;&#38263;&#12398;&#26908;&#26619;</text><text fill="#000000" font-family="sans-serif" font-size="11" lengthAdjust="spacing" textLength="18" x="1061.25" y="153.2861">yes</text><text fill="#000000" font-family="sans-serif" font-size="11" lengthAdjust="spacing" textLength="12" x="1263.25" y="153.2861">no</text><rect fill="#F1F1F1" height="35.0938" rx="12.5" ry="12.5" style="stroke:#181818;stroke-width:0.5;" width="130" x="959" y="177.7031"/><text fill="#000000" font-family="sans-serif" font-size="12" lengthAdjust="spacing" textLength="110" x="969" y="200.1602">dataIdentifier &#12398;&#21462;&#24471;</text><polygon fill="#F1F1F1" points="949,289.7158,1099,289.7158,1111,301.7158,1099,313.7158,949,313.7158,937,301.7158,949,289.7158" style="stroke:#181818;stroke-width:0.5;"/><text fill="#000000" font-family="sans-serif" font-size="11" lengthAdjust="spacing" textLength="150" x="949" y="306.2168">dataIdentifier&#12364;&#12469;&#12509;&#12540;&#12488;&#12373;&#12428;&#12427;</text><text fill="#000000" font-family="sans-serif" font-size="11" lengthAdjust="spacing" textLength="18" x="919" y="299.2988">yes</text><text fill="#000000" font-family="sans-serif" font-size="11" lengthAdjust="spacing" textLength="12" x="1111" y="299.2988">no</text><polygon fill="#F1F1F1" points="849,323.7158,974,323.7158,986,335.7158,974,347.7158,849,347.7158,837,335.7158,849,323.7158" style="stroke:#181818;stroke-width:0.5;"/><text fill="#000000" font-family="sans-serif" font-size="11" lengthAdjust="spacing" textLength="125" x="849" y="340.2168">DiagnosticSession &#12398;&#26908;&#26619;</text><text fill="#000000" font-family="sans-serif" font-size="11" lengthAdjust="spacing" textLength="18" x="819" y="333.2988">yes</text><text fill="#000000" font-family="sans-serif" font-size="11" lengthAdjust="spacing" textLength="12" x="986" y="333.2988">no</text><polygon fill="#F1F1F1" points="710,357.7158,809,357.7158,821,369.7158,809,381.7158,710,381.7158,698,369.7158,710,357.7158" style="stroke:#181818;stroke-width:0.5;"/><text fill="#000000" font-family="sans-serif" font-size="11" lengthAdjust="spacing" textLength="99" x="710" y="374.2168">&#12475;&#12461;&#12517;&#12522;&#12486;&#12451;&#12398;&#26908;&#26619;</text><text fill="#000000" font-family="sans-serif" font-size="11" lengthAdjust="spacing" textLength="18" x="680" y="367.2988">yes</text><text fill="#000000" font-family="sans-serif" font-size="11" lengthAdjust="spacing" textLength="12" x="821" y="367.2988">no</text><polygon fill="#F1F1F1" points="334,391.7158,792,391.7158,804,403.7158,792,415.7158,334,415.7158,322,403.7158,334,391.7158" style="stroke:#181818;stroke-width:0.5;"/><text fill="#000000" font-family="sans-serif" font-size="11" lengthAdjust="spacing" textLength="458" x="334" y="408.2168">dataIdentifier&#12395;&#36554;&#20001;&#36939;&#36578;&#26465;&#20214;&#12364;&#12354;&#12426;&#12289;&#12363;&#12388;&#12289;&#29694;&#22312;&#12398;&#36554;&#20001;&#36939;&#36578;&#26465;&#20214;&#12364;&#23455;&#34892;&#35377;&#21487;&#26465;&#20214;&#22806;&#12391;&#12354;&#12427;&#22580;&#21512;</text><text fill="#000000" font-family="sans-serif" font-size="11" lengthAdjust="spacing" textLength="18" x="304" y="401.2988">yes</text><text fill="#000000" font-family="sans-serif" font-size="11" lengthAdjust="spacing" textLength="12" x="804" y="401.2988">no</text><polygon fill="#F1F1F1" points="93.5,425.7158,530.5,425.7158,542.5,437.7158,530.5,449.7158,93.5,449.7158,81.5,437.7158,93.5,425.7158" style="stroke:#181818;stroke-width:0.5;"/><text fill="#000000" font-family="sans-serif" font-size="11" lengthAdjust="spacing" textLength="437" x="93.5" y="442.2168">dataIdentifier&#12395;&#24773;&#22577;&#20986;&#21147;&#12398;&#25298;&#32118;&#26465;&#20214;&#12364;&#12354;&#12426;&#12289;&#12363;&#12388;&#12289;ECU &#12364;&#29694;&#22312;&#12381;&#12398;&#29366;&#24907;&#12395;&#12394;&#12387;&#12390;&#12356;&#12427;&#22580;&#21512;</text><text fill="#000000" font-family="sans-serif" font-size="11" lengthAdjust="spacing" textLength="18" x="63.5" y="435.2988">yes</text><text fill="#000000" font-family="sans-serif" font-size="11" lengthAdjust="spacing" textLength="12" x="542.5" y="435.2988">no</text><rect fill="#F1F1F1" height="35.0938" rx="12.5" ry="12.5" style="stroke:#181818;stroke-width:0.5;" width="67" x="38" y="459.7158"/><text fill="#000000" font-family="sans-serif" font-size="12" lengthAdjust="spacing" textLength="47" x="48" y="482.1729">continue</text><rect fill="#F1F1F1" height="35.0938" rx="12.5" ry="12.5" style="stroke:#181818;stroke-width:0.5;" width="112" x="496.5" y="459.7158"/><text fill="#000000" font-family="sans-serif" font-size="12" lengthAdjust="spacing" textLength="92" x="506.5" y="482.1729">"7F 22 10"&#12434;&#36820;&#36865;</text><ellipse cx="552.5" cy="540.8096" fill="none" rx="11" ry="11" style="stroke:#222222;stroke-width:1.0;"/><ellipse cx="552.5" cy="540.8096" fill="#222222" rx="6" ry="6" style="stroke:#222222;stroke-width:1.0;"/><rect fill="#F1F1F1" height="35.0938" rx="12.5" ry="12.5" style="stroke:#181818;stroke-width:0.5;" width="112" x="758" y="425.7158"/><text fill="#000000" font-family="sans-serif" font-size="12" lengthAdjust="spacing" textLength="92" x="768" y="448.1729">"7F 22 22"&#12434;&#36820;&#36865;</text><ellipse cx="814" cy="506.8096" fill="none" rx="11" ry="11" style="stroke:#222222;stroke-width:1.0;"/><ellipse cx="814" cy="506.8096" fill="#222222" rx="6" ry="6" style="stroke:#222222;stroke-width:1.0;"/><rect fill="#F1F1F1" height="35.0938" rx="12.5" ry="12.5" style="stroke:#181818;stroke-width:0.5;" width="112" x="900" y="391.7158"/><text fill="#000000" font-family="sans-serif" font-size="12" lengthAdjust="spacing" textLength="92" x="910" y="414.1729">"7F 22 33"&#12434;&#36820;&#36865;</text><ellipse cx="956" cy="472.8096" fill="none" rx="11" ry="11" style="stroke:#222222;stroke-width:1.0;"/><ellipse cx="956" cy="472.8096" fill="#222222" rx="6" ry="6" style="stroke:#222222;stroke-width:1.0;"/><rect fill="#F1F1F1" height="35.0938" rx="12.5" ry="12.5" style="stroke:#181818;stroke-width:0.5;" width="43" x="1042" y="357.7158"/><text fill="#000000" font-family="sans-serif" font-size="12" lengthAdjust="spacing" textLength="23" x="1052" y="380.1729">skip</text><polygon fill="#F1F1F1" points="911.5,561.8096,923.5,573.8096,911.5,585.8096,899.5,573.8096,911.5,561.8096" style="stroke:#181818;stroke-width:0.5;"/><rect fill="#F1F1F1" height="35.0938" rx="12.5" ry="12.5" style="stroke:#181818;stroke-width:0.5;" width="43" x="1115" y="323.7158"/><text fill="#000000" font-family="sans-serif" font-size="12" lengthAdjust="spacing" textLength="23" x="1125" y="346.1729">skip</text><polygon fill="#F1F1F1" points="1024,591.8096,1036,603.8096,1024,615.8096,1012,603.8096,1024,591.8096" style="stroke:#181818;stroke-width:0.5;"/><polygon fill="#F1F1F1" points="958.5,232.7969,1089.5,232.7969,1101.5,244.7969,1089.5,256.7969,958.5,256.7969,946.5,244.7969,958.5,232.7969" style="stroke:#181818;stroke-width:0.5;"/><text fill="#000000" font-family="sans-serif" font-size="11" lengthAdjust="spacing" textLength="18" x="1028" y="268.2158">yes</text><text fill="#000000" font-family="sans-serif" font-size="11" lengthAdjust="spacing" textLength="131" x="958.5" y="249.2979">&#27531;&#12426;&#12398; dataIdentifier&#12364;&#12354;&#12427;</text><polygon fill="#F1F1F1" points="950,657.8096,1098,657.8096,1110,669.8096,1098,681.8096,950,681.8096,938,669.8096,950,657.8096" style="stroke:#181818;stroke-width:0.5;"/><text fill="#000000" font-family="sans-serif" font-size="11" lengthAdjust="spacing" textLength="148" x="950" y="674.3105">&#19968;&#12388;&#20197;&#19978;&#12398;DID&#12364;&#12469;&#12509;&#12540;&#12488;&#12377;&#12427;</text><text fill="#000000" font-family="sans-serif" font-size="11" lengthAdjust="spacing" textLength="18" x="920" y="667.3926">yes</text><text fill="#000000" font-family="sans-serif" font-size="11" lengthAdjust="spacing" textLength="12" x="1110" y="667.3926">no</text><rect fill="#F1F1F1" height="35.0938" rx="12.5" ry="12.5" style="stroke:#181818;stroke-width:0.5;" width="458" x="642.5" y="691.8096"/><text fill="#000000" font-family="sans-serif" font-size="12" lengthAdjust="spacing" textLength="438" x="652.5" y="714.2666">"62 [Supported DID(MSB), Supported DID, DataA, DataB, DataC, DataD]..."&#12434;&#36820;&#36865;</text><rect fill="#F1F1F1" height="35.0938" rx="12.5" ry="12.5" style="stroke:#181818;stroke-width:0.5;" width="112" x="1120.5" y="691.8096"/><text fill="#000000" font-family="sans-serif" font-size="12" lengthAdjust="spacing" textLength="92" x="1130.5" y="714.2666">"7F 22 31"&#12434;&#36820;&#36865;</text><polygon fill="#F1F1F1" points="1024,732.9033,1036,744.9033,1024,756.9033,1012,744.9033,1024,732.9033" style="stroke:#181818;stroke-width:0.5;"/><ellipse cx="1024" cy="787.9033" fill="none" rx="11" ry="11" style="stroke:#222222;stroke-width:1.0;"/><ellipse cx="1024" cy="787.9033" fill="#222222" rx="6" ry="6" style="stroke:#222222;stroke-width:1.0;"/><rect fill="#F1F1F1" height="35.0938" rx="12.5" ry="12.5" style="stroke:#181818;stroke-width:0.5;" width="112" x="1262.5" y="177.7031"/><text fill="#000000" font-family="sans-serif" font-size="12" lengthAdjust="spacing" textLength="92" x="1272.5" y="200.1602">"7F 22 13"&#12434;&#36820;&#36865;</text><ellipse cx="1318.5" cy="243.7969" fill="none" rx="11" ry="11" style="stroke:#222222;stroke-width:1.0;"/><ellipse cx="1318.5" cy="243.7969" fill="#222222" rx="6" ry="6" style="stroke:#222222;stroke-width:1.0;"/><line style="stroke:#181818;stroke-width:1.0;" x1="1171.25" x2="1171.25" y1="68.6094" y2="88.6094"/><polygon fill="#181818" points="1167.25,78.6094,1171.25,88.6094,1175.25,78.6094,1171.25,82.6094" style="stroke:#181818;stroke-width:1.0;"/><line style="stroke:#181818;stroke-width:1.0;" x1="552.5" x2="552.5" y1="494.8096" y2="529.8096"/><polygon fill="#181818" points="548.5,519.8096,552.5,529.8096,556.5,519.8096,552.5,523.8096" style="stroke:#181818;stroke-width:1.0;"/><line style="stroke:#181818;stroke-width:1.0;" x1="81.5" x2="71.5" y1="437.7158" y2="437.7158"/><line style="stroke:#181818;stroke-width:1.0;" x1="71.5" x2="71.5" y1="437.7158" y2="459.7158"/><polygon fill="#181818" points="67.5,449.7158,71.5,459.7158,75.5,449.7158,71.5,453.7158" style="stroke:#181818;stroke-width:1.0;"/><line style="stroke:#181818;stroke-width:1.0;" x1="542.5" x2="552.5" y1="437.7158" y2="437.7158"/><line style="stroke:#181818;stroke-width:1.0;" x1="552.5" x2="552.5" y1="437.7158" y2="459.7158"/><polygon fill="#181818" points="548.5,449.7158,552.5,459.7158,556.5,449.7158,552.5,453.7158" style="stroke:#181818;stroke-width:1.0;"/><line style="stroke:#181818;stroke-width:1.0;" x1="71.5" x2="71.5" y1="494.8096" y2="573.8096"/><line style="stroke:#181818;stroke-width:1.0;" x1="71.5" x2="899.5" y1="573.8096" y2="573.8096"/><polygon fill="#181818" points="889.5,569.8096,899.5,573.8096,889.5,577.8096,893.5,573.8096" style="stroke:#181818;stroke-width:1.0;"/><line style="stroke:#181818;stroke-width:1.0;" x1="814" x2="814" y1="460.8096" y2="495.8096"/><polygon fill="#181818" points="810,485.8096,814,495.8096,818,485.8096,814,489.8096" style="stroke:#181818;stroke-width:1.0;"/><line style="stroke:#181818;stroke-width:1.0;" x1="322" x2="312" y1="403.7158" y2="403.7158"/><line style="stroke:#181818;stroke-width:1.0;" x1="312" x2="312" y1="403.7158" y2="425.7158"/><polygon fill="#181818" points="308,415.7158,312,425.7158,316,415.7158,312,419.7158" style="stroke:#181818;stroke-width:1.0;"/><line style="stroke:#181818;stroke-width:1.0;" x1="804" x2="814" y1="403.7158" y2="403.7158"/><line style="stroke:#181818;stroke-width:1.0;" x1="814" x2="814" y1="403.7158" y2="425.7158"/><polygon fill="#181818" points="810,415.7158,814,425.7158,818,415.7158,814,419.7158" style="stroke:#181818;stroke-width:1.0;"/><line style="stroke:#181818;stroke-width:1.0;" x1="956" x2="956" y1="426.8096" y2="461.8096"/><polygon fill="#181818" points="952,451.8096,956,461.8096,960,451.8096,956,455.8096" style="stroke:#181818;stroke-width:1.0;"/><line style="stroke:#181818;stroke-width:1.0;" x1="698" x2="563" y1="369.7158" y2="369.7158"/><line style="stroke:#181818;stroke-width:1.0;" x1="563" x2="563" y1="369.7158" y2="391.7158"/><polygon fill="#181818" points="559,381.7158,563,391.7158,567,381.7158,563,385.7158" style="stroke:#181818;stroke-width:1.0;"/><line style="stroke:#181818;stroke-width:1.0;" x1="821" x2="956" y1="369.7158" y2="369.7158"/><line style="stroke:#181818;stroke-width:1.0;" x1="956" x2="956" y1="369.7158" y2="391.7158"/><polygon fill="#181818" points="952,381.7158,956,391.7158,960,381.7158,956,385.7158" style="stroke:#181818;stroke-width:1.0;"/><line style="stroke:#181818;stroke-width:1.0;" x1="837" x2="759.5" y1="335.7158" y2="335.7158"/><line style="stroke:#181818;stroke-width:1.0;" x1="759.5" x2="759.5" y1="335.7158" y2="357.7158"/><polygon fill="#181818" points="755.5,347.7158,759.5,357.7158,763.5,347.7158,759.5,351.7158" style="stroke:#181818;stroke-width:1.0;"/><line style="stroke:#181818;stroke-width:1.0;" x1="986" x2="1063.5" y1="335.7158" y2="335.7158"/><line style="stroke:#181818;stroke-width:1.0;" x1="1063.5" x2="1063.5" y1="335.7158" y2="357.7158"/><polygon fill="#181818" points="1059.5,347.7158,1063.5,357.7158,1067.5,347.7158,1063.5,351.7158" style="stroke:#181818;stroke-width:1.0;"/><line style="stroke:#181818;stroke-width:1.0;" x1="1063.5" x2="1063.5" y1="392.8096" y2="573.8096"/><line style="stroke:#181818;stroke-width:1.0;" x1="1063.5" x2="923.5" y1="573.8096" y2="573.8096"/><polygon fill="#181818" points="933.5,569.8096,923.5,573.8096,933.5,577.8096,929.5,573.8096" style="stroke:#181818;stroke-width:1.0;"/><line style="stroke:#181818;stroke-width:1.0;" x1="937" x2="911.5" y1="301.7158" y2="301.7158"/><line style="stroke:#181818;stroke-width:1.0;" x1="911.5" x2="911.5" y1="301.7158" y2="323.7158"/><polygon fill="#181818" points="907.5,313.7158,911.5,323.7158,915.5,313.7158,911.5,317.7158" style="stroke:#181818;stroke-width:1.0;"/><line style="stroke:#181818;stroke-width:1.0;" x1="1111" x2="1136.5" y1="301.7158" y2="301.7158"/><line style="stroke:#181818;stroke-width:1.0;" x1="1136.5" x2="1136.5" y1="301.7158" y2="323.7158"/><polygon fill="#181818" points="1132.5,313.7158,1136.5,323.7158,1140.5,313.7158,1136.5,317.7158" style="stroke:#181818;stroke-width:1.0;"/><line style="stroke:#181818;stroke-width:1.0;" x1="911.5" x2="911.5" y1="585.8096" y2="603.8096"/><line style="stroke:#181818;stroke-width:1.0;" x1="911.5" x2="1012" y1="603.8096" y2="603.8096"/><polygon fill="#181818" points="1002,599.8096,1012,603.8096,1002,607.8096,1006,603.8096" style="stroke:#181818;stroke-width:1.0;"/><line style="stroke:#181818;stroke-width:1.0;" x1="1136.5" x2="1136.5" y1="358.8096" y2="603.8096"/><line style="stroke:#181818;stroke-width:1.0;" x1="1136.5" x2="1036" y1="603.8096" y2="603.8096"/><polygon fill="#181818" points="1046,599.8096,1036,603.8096,1046,607.8096,1042,603.8096" style="stroke:#181818;stroke-width:1.0;"/><line style="stroke:#181818;stroke-width:1.0;" x1="1024" x2="1024" y1="256.7969" y2="289.7158"/><polygon fill="#181818" points="1020,279.7158,1024,289.7158,1028,279.7158,1024,283.7158" style="stroke:#181818;stroke-width:1.0;"/><line style="stroke:#181818;stroke-width:1.0;" x1="1024" x2="1024" y1="615.8096" y2="625.8096"/><line style="stroke:#181818;stroke-width:1.0;" x1="1024" x2="1180" y1="625.8096" y2="625.8096"/><polygon fill="#181818" points="1176,450.8447,1180,440.8447,1184,450.8447,1180,446.8447" style="stroke:#181818;stroke-width:1.0;"/><line style="stroke:#181818;stroke-width:1.0;" x1="1180" x2="1180" y1="244.7969" y2="625.8096"/><line style="stroke:#181818;stroke-width:1.0;" x1="1180" x2="1101.5" y1="244.7969" y2="244.7969"/><polygon fill="#181818" points="1111.5,240.7969,1101.5,244.7969,1111.5,248.7969,1107.5,244.7969" style="stroke:#181818;stroke-width:1.0;"/><line style="stroke:#181818;stroke-width:1.0;" x1="946.5" x2="24" y1="244.7969" y2="244.7969"/><polygon fill="#181818" points="20,436.8447,24,446.8447,28,436.8447,24,440.8447" style="stroke:#181818;stroke-width:1.0;"/><line style="stroke:#181818;stroke-width:1.0;" x1="24" x2="24" y1="244.7969" y2="637.8096"/><line style="stroke:#181818;stroke-width:1.0;" x1="24" x2="1024" y1="637.8096" y2="637.8096"/><line style="stroke:#181818;stroke-width:1.0;" x1="1024" x2="1024" y1="637.8096" y2="657.8096"/><polygon fill="#181818" points="1020,647.8096,1024,657.8096,1028,647.8096,1024,651.8096" style="stroke:#181818;stroke-width:1.0;"/><line style="stroke:#181818;stroke-width:1.0;" x1="1024" x2="1024" y1="212.7969" y2="232.7969"/><polygon fill="#181818" points="1020,222.7969,1024,232.7969,1028,222.7969,1024,226.7969" style="stroke:#181818;stroke-width:1.0;"/><line style="stroke:#181818;stroke-width:1.0;" x1="938" x2="871.5" y1="669.8096" y2="669.8096"/><line style="stroke:#181818;stroke-width:1.0;" x1="871.5" x2="871.5" y1="669.8096" y2="691.8096"/><polygon fill="#181818" points="867.5,681.8096,871.5,691.8096,875.5,681.8096,871.5,685.8096" style="stroke:#181818;stroke-width:1.0;"/><line style="stroke:#181818;stroke-width:1.0;" x1="1110" x2="1176.5" y1="669.8096" y2="669.8096"/><line style="stroke:#181818;stroke-width:1.0;" x1="1176.5" x2="1176.5" y1="669.8096" y2="691.8096"/><polygon fill="#181818" points="1172.5,681.8096,1176.5,691.8096,1180.5,681.8096,1176.5,685.8096" style="stroke:#181818;stroke-width:1.0;"/><line style="stroke:#181818;stroke-width:1.0;" x1="871.5" x2="871.5" y1="726.9033" y2="744.9033"/><line style="stroke:#181818;stroke-width:1.0;" x1="871.5" x2="1012" y1="744.9033" y2="744.9033"/><polygon fill="#181818" points="1002,740.9033,1012,744.9033,1002,748.9033,1006,744.9033" style="stroke:#181818;stroke-width:1.0;"/><line style="stroke:#181818;stroke-width:1.0;" x1="1176.5" x2="1176.5" y1="726.9033" y2="744.9033"/><line style="stroke:#181818;stroke-width:1.0;" x1="1176.5" x2="1036" y1="744.9033" y2="744.9033"/><polygon fill="#181818" points="1046,740.9033,1036,744.9033,1046,748.9033,1042,744.9033" style="stroke:#181818;stroke-width:1.0;"/><line style="stroke:#181818;stroke-width:1.0;" x1="1024" x2="1024" y1="756.9033" y2="776.9033"/><polygon fill="#181818" points="1020,766.9033,1024,776.9033,1028,766.9033,1024,770.9033" style="stroke:#181818;stroke-width:1.0;"/><line style="stroke:#181818;stroke-width:1.0;" x1="1318.5" x2="1318.5" y1="212.7969" y2="232.7969"/><polygon fill="#181818" points="1314.5,222.7969,1318.5,232.7969,1322.5,222.7969,1318.5,226.7969" style="stroke:#181818;stroke-width:1.0;"/><line style="stroke:#181818;stroke-width:1.0;" x1="1079.25" x2="1024" y1="155.7031" y2="155.7031"/><line style="stroke:#181818;stroke-width:1.0;" x1="1024" x2="1024" y1="155.7031" y2="177.7031"/><polygon fill="#181818" points="1020,167.7031,1024,177.7031,1028,167.7031,1024,171.7031" style="stroke:#181818;stroke-width:1.0;"/><line style="stroke:#181818;stroke-width:1.0;" x1="1263.25" x2="1318.5" y1="155.7031" y2="155.7031"/><line style="stroke:#181818;stroke-width:1.0;" x1="1318.5" x2="1318.5" y1="155.7031" y2="177.7031"/><polygon fill="#181818" points="1314.5,167.7031,1318.5,177.7031,1322.5,167.7031,1318.5,171.7031" style="stroke:#181818;stroke-width:1.0;"/><line style="stroke:#181818;stroke-width:1.0;" x1="1171.25" x2="1171.25" y1="123.7031" y2="143.7031"/><polygon fill="#181818" points="1167.25,133.7031,1171.25,143.7031,1175.25,133.7031,1171.25,137.7031" style="stroke:#181818;stroke-width:1.0;"/><!--SRC=[dLJVRz9G57xlNt53V81a8QvBD84djsh2Wq_49-C36HVNI5f2knZVkBTE2P1W5ZTY764eADaYonA7Q7NxOqvlWIV_1MyfFr9AOV6-tFRUyvtlErzFZoxhMOoI2UcEA0gQdihhGinz0th8gZNhfWca1gGH5-HC68mpe1T0Eq1_Wb7y-wSDHXCC0wW9nc-W_T7H3o1TktLYDym8qlUm4dw5jOY0-8gbKtegaSQABcTad4Sya5MFsNKjFhv-kITdSTZkbe6M-1NoHWEf0A50on5PcwTq5fVb3wLNODGTIKOHo17GYeCSwq5Uz2I39AUUAwgcoxj9h6cogg25CfR09b2dTleDZBPZZl46wEVRGGEqdm_DajLlZaXvQ7wowqtBx4rhBq6102a3QV67GVMQdNGurT9urcqCcvLXvv9LBzn3rZe6yjNra9r-P- -AQzK5ARID0tPwoTx-OgMFJgtbmy5LRuNKXpjFk9sLgU8wnmnAFVk0Nvy3EGF27Vi2vFLScRTnWbPiL-MYb7qS3mp3MGs75NLDdj3zHqWKqURT46_wuStxKO74Lo8qNSq5SoffEIFybvgf4b6yZP905SiLh6IVCczjhMDUokfd36IBQI_ad3Ur5xqKkO2Q8_ZJU788aswr-WNUTPRPjlhE694IacyUV0WQ1h7GFH4zJUxdScfUnsd4mU77oUt81lASRI29_n8Ft6tRtNRSJNeMZKON7VGLD3DxqnSwgsjiimSvQrFV9t9Z7UW_]--></g></svg>