<?xml version="1.0" encoding="us-ascii" standalone="no"?><svg xmlns="http://www.w3.org/2000/svg" xmlns:xlink="http://www.w3.org/1999/xlink" contentStyleType="text/css" height="710px" preserveAspectRatio="none" style="width:2197px;height:710px;background:#FFFFFF;" version="1.1" viewBox="0 0 2197 710" width="2197px" zoomAndPan="magnify"><defs/><g><text fill="#000000" font-family="sans-serif" font-size="14" font-weight="bold" lengthAdjust="spacing" textLength="47" x="1073.75" y="34.5332">SID$10</text><ellipse cx="1739.375" cy="58.6094" fill="#222222" rx="10" ry="10" style="stroke:#222222;stroke-width:1.0;"/><rect fill="#ADD8E6" height="578.6309" style="stroke:#000000;stroke-width:1.5;" width="2175.5" x="11" y="78.6094"/><path d="M67,78.6094 L67,89.2188 L57,99.2188 L11,99.2188 " fill="none" style="stroke:#000000;stroke-width:1.5;"/><text fill="#000000" font-family="sans-serif" font-size="14" lengthAdjust="spacing" textLength="46" x="14" y="94.1426">SID$10</text><rect fill="#F1F1F1" height="35.0938" rx="12.5" ry="12.5" style="stroke:#181818;stroke-width:0.5;" width="255" x="1611.875" y="116.2188"/><text fill="#000000" font-family="sans-serif" font-size="12" lengthAdjust="spacing" textLength="235" x="1621.875" y="138.6758">Service $10 &#12522;&#12463;&#12456;&#12473;&#12488;&#12539;&#12513;&#12483;&#12475;&#12540;&#12472;&#12434;&#21463;&#20449;</text><polygon fill="#F1F1F1" points="1678.375,171.3125,1800.375,171.3125,1812.375,183.3125,1800.375,195.3125,1678.375,195.3125,1666.375,183.3125,1678.375,171.3125" style="stroke:#181818;stroke-width:0.5;"/><text fill="#000000" font-family="sans-serif" font-size="11" lengthAdjust="spacing" textLength="122" x="1678.375" y="187.8135">len(RequestMessage)&lt;2)</text><text fill="#000000" font-family="sans-serif" font-size="11" lengthAdjust="spacing" textLength="12" x="1654.375" y="180.8955">no</text><text fill="#000000" font-family="sans-serif" font-size="11" lengthAdjust="spacing" textLength="18" x="1812.375" y="180.8955">yes</text><polygon fill="#F1F1F1" points="1304.25,205.3125,1441.25,205.3125,1453.25,217.3125,1441.25,229.3125,1304.25,229.3125,1292.25,217.3125,1304.25,205.3125" style="stroke:#181818;stroke-width:0.5;"/><text fill="#000000" font-family="sans-serif" font-size="11" lengthAdjust="spacing" textLength="137" x="1304.25" y="221.8135">diagnosticSessionType legal</text><text fill="#000000" font-family="sans-serif" font-size="11" lengthAdjust="spacing" textLength="18" x="1274.25" y="214.8955">yes</text><text fill="#000000" font-family="sans-serif" font-size="11" lengthAdjust="spacing" textLength="12" x="1453.25" y="214.8955">no</text><rect fill="#D3D3D3" height="405.9277" style="stroke:#000000;stroke-width:1.5;" width="1767.5" x="23" y="239.3125"/><path d="M162,239.3125 L162,249.9219 L152,259.9219 L23,259.9219 " fill="none" style="stroke:#000000;stroke-width:1.5;"/><text fill="#000000" font-family="sans-serif" font-size="14" lengthAdjust="spacing" textLength="129" x="26" y="254.8457">checkReqBySession</text><polygon fill="#F1F1F1" points="875,276.9219,938,276.9219,950,288.9219,938,300.9219,875,300.9219,863,288.9219,875,276.9219" style="stroke:#181818;stroke-width:0.5;"/><text fill="#000000" font-family="sans-serif" font-size="11" lengthAdjust="spacing" textLength="63" x="875" y="293.4229">subfunction?</text><polygon fill="#F1F1F1" points="183,338.5938,270,338.5938,282,350.5938,270,362.5938,183,362.5938,171,350.5938,183,338.5938" style="stroke:#181818;stroke-width:0.5;"/><text fill="#000000" font-family="sans-serif" font-size="11" lengthAdjust="spacing" textLength="87" x="183" y="355.0947">ECU Session legal</text><text fill="#000000" font-family="sans-serif" font-size="11" lengthAdjust="spacing" textLength="12" x="159" y="348.1768">no</text><text fill="#000000" font-family="sans-serif" font-size="11" lengthAdjust="spacing" textLength="18" x="282" y="348.1768">yes</text><rect fill="#F1F1F1" height="35.0938" rx="12.5" ry="12.5" style="stroke:#181818;stroke-width:0.5;" width="112" x="36" y="372.5938"/><text fill="#000000" font-family="sans-serif" font-size="12" lengthAdjust="spacing" textLength="92" x="46" y="395.0508">NRC=$7E&#12434;&#36820;&#36865;</text><ellipse cx="92" cy="453.6875" fill="none" rx="11" ry="11" style="stroke:#222222;stroke-width:1.0;"/><ellipse cx="92" cy="453.6875" fill="#222222" rx="6" ry="6" style="stroke:#222222;stroke-width:1.0;"/><polygon fill="#F1F1F1" points="300.25,372.5938,424.25,372.5938,436.25,384.5938,424.25,396.5938,300.25,396.5938,288.25,384.5938,300.25,372.5938" style="stroke:#181818;stroke-width:0.5;"/><text fill="#000000" font-family="sans-serif" font-size="11" lengthAdjust="spacing" textLength="124" x="300.25" y="389.0947">len(RequestMessage)!=2)</text><text fill="#000000" font-family="sans-serif" font-size="11" lengthAdjust="spacing" textLength="12" x="276.25" y="382.1768">no</text><text fill="#000000" font-family="sans-serif" font-size="11" lengthAdjust="spacing" textLength="18" x="436.25" y="382.1768">yes</text><rect fill="#F1F1F1" height="35.0938" rx="12.5" ry="12.5" style="stroke:#181818;stroke-width:0.5;" width="129" x="210.75" y="406.5938"/><text fill="#000000" font-family="sans-serif" font-size="12" lengthAdjust="spacing" textLength="109" x="220.75" y="429.0508">ECU Session = $01</text><rect fill="#F1F1F1" height="35.0938" rx="12.5" ry="12.5" style="stroke:#181818;stroke-width:0.5;" width="197" x="176.75" y="476.6875"/><text fill="#000000" font-family="sans-serif" font-size="12" lengthAdjust="spacing" textLength="177" x="186.75" y="499.1445">$01&#12434;&#32068;&#12415;&#36796;&#12435;&#12384;&#12509;&#12472;&#12524;&#12473;&#12434;&#36820;&#36865;</text><ellipse cx="275.25" cy="557.7813" fill="none" rx="11" ry="11" style="stroke:#222222;stroke-width:1.0;"/><ellipse cx="275.25" cy="557.7813" fill="#222222" rx="6" ry="6" style="stroke:#222222;stroke-width:1.0;"/><rect fill="#F1F1F1" height="35.0938" rx="12.5" ry="12.5" style="stroke:#181818;stroke-width:0.5;" width="111" x="393.75" y="406.5938"/><text fill="#000000" font-family="sans-serif" font-size="12" lengthAdjust="spacing" textLength="91" x="403.75" y="429.0508">NRC=$13&#12434;&#36820;&#36865;</text><ellipse cx="449.25" cy="487.6875" fill="none" rx="11" ry="11" style="stroke:#222222;stroke-width:1.0;"/><ellipse cx="449.25" cy="487.6875" fill="#222222" rx="6" ry="6" style="stroke:#222222;stroke-width:1.0;"/><rect fill="#F1F1F1" height="35.0938" rx="12.5" ry="12.5" style="stroke:#181818;stroke-width:0.5;" width="29" x="514.75" y="338.5938"/><text fill="#000000" font-family="sans-serif" font-size="12" lengthAdjust="spacing" textLength="9" x="524.75" y="361.0508">...</text><polygon fill="#F1F1F1" points="703.25,338.5938,790.25,338.5938,802.25,350.5938,790.25,362.5938,703.25,362.5938,691.25,350.5938,703.25,338.5938" style="stroke:#181818;stroke-width:0.5;"/><text fill="#000000" font-family="sans-serif" font-size="11" lengthAdjust="spacing" textLength="87" x="703.25" y="355.0947">ECU Session legal</text><text fill="#000000" font-family="sans-serif" font-size="11" lengthAdjust="spacing" textLength="12" x="679.25" y="348.1768">no</text><text fill="#000000" font-family="sans-serif" font-size="11" lengthAdjust="spacing" textLength="18" x="802.25" y="348.1768">yes</text><rect fill="#F1F1F1" height="35.0938" rx="12.5" ry="12.5" style="stroke:#181818;stroke-width:0.5;" width="112" x="557.25" y="372.5938"/><text fill="#000000" font-family="sans-serif" font-size="12" lengthAdjust="spacing" textLength="92" x="567.25" y="395.0508">NRC=$7E&#12434;&#36820;&#36865;</text><ellipse cx="613.25" cy="453.6875" fill="none" rx="11" ry="11" style="stroke:#222222;stroke-width:1.0;"/><ellipse cx="613.25" cy="453.6875" fill="#222222" rx="6" ry="6" style="stroke:#222222;stroke-width:1.0;"/><polygon fill="#F1F1F1" points="820.5,372.5938,944.5,372.5938,956.5,384.5938,944.5,396.5938,820.5,396.5938,808.5,384.5938,820.5,372.5938" style="stroke:#181818;stroke-width:0.5;"/><text fill="#000000" font-family="sans-serif" font-size="11" lengthAdjust="spacing" textLength="124" x="820.5" y="389.0947">len(RequestMessage)!=2)</text><text fill="#000000" font-family="sans-serif" font-size="11" lengthAdjust="spacing" textLength="12" x="796.5" y="382.1768">no</text><text fill="#000000" font-family="sans-serif" font-size="11" lengthAdjust="spacing" textLength="18" x="956.5" y="382.1768">yes</text><rect fill="#F1F1F1" height="35.0938" rx="12.5" ry="12.5" style="stroke:#181818;stroke-width:0.5;" width="129" x="731" y="406.5938"/><text fill="#000000" font-family="sans-serif" font-size="12" lengthAdjust="spacing" textLength="109" x="741" y="429.0508">ECU Session = $03</text><rect fill="#F1F1F1" height="35.0938" rx="12.5" ry="12.5" style="stroke:#181818;stroke-width:0.5;" width="197" x="697" y="476.6875"/><text fill="#000000" font-family="sans-serif" font-size="12" lengthAdjust="spacing" textLength="177" x="707" y="499.1445">$03&#12434;&#32068;&#12415;&#36796;&#12435;&#12384;&#12509;&#12472;&#12524;&#12473;&#12434;&#36820;&#36865;</text><ellipse cx="795.5" cy="557.7813" fill="none" rx="11" ry="11" style="stroke:#222222;stroke-width:1.0;"/><ellipse cx="795.5" cy="557.7813" fill="#222222" rx="6" ry="6" style="stroke:#222222;stroke-width:1.0;"/><rect fill="#F1F1F1" height="35.0938" rx="12.5" ry="12.5" style="stroke:#181818;stroke-width:0.5;" width="111" x="914" y="406.5938"/><text fill="#000000" font-family="sans-serif" font-size="12" lengthAdjust="spacing" textLength="91" x="924" y="429.0508">NRC=$13&#12434;&#36820;&#36865;</text><ellipse cx="969.5" cy="487.6875" fill="none" rx="11" ry="11" style="stroke:#222222;stroke-width:1.0;"/><ellipse cx="969.5" cy="487.6875" fill="#222222" rx="6" ry="6" style="stroke:#222222;stroke-width:1.0;"/><rect fill="#F1F1F1" height="35.0938" rx="12.5" ry="12.5" style="stroke:#181818;stroke-width:0.5;" width="29" x="1035" y="338.5938"/><text fill="#000000" font-family="sans-serif" font-size="12" lengthAdjust="spacing" textLength="9" x="1045" y="361.0508">...</text><rect fill="#F1F1F1" height="35.0938" rx="12.5" ry="12.5" style="stroke:#181818;stroke-width:0.5;" width="29" x="1078.5" y="338.5938"/><text fill="#000000" font-family="sans-serif" font-size="12" lengthAdjust="spacing" textLength="9" x="1088.5" y="361.0508">...</text><rect fill="#F1F1F1" height="35.0938" rx="12.5" ry="12.5" style="stroke:#181818;stroke-width:0.5;" width="29" x="1122" y="338.5938"/><text fill="#000000" font-family="sans-serif" font-size="12" lengthAdjust="spacing" textLength="9" x="1132" y="361.0508">...</text><polygon fill="#F1F1F1" points="1176.5,363.5938,1269.5,363.5938,1281.5,375.5938,1269.5,387.5938,1176.5,387.5938,1164.5,375.5938,1176.5,363.5938" style="stroke:#181818;stroke-width:0.5;"/><text fill="#000000" font-family="sans-serif" font-size="11" lengthAdjust="spacing" textLength="12" x="1227" y="399.0127">no</text><text fill="#000000" font-family="sans-serif" font-size="11" lengthAdjust="spacing" textLength="93" x="1176.5" y="380.0947">ECU Session legal?</text><rect fill="#F1F1F1" height="35.0938" rx="12.5" ry="12.5" style="stroke:#181818;stroke-width:0.5;" width="112" x="1167" y="421.4297"/><text fill="#000000" font-family="sans-serif" font-size="12" lengthAdjust="spacing" textLength="92" x="1177" y="443.8867">NRC=$7E&#12434;&#36820;&#36865;</text><ellipse cx="1223" cy="502.5234" fill="none" rx="11" ry="11" style="stroke:#222222;stroke-width:1.0;"/><ellipse cx="1223" cy="502.5234" fill="#222222" rx="6" ry="6" style="stroke:#222222;stroke-width:1.0;"/><polygon fill="#F1F1F1" points="1323,363.5938,1391,363.5938,1403,375.5938,1391,387.5938,1323,387.5938,1311,375.5938,1323,363.5938" style="stroke:#181818;stroke-width:0.5;"/><text fill="#000000" font-family="sans-serif" font-size="11" lengthAdjust="spacing" textLength="12" x="1361" y="399.0127">no</text><text fill="#000000" font-family="sans-serif" font-size="11" lengthAdjust="spacing" textLength="68" x="1323" y="380.0947">Security&#35299;&#38500;?</text><text fill="#000000" font-family="sans-serif" font-size="11" lengthAdjust="spacing" textLength="18" x="1403" y="373.1768">yes</text><rect fill="#F1F1F1" height="35.0938" rx="12.5" ry="12.5" style="stroke:#181818;stroke-width:0.5;" width="111" x="1301.5" y="421.4297"/><text fill="#000000" font-family="sans-serif" font-size="12" lengthAdjust="spacing" textLength="91" x="1311.5" y="443.8867">NRC=$33&#12434;&#36820;&#36865;</text><ellipse cx="1357" cy="502.5234" fill="none" rx="11" ry="11" style="stroke:#222222;stroke-width:1.0;"/><ellipse cx="1357" cy="502.5234" fill="#222222" rx="6" ry="6" style="stroke:#222222;stroke-width:1.0;"/><polygon fill="#F1F1F1" points="1566,403.0527,1690,403.0527,1702,415.0527,1690,427.0527,1566,427.0527,1554,415.0527,1566,403.0527" style="stroke:#181818;stroke-width:0.5;"/><text fill="#000000" font-family="sans-serif" font-size="11" lengthAdjust="spacing" textLength="124" x="1566" y="419.5537">len(RequestMessage)!=2)</text><text fill="#000000" font-family="sans-serif" font-size="11" lengthAdjust="spacing" textLength="12" x="1542" y="412.6357">no</text><text fill="#000000" font-family="sans-serif" font-size="11" lengthAdjust="spacing" textLength="18" x="1702" y="412.6357">yes</text><rect fill="#F1F1F1" height="35.0938" rx="12.5" ry="12.5" style="stroke:#181818;stroke-width:0.5;" width="129" x="1476.5" y="437.0527"/><text fill="#000000" font-family="sans-serif" font-size="12" lengthAdjust="spacing" textLength="109" x="1486.5" y="459.5098">ECU Session = $4F</text><rect fill="#F1F1F1" height="35.0938" rx="12.5" ry="12.5" style="stroke:#181818;stroke-width:0.5;" width="197" x="1442.5" y="507.1465"/><text fill="#000000" font-family="sans-serif" font-size="12" lengthAdjust="spacing" textLength="177" x="1452.5" y="529.6035">$4F&#12434;&#32068;&#12415;&#36796;&#12435;&#12384;&#12509;&#12472;&#12524;&#12473;&#12434;&#36820;&#36865;</text><ellipse cx="1541" cy="588.2402" fill="none" rx="11" ry="11" style="stroke:#222222;stroke-width:1.0;"/><ellipse cx="1541" cy="588.2402" fill="#222222" rx="6" ry="6" style="stroke:#222222;stroke-width:1.0;"/><rect fill="#F1F1F1" height="35.0938" rx="12.5" ry="12.5" style="stroke:#181818;stroke-width:0.5;" width="111" x="1659.5" y="437.0527"/><text fill="#000000" font-family="sans-serif" font-size="12" lengthAdjust="spacing" textLength="91" x="1669.5" y="459.5098">NRC=$13&#12434;&#36820;&#36865;</text><ellipse cx="1715" cy="518.1465" fill="none" rx="11" ry="11" style="stroke:#222222;stroke-width:1.0;"/><ellipse cx="1715" cy="518.1465" fill="#222222" rx="6" ry="6" style="stroke:#222222;stroke-width:1.0;"/><polygon fill="#F1F1F1" points="906.5,609.2402,906.5,609.2402,918.5,621.2402,906.5,633.2402,906.5,633.2402,894.5,621.2402,906.5,609.2402" style="stroke:#181818;stroke-width:0.5;"/><rect fill="#F1F1F1" height="35.0938" rx="12.5" ry="12.5" style="stroke:#181818;stroke-width:0.5;" width="177" x="1810.5" y="239.3125"/><text fill="#000000" font-family="sans-serif" font-size="12" lengthAdjust="spacing" textLength="157" x="1820.5" y="261.7695">NRC = $12&#12398;&#12493;&#12460;&#12524;&#12473;&#12434;&#36820;&#36865;</text><ellipse cx="1899" cy="320.4063" fill="none" rx="11" ry="11" style="stroke:#222222;stroke-width:1.0;"/><ellipse cx="1899" cy="320.4063" fill="#222222" rx="6" ry="6" style="stroke:#222222;stroke-width:1.0;"/><rect fill="#F1F1F1" height="35.0938" rx="12.5" ry="12.5" style="stroke:#181818;stroke-width:0.5;" width="177" x="1997.5" y="205.3125"/><text fill="#000000" font-family="sans-serif" font-size="12" lengthAdjust="spacing" textLength="157" x="2007.5" y="227.7695">NRC = $13&#12398;&#12493;&#12460;&#12524;&#12473;&#12434;&#36820;&#36865;</text><ellipse cx="2086" cy="286.4063" fill="none" rx="11" ry="11" style="stroke:#222222;stroke-width:1.0;"/><ellipse cx="2086" cy="286.4063" fill="#222222" rx="6" ry="6" style="stroke:#222222;stroke-width:1.0;"/><ellipse cx="1739.375" cy="688.2402" fill="none" rx="11" ry="11" style="stroke:#222222;stroke-width:1.0;"/><ellipse cx="1739.375" cy="688.2402" fill="#222222" rx="6" ry="6" style="stroke:#222222;stroke-width:1.0;"/><line style="stroke:#181818;stroke-width:1.0;" x1="92" x2="92" y1="407.6875" y2="442.6875"/><polygon fill="#181818" points="88,432.6875,92,442.6875,96,432.6875,92,436.6875" style="stroke:#181818;stroke-width:1.0;"/><line style="stroke:#181818;stroke-width:1.0;" x1="275.25" x2="275.25" y1="441.6875" y2="476.6875"/><polygon fill="#181818" points="271.25,466.6875,275.25,476.6875,279.25,466.6875,275.25,470.6875" style="stroke:#181818;stroke-width:1.0;"/><line style="stroke:#181818;stroke-width:1.0;" x1="275.25" x2="275.25" y1="511.7813" y2="546.7813"/><polygon fill="#181818" points="271.25,536.7813,275.25,546.7813,279.25,536.7813,275.25,540.7813" style="stroke:#181818;stroke-width:1.0;"/><line style="stroke:#181818;stroke-width:1.0;" x1="449.25" x2="449.25" y1="441.6875" y2="476.6875"/><polygon fill="#181818" points="445.25,466.6875,449.25,476.6875,453.25,466.6875,449.25,470.6875" style="stroke:#181818;stroke-width:1.0;"/><line style="stroke:#181818;stroke-width:1.0;" x1="288.25" x2="275.25" y1="384.5938" y2="384.5938"/><line style="stroke:#181818;stroke-width:1.0;" x1="275.25" x2="275.25" y1="384.5938" y2="406.5938"/><polygon fill="#181818" points="271.25,396.5938,275.25,406.5938,279.25,396.5938,275.25,400.5938" style="stroke:#181818;stroke-width:1.0;"/><line style="stroke:#181818;stroke-width:1.0;" x1="436.25" x2="449.25" y1="384.5938" y2="384.5938"/><line style="stroke:#181818;stroke-width:1.0;" x1="449.25" x2="449.25" y1="384.5938" y2="406.5938"/><polygon fill="#181818" points="445.25,396.5938,449.25,406.5938,453.25,396.5938,449.25,400.5938" style="stroke:#181818;stroke-width:1.0;"/><line style="stroke:#181818;stroke-width:1.0;" x1="171" x2="92" y1="350.5938" y2="350.5938"/><line style="stroke:#181818;stroke-width:1.0;" x1="92" x2="92" y1="350.5938" y2="372.5938"/><polygon fill="#181818" points="88,362.5938,92,372.5938,96,362.5938,92,366.5938" style="stroke:#181818;stroke-width:1.0;"/><line style="stroke:#181818;stroke-width:1.0;" x1="282" x2="362.25" y1="350.5938" y2="350.5938"/><line style="stroke:#181818;stroke-width:1.0;" x1="362.25" x2="362.25" y1="350.5938" y2="372.5938"/><polygon fill="#181818" points="358.25,362.5938,362.25,372.5938,366.25,362.5938,362.25,366.5938" style="stroke:#181818;stroke-width:1.0;"/><line style="stroke:#181818;stroke-width:1.0;" x1="613.25" x2="613.25" y1="407.6875" y2="442.6875"/><polygon fill="#181818" points="609.25,432.6875,613.25,442.6875,617.25,432.6875,613.25,436.6875" style="stroke:#181818;stroke-width:1.0;"/><line style="stroke:#181818;stroke-width:1.0;" x1="795.5" x2="795.5" y1="441.6875" y2="476.6875"/><polygon fill="#181818" points="791.5,466.6875,795.5,476.6875,799.5,466.6875,795.5,470.6875" style="stroke:#181818;stroke-width:1.0;"/><line style="stroke:#181818;stroke-width:1.0;" x1="795.5" x2="795.5" y1="511.7813" y2="546.7813"/><polygon fill="#181818" points="791.5,536.7813,795.5,546.7813,799.5,536.7813,795.5,540.7813" style="stroke:#181818;stroke-width:1.0;"/><line style="stroke:#181818;stroke-width:1.0;" x1="969.5" x2="969.5" y1="441.6875" y2="476.6875"/><polygon fill="#181818" points="965.5,466.6875,969.5,476.6875,973.5,466.6875,969.5,470.6875" style="stroke:#181818;stroke-width:1.0;"/><line style="stroke:#181818;stroke-width:1.0;" x1="808.5" x2="795.5" y1="384.5938" y2="384.5938"/><line style="stroke:#181818;stroke-width:1.0;" x1="795.5" x2="795.5" y1="384.5938" y2="406.5938"/><polygon fill="#181818" points="791.5,396.5938,795.5,406.5938,799.5,396.5938,795.5,400.5938" style="stroke:#181818;stroke-width:1.0;"/><line style="stroke:#181818;stroke-width:1.0;" x1="956.5" x2="969.5" y1="384.5938" y2="384.5938"/><line style="stroke:#181818;stroke-width:1.0;" x1="969.5" x2="969.5" y1="384.5938" y2="406.5938"/><polygon fill="#181818" points="965.5,396.5938,969.5,406.5938,973.5,396.5938,969.5,400.5938" style="stroke:#181818;stroke-width:1.0;"/><line style="stroke:#181818;stroke-width:1.0;" x1="691.25" x2="613.25" y1="350.5938" y2="350.5938"/><line style="stroke:#181818;stroke-width:1.0;" x1="613.25" x2="613.25" y1="350.5938" y2="372.5938"/><polygon fill="#181818" points="609.25,362.5938,613.25,372.5938,617.25,362.5938,613.25,366.5938" style="stroke:#181818;stroke-width:1.0;"/><line style="stroke:#181818;stroke-width:1.0;" x1="802.25" x2="882.5" y1="350.5938" y2="350.5938"/><line style="stroke:#181818;stroke-width:1.0;" x1="882.5" x2="882.5" y1="350.5938" y2="372.5938"/><polygon fill="#181818" points="878.5,362.5938,882.5,372.5938,886.5,362.5938,882.5,366.5938" style="stroke:#181818;stroke-width:1.0;"/><line style="stroke:#181818;stroke-width:1.0;" x1="1223" x2="1223" y1="456.5234" y2="491.5234"/><polygon fill="#181818" points="1219,481.5234,1223,491.5234,1227,481.5234,1223,485.5234" style="stroke:#181818;stroke-width:1.0;"/><line style="stroke:#181818;stroke-width:1.0;" x1="1357" x2="1357" y1="456.5234" y2="491.5234"/><polygon fill="#181818" points="1353,481.5234,1357,491.5234,1361,481.5234,1357,485.5234" style="stroke:#181818;stroke-width:1.0;"/><line style="stroke:#181818;stroke-width:1.0;" x1="1541" x2="1541" y1="472.1465" y2="507.1465"/><polygon fill="#181818" points="1537,497.1465,1541,507.1465,1545,497.1465,1541,501.1465" style="stroke:#181818;stroke-width:1.0;"/><line style="stroke:#181818;stroke-width:1.0;" x1="1541" x2="1541" y1="542.2402" y2="577.2402"/><polygon fill="#181818" points="1537,567.2402,1541,577.2402,1545,567.2402,1541,571.2402" style="stroke:#181818;stroke-width:1.0;"/><line style="stroke:#181818;stroke-width:1.0;" x1="1715" x2="1715" y1="472.1465" y2="507.1465"/><polygon fill="#181818" points="1711,497.1465,1715,507.1465,1719,497.1465,1715,501.1465" style="stroke:#181818;stroke-width:1.0;"/><line style="stroke:#181818;stroke-width:1.0;" x1="1554" x2="1541" y1="415.0527" y2="415.0527"/><line style="stroke:#181818;stroke-width:1.0;" x1="1541" x2="1541" y1="415.0527" y2="437.0527"/><polygon fill="#181818" points="1537,427.0527,1541,437.0527,1545,427.0527,1541,431.0527" style="stroke:#181818;stroke-width:1.0;"/><line style="stroke:#181818;stroke-width:1.0;" x1="1702" x2="1715" y1="415.0527" y2="415.0527"/><line style="stroke:#181818;stroke-width:1.0;" x1="1715" x2="1715" y1="415.0527" y2="437.0527"/><polygon fill="#181818" points="1711,427.0527,1715,437.0527,1719,427.0527,1715,431.0527" style="stroke:#181818;stroke-width:1.0;"/><line style="stroke:#181818;stroke-width:1.0;" x1="1223" x2="1223" y1="387.5938" y2="421.4297"/><polygon fill="#181818" points="1219,411.4297,1223,421.4297,1227,411.4297,1223,415.4297" style="stroke:#181818;stroke-width:1.0;"/><line style="stroke:#181818;stroke-width:1.0;" x1="1357" x2="1357" y1="387.5938" y2="421.4297"/><polygon fill="#181818" points="1353,411.4297,1357,421.4297,1361,411.4297,1357,415.4297" style="stroke:#181818;stroke-width:1.0;"/><line style="stroke:#181818;stroke-width:1.0;" x1="1281.5" x2="1311" y1="375.5938" y2="375.5938"/><polygon fill="#181818" points="1301,371.5938,1311,375.5938,1301,379.5938,1305,375.5938" style="stroke:#181818;stroke-width:1.0;"/><line style="stroke:#181818;stroke-width:1.0;" x1="1472.5" x2="1223" y1="338.5938" y2="338.5938"/><line style="stroke:#181818;stroke-width:1.0;" x1="1223" x2="1223" y1="338.5938" y2="363.5938"/><polygon fill="#181818" points="1219,353.5938,1223,363.5938,1227,353.5938,1223,357.5938" style="stroke:#181818;stroke-width:1.0;"/><line style="stroke:#181818;stroke-width:1.0;" x1="1403" x2="1628" y1="375.5938" y2="375.5938"/><line style="stroke:#181818;stroke-width:1.0;" x1="1628" x2="1628" y1="375.5938" y2="403.0527"/><polygon fill="#181818" points="1624,393.0527,1628,403.0527,1632,393.0527,1628,397.0527" style="stroke:#181818;stroke-width:1.0;"/><line style="stroke:#181818;stroke-width:1.0;" x1="863" x2="226.5" y1="288.9219" y2="288.9219"/><line style="stroke:#181818;stroke-width:1.0;" x1="226.5" x2="226.5" y1="288.9219" y2="338.5938"/><polygon fill="#181818" points="222.5,328.5938,226.5,338.5938,230.5,328.5938,226.5,332.5938" style="stroke:#181818;stroke-width:1.0;"/><text fill="#000000" font-family="sans-serif" font-size="11" lengthAdjust="spacing" textLength="18" x="226.5" y="318.2588">$01</text><line style="stroke:#181818;stroke-width:1.0;" x1="950" x2="1472.5" y1="288.9219" y2="288.9219"/><line style="stroke:#181818;stroke-width:1.0;" x1="1472.5" x2="1472.5" y1="288.9219" y2="338.5938"/><text fill="#000000" font-family="sans-serif" font-size="11" lengthAdjust="spacing" textLength="18" x="1472.5" y="318.2588">$4F</text><line style="stroke:#181818;stroke-width:1.0;" x1="529.25" x2="529.25" y1="288.9219" y2="338.5938"/><polygon fill="#181818" points="525.25,328.5938,529.25,338.5938,533.25,328.5938,529.25,332.5938" style="stroke:#181818;stroke-width:1.0;"/><text fill="#000000" font-family="sans-serif" font-size="11" lengthAdjust="spacing" textLength="18" x="529.25" y="313.2588">$02</text><line style="stroke:#181818;stroke-width:1.0;" x1="746.75" x2="746.75" y1="288.9219" y2="338.5938"/><polygon fill="#181818" points="742.75,328.5938,746.75,338.5938,750.75,328.5938,746.75,332.5938" style="stroke:#181818;stroke-width:1.0;"/><text fill="#000000" font-family="sans-serif" font-size="11" lengthAdjust="spacing" textLength="18" x="746.75" y="313.2588">$03</text><line style="stroke:#181818;stroke-width:1.0;" x1="1049.5" x2="1049.5" y1="288.9219" y2="338.5938"/><polygon fill="#181818" points="1045.5,328.5938,1049.5,338.5938,1053.5,328.5938,1049.5,332.5938" style="stroke:#181818;stroke-width:1.0;"/><text fill="#000000" font-family="sans-serif" font-size="11" lengthAdjust="spacing" textLength="19" x="1049.5" y="313.2588">$4C</text><line style="stroke:#181818;stroke-width:1.0;" x1="1093" x2="1093" y1="288.9219" y2="338.5938"/><polygon fill="#181818" points="1089,328.5938,1093,338.5938,1097,328.5938,1093,332.5938" style="stroke:#181818;stroke-width:1.0;"/><text fill="#000000" font-family="sans-serif" font-size="11" lengthAdjust="spacing" textLength="19" x="1093" y="313.2588">$4D</text><line style="stroke:#181818;stroke-width:1.0;" x1="1136.5" x2="1136.5" y1="288.9219" y2="338.5938"/><polygon fill="#181818" points="1132.5,328.5938,1136.5,338.5938,1140.5,328.5938,1136.5,332.5938" style="stroke:#181818;stroke-width:1.0;"/><text fill="#000000" font-family="sans-serif" font-size="11" lengthAdjust="spacing" textLength="18" x="1136.5" y="313.2588">$4E</text><line style="stroke:#181818;stroke-width:1.0;" x1="529.25" x2="529.25" y1="373.6875" y2="621.2402"/><line style="stroke:#181818;stroke-width:1.0;" x1="529.25" x2="894.5" y1="621.2402" y2="621.2402"/><polygon fill="#181818" points="884.5,617.2402,894.5,621.2402,884.5,625.2402,888.5,621.2402" style="stroke:#181818;stroke-width:1.0;"/><line style="stroke:#181818;stroke-width:1.0;" x1="1136.5" x2="1136.5" y1="373.6875" y2="621.2402"/><line style="stroke:#181818;stroke-width:1.0;" x1="1136.5" x2="918.5" y1="621.2402" y2="621.2402"/><polygon fill="#181818" points="928.5,617.2402,918.5,621.2402,928.5,625.2402,924.5,621.2402" style="stroke:#181818;stroke-width:1.0;"/><line style="stroke:#181818;stroke-width:1.0;" x1="1049.5" x2="1049.5" y1="373.6875" y2="621.2402"/><polygon fill="#181818" points="1045.5,611.2402,1049.5,621.2402,1053.5,611.2402,1049.5,615.2402" style="stroke:#181818;stroke-width:1.0;"/><line style="stroke:#181818;stroke-width:1.0;" x1="1093" x2="1093" y1="373.6875" y2="621.2402"/><polygon fill="#181818" points="1089,611.2402,1093,621.2402,1097,611.2402,1093,615.2402" style="stroke:#181818;stroke-width:1.0;"/><line style="stroke:#181818;stroke-width:1.0;" x1="1899" x2="1899" y1="274.4063" y2="309.4063"/><polygon fill="#181818" points="1895,299.4063,1899,309.4063,1903,299.4063,1899,303.4063" style="stroke:#181818;stroke-width:1.0;"/><line style="stroke:#181818;stroke-width:1.0;" x1="1292.25" x2="906.5" y1="217.3125" y2="217.3125"/><line style="stroke:#181818;stroke-width:1.0;" x1="906.5" x2="906.5" y1="217.3125" y2="276.9219"/><polygon fill="#181818" points="902.5,266.9219,906.5,276.9219,910.5,266.9219,906.5,270.9219" style="stroke:#181818;stroke-width:1.0;"/><line style="stroke:#181818;stroke-width:1.0;" x1="1453.25" x2="1899" y1="217.3125" y2="217.3125"/><line style="stroke:#181818;stroke-width:1.0;" x1="1899" x2="1899" y1="217.3125" y2="239.3125"/><polygon fill="#181818" points="1895,229.3125,1899,239.3125,1903,229.3125,1899,233.3125" style="stroke:#181818;stroke-width:1.0;"/><line style="stroke:#181818;stroke-width:1.0;" x1="906.5" x2="906.5" y1="633.2402" y2="650.2402"/><line style="stroke:#181818;stroke-width:1.0;" x1="906.5" x2="1739.375" y1="650.2402" y2="650.2402"/><line style="stroke:#181818;stroke-width:1.0;" x1="1739.375" x2="1739.375" y1="650.2402" y2="677.2402"/><polygon fill="#181818" points="1735.375,667.2402,1739.375,677.2402,1743.375,667.2402,1739.375,671.2402" style="stroke:#181818;stroke-width:1.0;"/><line style="stroke:#181818;stroke-width:1.0;" x1="2086" x2="2086" y1="240.4063" y2="275.4063"/><polygon fill="#181818" points="2082,265.4063,2086,275.4063,2090,265.4063,2086,269.4063" style="stroke:#181818;stroke-width:1.0;"/><line style="stroke:#181818;stroke-width:1.0;" x1="1666.375" x2="1372.75" y1="183.3125" y2="183.3125"/><line style="stroke:#181818;stroke-width:1.0;" x1="1372.75" x2="1372.75" y1="183.3125" y2="205.3125"/><polygon fill="#181818" points="1368.75,195.3125,1372.75,205.3125,1376.75,195.3125,1372.75,199.3125" style="stroke:#181818;stroke-width:1.0;"/><line style="stroke:#181818;stroke-width:1.0;" x1="1812.375" x2="2086" y1="183.3125" y2="183.3125"/><line style="stroke:#181818;stroke-width:1.0;" x1="2086" x2="2086" y1="183.3125" y2="205.3125"/><polygon fill="#181818" points="2082,195.3125,2086,205.3125,2090,195.3125,2086,199.3125" style="stroke:#181818;stroke-width:1.0;"/><line style="stroke:#181818;stroke-width:1.0;" x1="1739.375" x2="1739.375" y1="151.3125" y2="171.3125"/><polygon fill="#181818" points="1735.375,161.3125,1739.375,171.3125,1743.375,161.3125,1739.375,165.3125" style="stroke:#181818;stroke-width:1.0;"/><line style="stroke:#181818;stroke-width:1.0;" x1="1739.375" x2="1739.375" y1="68.6094" y2="116.2188"/><polygon fill="#181818" points="1735.375,106.2188,1739.375,116.2188,1743.375,106.2188,1739.375,110.2188" style="stroke:#181818;stroke-width:1.0;"/><!--SRC=[xLPDInj16BxlhvZI77OlmMG31TCW69CYj3qO-mEswvjawBA9cLdB8aApqqCl8hG5yL2ejA0KqPEWAER7l2sD_yAPc9WksMPNaqCfcTF0l1_FyxpF3CCfTu1KbfTIcJcDSQl5DI9NKsuefmstVqGUFwUrEbzqFDZi1SnNeBL1RI3g4CKF34umECJW7CK751Sezb483EJc4eCp33x-sjdzsTdFzvBLebMYE-3gAx3k0UClW36h1iRJh64GNWUNw6x387VXWvGrQjNS1kFKhiWC2N3LRm9ne6OvWpmVc17A2nEows2_aLqN_Nw5FhTdBSlV7CbJYxsbtAxhp7jTzLnR5Lam8WFLiYq6Uceky_U8MofwgVYA3124y4lUOtDxyhzSAHPIJqfIs6xdy_MxTZusXV56SsmGE19vf7WHw2D6zwWGcbribHwFFrKe4AbRFbcUZ9JSVv- -ntQdUoKzzWdRNr5yKMOJHyg7oPL9fCxz51hEA6CEaP0fGd7NQ5MBZI1nFisEvpAVJgVpSJNCcTSVv7KpiTVDcTSdztgkEBdNSqjJg56QGeto_U_SmhzmwIIm2jXUYtA_U_3jUk_x0r2Pvl_s5EJAIP-2N7ds54po5CZZs-_SICIMDi8vQfoAdXfP9eljOnJR61p5AZz2BKn3zOhujjvrCfDr2dKPTjZIrC4D]--></g></svg>