<?xml version="1.0" encoding="us-ascii" standalone="no"?><svg xmlns="http://www.w3.org/2000/svg" xmlns:xlink="http://www.w3.org/1999/xlink" contentStyleType="text/css" height="739px" preserveAspectRatio="none" style="width:1465px;height:739px;background:#FFFFFF;" version="1.1" viewBox="0 0 1465 739" width="1465px" zoomAndPan="magnify"><defs/><g><text fill="#000000" font-family="sans-serif" font-size="14" font-weight="bold" lengthAdjust="spacing" textLength="47" x="707.5" y="34.5332">SID$19</text><ellipse cx="1215.75" cy="58.6094" fill="#222222" rx="10" ry="10" style="stroke:#222222;stroke-width:1.0;"/><rect fill="#ADD8E6" height="608.0674" style="stroke:#000000;stroke-width:1.5;" width="1443" x="11" y="78.6094"/><path d="M67,78.6094 L67,89.2188 L57,99.2188 L11,99.2188 " fill="none" style="stroke:#000000;stroke-width:1.5;"/><text fill="#000000" font-family="sans-serif" font-size="14" lengthAdjust="spacing" textLength="46" x="14" y="94.1426">SID$19</text><rect fill="#F5F5F5" height="379.5391" style="stroke:#000000;stroke-width:1.5;" width="1387" x="23" y="207.1377"/><path d="M96,207.1377 L96,217.7471 L86,227.7471 L23,227.7471 " fill="none" style="stroke:#000000;stroke-width:1.5;"/><text fill="#000000" font-family="sans-serif" font-size="14" lengthAdjust="spacing" textLength="63" x="26" y="222.6709">checkReq</text><polygon fill="#F1F1F1" points="1113.75,244.7471,1317.75,244.7471,1329.75,256.7471,1317.75,268.7471,1113.75,268.7471,1101.75,256.7471,1113.75,244.7471" style="stroke:#181818;stroke-width:0.5;"/><text fill="#000000" font-family="sans-serif" font-size="11" lengthAdjust="spacing" textLength="204" x="1113.75" y="261.248">DiagnosticSession != programmingSession</text><text fill="#000000" font-family="sans-serif" font-size="11" lengthAdjust="spacing" textLength="18" x="1083.75" y="254.3301">yes</text><text fill="#000000" font-family="sans-serif" font-size="11" lengthAdjust="spacing" textLength="12" x="1329.75" y="254.3301">no</text><polygon fill="#F1F1F1" points="992,278.7471,1143,278.7471,1155,290.7471,1143,302.7471,992,302.7471,980,290.7471,992,278.7471" style="stroke:#181818;stroke-width:0.5;"/><text fill="#000000" font-family="sans-serif" font-size="11" lengthAdjust="spacing" textLength="151" x="992" y="295.248">len(RequestMessage) &gt;= 2byte</text><text fill="#000000" font-family="sans-serif" font-size="11" lengthAdjust="spacing" textLength="18" x="962" y="288.3301">yes</text><text fill="#000000" font-family="sans-serif" font-size="11" lengthAdjust="spacing" textLength="12" x="1155" y="288.3301">no</text><polygon fill="#F1F1F1" points="820.5,312.7471,917.5,312.7471,929.5,324.7471,917.5,336.7471,820.5,336.7471,808.5,324.7471,820.5,312.7471" style="stroke:#181818;stroke-width:0.5;"/><text fill="#000000" font-family="sans-serif" font-size="11" lengthAdjust="spacing" textLength="97" x="820.5" y="329.248">sub-function &#12398;&#26908;&#26619;</text><text fill="#000000" font-family="sans-serif" font-size="11" lengthAdjust="spacing" textLength="18" x="790.5" y="322.3301">yes</text><text fill="#000000" font-family="sans-serif" font-size="11" lengthAdjust="spacing" textLength="12" x="929.5" y="322.3301">no</text><polygon fill="#F1F1F1" points="58,371.7471,330,371.7471,342,383.7471,330,395.7471,58,395.7471,46,383.7471,58,371.7471" style="stroke:#181818;stroke-width:0.5;"/><text fill="#000000" font-family="sans-serif" font-size="11" lengthAdjust="spacing" textLength="18" x="198" y="407.166">yes</text><text fill="#000000" font-family="sans-serif" font-size="11" lengthAdjust="spacing" textLength="272" x="58" y="388.248">sub-function == $01 and len(RequestMessage) == 3byte</text><rect fill="#F1F1F1" height="35.0938" rx="12.5" ry="12.5" style="stroke:#181818;stroke-width:0.5;" width="280" x="54" y="429.583"/><text fill="#000000" font-family="sans-serif" font-size="12" lengthAdjust="spacing" textLength="260" x="64" y="452.04">59 01 DTCStatusAvailabilityMask 00  DTCCount</text><polygon fill="#F1F1F1" points="382,371.7471,654,371.7471,666,383.7471,654,395.7471,382,395.7471,370,383.7471,382,371.7471" style="stroke:#181818;stroke-width:0.5;"/><text fill="#000000" font-family="sans-serif" font-size="11" lengthAdjust="spacing" textLength="18" x="522" y="407.166">yes</text><text fill="#000000" font-family="sans-serif" font-size="11" lengthAdjust="spacing" textLength="272" x="382" y="388.248">sub-function == $02 and len(RequestMessage) == 3byte</text><rect fill="#F1F1F1" height="35.0938" rx="12.5" ry="12.5" style="stroke:#181818;stroke-width:0.5;" width="332" x="352" y="429.583"/><text fill="#000000" font-family="sans-serif" font-size="12" lengthAdjust="spacing" textLength="312" x="362" y="452.04">59 02 DTCStatusAvailabilityMask DTCAndStatusRecord...</text><polygon fill="#F1F1F1" points="719,371.7471,1001,371.7471,1013,383.7471,1001,395.7471,719,395.7471,707,383.7471,719,371.7471" style="stroke:#181818;stroke-width:0.5;"/><text fill="#000000" font-family="sans-serif" font-size="11" lengthAdjust="spacing" textLength="18" x="864" y="407.166">yes</text><text fill="#000000" font-family="sans-serif" font-size="11" lengthAdjust="spacing" textLength="282" x="719" y="388.248">(sub-function == $0A) and len(RequestMessage) == 2byte</text><text fill="#000000" font-family="sans-serif" font-size="11" lengthAdjust="spacing" textLength="12" x="1013" y="381.3301">no</text><rect fill="#F1F1F1" height="35.0938" rx="12.5" ry="12.5" style="stroke:#181818;stroke-width:0.5;" width="332" x="694" y="429.583"/><text fill="#000000" font-family="sans-serif" font-size="12" lengthAdjust="spacing" textLength="312" x="704" y="452.04">59 0A DTCStatusAvailabilityMask DTCAndStatusRecord...</text><rect fill="#F1F1F1" height="35.0938" rx="12.5" ry="12.5" style="stroke:#181818;stroke-width:0.5;" width="68" x="1046" y="425.665"/><text fill="#000000" font-family="sans-serif" font-size="12" lengthAdjust="spacing" textLength="48" x="1056" y="448.1221">7F 19 13</text><rect fill="#F1F1F1" height="35.0938" rx="12.5" ry="12.5" style="stroke:#181818;stroke-width:0.5;" width="68" x="1134" y="346.7471"/><text fill="#000000" font-family="sans-serif" font-size="12" lengthAdjust="spacing" textLength="48" x="1144" y="369.2041">7F 19 12</text><polygon fill="#F1F1F1" points="869,490.6768,881,502.6768,869,514.6768,857,502.6768,869,490.6768" style="stroke:#181818;stroke-width:0.5;"/><rect fill="#F1F1F1" height="35.0938" rx="12.5" ry="12.5" style="stroke:#181818;stroke-width:0.5;" width="68" x="1232" y="312.7471"/><text fill="#000000" font-family="sans-serif" font-size="12" lengthAdjust="spacing" textLength="48" x="1242" y="335.2041">7F 19 13</text><polygon fill="#F1F1F1" points="1067.5,520.6768,1079.5,532.6768,1067.5,544.6768,1055.5,532.6768,1067.5,520.6768" style="stroke:#181818;stroke-width:0.5;"/><rect fill="#F1F1F1" height="35.0938" rx="12.5" ry="12.5" style="stroke:#181818;stroke-width:0.5;" width="68" x="1330" y="278.7471"/><text fill="#000000" font-family="sans-serif" font-size="12" lengthAdjust="spacing" textLength="48" x="1340" y="301.2041">7F 19 7F</text><polygon fill="#F1F1F1" points="1215.75,550.6768,1227.75,562.6768,1215.75,574.6768,1203.75,562.6768,1215.75,550.6768" style="stroke:#181818;stroke-width:0.5;"/><polygon fill="#F1F1F1" points="1108.25,160.2188,1323.25,160.2188,1335.25,172.2188,1323.25,184.2188,1108.25,184.2188,1096.25,172.2188,1108.25,160.2188" style="stroke:#181818;stroke-width:0.5;"/><text fill="#000000" font-family="sans-serif" font-size="11" lengthAdjust="spacing" textLength="18" x="1219.75" y="195.6377">yes</text><text fill="#000000" font-family="sans-serif" font-size="11" lengthAdjust="spacing" textLength="215" x="1108.25" y="176.7197">Service $19 &#12522;&#12463;&#12456;&#12473;&#12488;&#12539;&#12513;&#12483;&#12475;&#12540;&#12472;&#12434;&#21463;&#20449;</text><text fill="#000000" font-family="sans-serif" font-size="11" lengthAdjust="spacing" textLength="12" x="1335.25" y="169.8018">no</text><polygon fill="#F1F1F1" points="1215.75,606.6768,1227.75,618.6768,1215.75,630.6768,1203.75,618.6768,1215.75,606.6768" style="stroke:#181818;stroke-width:0.5;"/><polygon fill="#F1F1F1" points="1215.75,116.2188,1227.75,128.2188,1215.75,140.2188,1203.75,128.2188,1215.75,116.2188" style="stroke:#181818;stroke-width:0.5;"/><polygon fill="#F1F1F1" points="1215.75,650.6768,1215.75,650.6768,1227.75,662.6768,1215.75,674.6768,1215.75,674.6768,1203.75,662.6768,1215.75,650.6768" style="stroke:#181818;stroke-width:0.5;"/><ellipse cx="1215.75" cy="717.6768" fill="none" rx="11" ry="11" style="stroke:#222222;stroke-width:1.0;"/><ellipse cx="1215.75" cy="717.6768" fill="#222222" rx="6" ry="6" style="stroke:#222222;stroke-width:1.0;"/><line style="stroke:#181818;stroke-width:1.0;" x1="194" x2="194" y1="395.7471" y2="429.583"/><polygon fill="#181818" points="190,419.583,194,429.583,198,419.583,194,423.583" style="stroke:#181818;stroke-width:1.0;"/><line style="stroke:#181818;stroke-width:1.0;" x1="194" x2="194" y1="464.6768" y2="484.6768"/><polygon fill="#181818" points="190,474.6768,194,484.6768,198,474.6768,194,478.6768" style="stroke:#181818;stroke-width:1.0;"/><line style="stroke:#181818;stroke-width:1.0;" x1="518" x2="518" y1="395.7471" y2="429.583"/><polygon fill="#181818" points="514,419.583,518,429.583,522,419.583,518,423.583" style="stroke:#181818;stroke-width:1.0;"/><line style="stroke:#181818;stroke-width:1.0;" x1="518" x2="518" y1="464.6768" y2="484.6768"/><polygon fill="#181818" points="514,474.6768,518,484.6768,522,474.6768,518,478.6768" style="stroke:#181818;stroke-width:1.0;"/><line style="stroke:#181818;stroke-width:1.0;" x1="860" x2="860" y1="395.7471" y2="429.583"/><polygon fill="#181818" points="856,419.583,860,429.583,864,419.583,860,423.583" style="stroke:#181818;stroke-width:1.0;"/><line style="stroke:#181818;stroke-width:1.0;" x1="860" x2="860" y1="464.6768" y2="484.6768"/><polygon fill="#181818" points="856,474.6768,860,484.6768,864,474.6768,860,478.6768" style="stroke:#181818;stroke-width:1.0;"/><line style="stroke:#181818;stroke-width:1.0;" x1="342" x2="370" y1="383.7471" y2="383.7471"/><polygon fill="#181818" points="360,379.7471,370,383.7471,360,387.7471,364,383.7471" style="stroke:#181818;stroke-width:1.0;"/><line style="stroke:#181818;stroke-width:1.0;" x1="666" x2="707" y1="383.7471" y2="383.7471"/><polygon fill="#181818" points="697,379.7471,707,383.7471,697,387.7471,701,383.7471" style="stroke:#181818;stroke-width:1.0;"/><line style="stroke:#181818;stroke-width:1.0;" x1="808.5" x2="194" y1="324.7471" y2="324.7471"/><line style="stroke:#181818;stroke-width:1.0;" x1="194" x2="194" y1="324.7471" y2="371.7471"/><polygon fill="#181818" points="190,361.7471,194,371.7471,198,361.7471,194,365.7471" style="stroke:#181818;stroke-width:1.0;"/><line style="stroke:#181818;stroke-width:1.0;" x1="1013" x2="1080" y1="383.7471" y2="383.7471"/><line style="stroke:#181818;stroke-width:1.0;" x1="1080" x2="1080" y1="383.7471" y2="425.665"/><polygon fill="#181818" points="1076,415.665,1080,425.665,1084,415.665,1080,419.665" style="stroke:#181818;stroke-width:1.0;"/><line style="stroke:#181818;stroke-width:1.0;" x1="1080" x2="1080" y1="460.7588" y2="484.6768"/><polygon fill="#181818" points="1076,474.6768,1080,484.6768,1084,474.6768,1080,478.6768" style="stroke:#181818;stroke-width:1.0;"/><line style="stroke:#181818;stroke-width:1.0;" x1="194" x2="1080" y1="484.6768" y2="484.6768"/><line style="stroke:#181818;stroke-width:1.0;" x1="929.5" x2="1168" y1="324.7471" y2="324.7471"/><line style="stroke:#181818;stroke-width:1.0;" x1="1168" x2="1168" y1="324.7471" y2="346.7471"/><polygon fill="#181818" points="1164,336.7471,1168,346.7471,1172,336.7471,1168,340.7471" style="stroke:#181818;stroke-width:1.0;"/><line style="stroke:#181818;stroke-width:1.0;" x1="580" x2="580" y1="484.6768" y2="502.6768"/><line style="stroke:#181818;stroke-width:1.0;" x1="580" x2="857" y1="502.6768" y2="502.6768"/><polygon fill="#181818" points="847,498.6768,857,502.6768,847,506.6768,851,502.6768" style="stroke:#181818;stroke-width:1.0;"/><line style="stroke:#181818;stroke-width:1.0;" x1="1168" x2="1168" y1="381.8408" y2="502.6768"/><line style="stroke:#181818;stroke-width:1.0;" x1="1168" x2="881" y1="502.6768" y2="502.6768"/><polygon fill="#181818" points="891,498.6768,881,502.6768,891,506.6768,887,502.6768" style="stroke:#181818;stroke-width:1.0;"/><line style="stroke:#181818;stroke-width:1.0;" x1="980" x2="869" y1="290.7471" y2="290.7471"/><line style="stroke:#181818;stroke-width:1.0;" x1="869" x2="869" y1="290.7471" y2="312.7471"/><polygon fill="#181818" points="865,302.7471,869,312.7471,873,302.7471,869,306.7471" style="stroke:#181818;stroke-width:1.0;"/><line style="stroke:#181818;stroke-width:1.0;" x1="1155" x2="1266" y1="290.7471" y2="290.7471"/><line style="stroke:#181818;stroke-width:1.0;" x1="1266" x2="1266" y1="290.7471" y2="312.7471"/><polygon fill="#181818" points="1262,302.7471,1266,312.7471,1270,302.7471,1266,306.7471" style="stroke:#181818;stroke-width:1.0;"/><line style="stroke:#181818;stroke-width:1.0;" x1="869" x2="869" y1="514.6768" y2="532.6768"/><line style="stroke:#181818;stroke-width:1.0;" x1="869" x2="1055.5" y1="532.6768" y2="532.6768"/><polygon fill="#181818" points="1045.5,528.6768,1055.5,532.6768,1045.5,536.6768,1049.5,532.6768" style="stroke:#181818;stroke-width:1.0;"/><line style="stroke:#181818;stroke-width:1.0;" x1="1266" x2="1266" y1="347.8408" y2="532.6768"/><line style="stroke:#181818;stroke-width:1.0;" x1="1266" x2="1079.5" y1="532.6768" y2="532.6768"/><polygon fill="#181818" points="1089.5,528.6768,1079.5,532.6768,1089.5,536.6768,1085.5,532.6768" style="stroke:#181818;stroke-width:1.0;"/><line style="stroke:#181818;stroke-width:1.0;" x1="1101.75" x2="1067.5" y1="256.7471" y2="256.7471"/><line style="stroke:#181818;stroke-width:1.0;" x1="1067.5" x2="1067.5" y1="256.7471" y2="278.7471"/><polygon fill="#181818" points="1063.5,268.7471,1067.5,278.7471,1071.5,268.7471,1067.5,272.7471" style="stroke:#181818;stroke-width:1.0;"/><line style="stroke:#181818;stroke-width:1.0;" x1="1329.75" x2="1364" y1="256.7471" y2="256.7471"/><line style="stroke:#181818;stroke-width:1.0;" x1="1364" x2="1364" y1="256.7471" y2="278.7471"/><polygon fill="#181818" points="1360,268.7471,1364,278.7471,1368,268.7471,1364,272.7471" style="stroke:#181818;stroke-width:1.0;"/><line style="stroke:#181818;stroke-width:1.0;" x1="1067.5" x2="1067.5" y1="544.6768" y2="562.6768"/><line style="stroke:#181818;stroke-width:1.0;" x1="1067.5" x2="1203.75" y1="562.6768" y2="562.6768"/><polygon fill="#181818" points="1193.75,558.6768,1203.75,562.6768,1193.75,566.6768,1197.75,562.6768" style="stroke:#181818;stroke-width:1.0;"/><line style="stroke:#181818;stroke-width:1.0;" x1="1364" x2="1364" y1="313.8408" y2="562.6768"/><line style="stroke:#181818;stroke-width:1.0;" x1="1364" x2="1227.75" y1="562.6768" y2="562.6768"/><polygon fill="#181818" points="1237.75,558.6768,1227.75,562.6768,1237.75,566.6768,1233.75,562.6768" style="stroke:#181818;stroke-width:1.0;"/><line style="stroke:#181818;stroke-width:1.0;" x1="1215.75" x2="1215.75" y1="184.2188" y2="244.7471"/><polygon fill="#181818" points="1211.75,234.7471,1215.75,244.7471,1219.75,234.7471,1215.75,238.7471" style="stroke:#181818;stroke-width:1.0;"/><line style="stroke:#181818;stroke-width:1.0;" x1="1335.25" x2="1420" y1="172.2188" y2="172.2188"/><polygon fill="#181818" points="1416,418.4072,1420,428.4072,1424,418.4072,1420,422.4072" style="stroke:#181818;stroke-width:1.0;"/><line style="stroke:#181818;stroke-width:1.0;" x1="1420" x2="1420" y1="172.2188" y2="618.6768"/><line style="stroke:#181818;stroke-width:1.0;" x1="1420" x2="1227.75" y1="618.6768" y2="618.6768"/><polygon fill="#181818" points="1237.75,614.6768,1227.75,618.6768,1237.75,622.6768,1233.75,618.6768" style="stroke:#181818;stroke-width:1.0;"/><line style="stroke:#181818;stroke-width:1.0;" x1="1215.75" x2="1215.75" y1="574.6768" y2="606.6768"/><polygon fill="#181818" points="1211.75,596.6768,1215.75,606.6768,1219.75,596.6768,1215.75,600.6768" style="stroke:#181818;stroke-width:1.0;"/><line style="stroke:#181818;stroke-width:1.0;" x1="1215.75" x2="1215.75" y1="140.2188" y2="160.2188"/><polygon fill="#181818" points="1211.75,150.2188,1215.75,160.2188,1219.75,150.2188,1215.75,154.2188" style="stroke:#181818;stroke-width:1.0;"/><line style="stroke:#181818;stroke-width:1.0;" x1="1227.75" x2="1438" y1="662.6768" y2="662.6768"/><polygon fill="#181818" points="1434,438.4072,1438,428.4072,1442,438.4072,1438,434.4072" style="stroke:#181818;stroke-width:1.0;"/><line style="stroke:#181818;stroke-width:1.0;" x1="1438" x2="1438" y1="128.2188" y2="662.6768"/><line style="stroke:#181818;stroke-width:1.0;" x1="1438" x2="1227.75" y1="128.2188" y2="128.2188"/><polygon fill="#181818" points="1237.75,124.2188,1227.75,128.2188,1237.75,132.2188,1233.75,128.2188" style="stroke:#181818;stroke-width:1.0;"/><line style="stroke:#181818;stroke-width:1.0;" x1="1215.75" x2="1215.75" y1="630.6768" y2="650.6768"/><polygon fill="#181818" points="1211.75,640.6768,1215.75,650.6768,1219.75,640.6768,1215.75,644.6768" style="stroke:#181818;stroke-width:1.0;"/><line style="stroke:#181818;stroke-width:1.0;" x1="1215.75" x2="1215.75" y1="68.6094" y2="116.2188"/><polygon fill="#181818" points="1211.75,106.2188,1215.75,116.2188,1219.75,106.2188,1215.75,110.2188" style="stroke:#181818;stroke-width:1.0;"/><line style="stroke:#181818;stroke-width:1.0;" x1="1215.75" x2="1215.75" y1="674.6768" y2="706.6768"/><polygon fill="#181818" points="1211.75,696.6768,1215.75,706.6768,1219.75,696.6768,1215.75,700.6768" style="stroke:#181818;stroke-width:1.0;"/><!--SRC=[hPHDIm916CVlVeedyh0U4bs9g30m9GZouWQTn_LnTt2TjPtPGi93kvTkGPSkGGGTeaDTYu8-p9IVerbNKrCtXEOqxF_b-St2ZA32GJ3sA-dyPeeBueaKgDLH6ogeouOIh1vGonQxZezd0uE77IInbpP1Cz0xeIP2P9NXemoUPV0WWrSPNiZmJOPtCWnbe3RlCdYHmTNNvVNdnrq6X8qCj2xoJ6hGDJdPjD5irV0OLeziAj1ekoqrV6YBnrOeiPZB1JKDv3mAhHIXuxcMHzfjogpXryavy5CmAd6GQMgCZrnKbPzOc86T8kZrhi0fGlYrQ5FZVdsjwJDp02pFd_htD_tRjyJKl6In2EbS7WXhm3mQ9HV-f1cjhVLDK5sLmx8XYF1vwOHGXzIfGqMtIdWBSZc8rBBhCx4zjmOTZj6VcMNK_v5HJs1KIearOh66fkirijbi4gms1xQKIQBLbwCjBKshaWk1DUOcpDlO0tMFyeK51sODsamjrJfgr6SRPziMDYtWccw8qZ0J7qOtziRHoLWlljRJsR4XVcpWrAOEQh7OKu-Ls_a6]--></g></svg>