<?xml version="1.0" encoding="us-ascii" standalone="no"?><svg xmlns="http://www.w3.org/2000/svg" xmlns:xlink="http://www.w3.org/1999/xlink" contentStyleType="text/css" height="764px" preserveAspectRatio="none" style="width:839px;height:764px;background:#FFFFFF;" version="1.1" viewBox="0 0 839 764" width="839px" zoomAndPan="magnify"><defs/><g><text fill="#000000" font-family="sans-serif" font-size="14" font-weight="bold" lengthAdjust="spacing" textLength="47" x="394.8125" y="34.5332">SID$28</text><ellipse cx="597.625" cy="58.6094" fill="#222222" rx="10" ry="10" style="stroke:#222222;stroke-width:1.0;"/><rect fill="#ADD8E6" height="633.2314" style="stroke:#000000;stroke-width:1.5;" width="817.625" x="11" y="78.6094"/><path d="M67,78.6094 L67,89.2188 L57,99.2188 L11,99.2188 " fill="none" style="stroke:#000000;stroke-width:1.5;"/><text fill="#000000" font-family="sans-serif" font-size="14" lengthAdjust="spacing" textLength="46" x="14" y="94.1426">SID$28</text><rect fill="#F5F5F5" height="404.7031" style="stroke:#000000;stroke-width:1.5;" width="761.625" x="23" y="207.1377"/><path d="M96,207.1377 L96,217.7471 L86,227.7471 L23,227.7471 " fill="none" style="stroke:#000000;stroke-width:1.5;"/><text fill="#000000" font-family="sans-serif" font-size="14" lengthAdjust="spacing" textLength="63" x="26" y="222.6709">checkReq</text><polygon fill="#F1F1F1" points="478.625,244.7471,716.625,244.7471,728.625,256.7471,716.625,268.7471,478.625,268.7471,466.625,256.7471,478.625,244.7471" style="stroke:#181818;stroke-width:0.5;"/><text fill="#000000" font-family="sans-serif" font-size="11" lengthAdjust="spacing" textLength="238" x="478.625" y="261.248">Session&#12364;0x10&#12289;0x02&#12289;0x4C&#12289;0x4D&#12289;0x4E&#20197;&#22806;</text><text fill="#000000" font-family="sans-serif" font-size="11" lengthAdjust="spacing" textLength="18" x="448.625" y="254.3301">yes</text><text fill="#000000" font-family="sans-serif" font-size="11" lengthAdjust="spacing" textLength="12" x="728.625" y="254.3301">no</text><polygon fill="#F1F1F1" points="381.125,278.7471,532.125,278.7471,544.125,290.7471,532.125,302.7471,381.125,302.7471,369.125,290.7471,381.125,278.7471" style="stroke:#181818;stroke-width:0.5;"/><text fill="#000000" font-family="sans-serif" font-size="11" lengthAdjust="spacing" textLength="151" x="381.125" y="295.248">len(RequestMessage) &gt;= 2byte</text><text fill="#000000" font-family="sans-serif" font-size="11" lengthAdjust="spacing" textLength="18" x="351.125" y="288.3301">yes</text><text fill="#000000" font-family="sans-serif" font-size="11" lengthAdjust="spacing" textLength="12" x="544.125" y="288.3301">no</text><polygon fill="#F1F1F1" points="309.25,312.7471,408.25,312.7471,420.25,324.7471,408.25,336.7471,309.25,336.7471,297.25,324.7471,309.25,312.7471" style="stroke:#181818;stroke-width:0.5;"/><text fill="#000000" font-family="sans-serif" font-size="11" lengthAdjust="spacing" textLength="99" x="309.25" y="329.248">controlType == 0x03</text><text fill="#000000" font-family="sans-serif" font-size="11" lengthAdjust="spacing" textLength="18" x="279.25" y="322.3301">yes</text><text fill="#000000" font-family="sans-serif" font-size="11" lengthAdjust="spacing" textLength="12" x="420.25" y="322.3301">no</text><polygon fill="#F1F1F1" points="185.5,346.7471,336.5,346.7471,348.5,358.7471,336.5,370.7471,185.5,370.7471,173.5,358.7471,185.5,346.7471" style="stroke:#181818;stroke-width:0.5;"/><text fill="#000000" font-family="sans-serif" font-size="11" lengthAdjust="spacing" textLength="151" x="185.5" y="363.248">len(RequestMessage) == 3byte</text><text fill="#000000" font-family="sans-serif" font-size="11" lengthAdjust="spacing" textLength="18" x="155.5" y="356.3301">yes</text><text fill="#000000" font-family="sans-serif" font-size="11" lengthAdjust="spacing" textLength="12" x="348.5" y="356.3301">no</text><polygon fill="#F1F1F1" points="95,380.7471,232,380.7471,244,392.7471,232,404.7471,95,404.7471,83,392.7471,95,380.7471" style="stroke:#181818;stroke-width:0.5;"/><text fill="#000000" font-family="sans-serif" font-size="11" lengthAdjust="spacing" textLength="137" x="95" y="397.248">communicationType == 0x03</text><text fill="#000000" font-family="sans-serif" font-size="11" lengthAdjust="spacing" textLength="18" x="65" y="390.3301">yes</text><text fill="#000000" font-family="sans-serif" font-size="11" lengthAdjust="spacing" textLength="12" x="244" y="390.3301">no</text><rect fill="#F1F1F1" height="35.0938" rx="12.5" ry="12.5" style="stroke:#181818;stroke-width:0.5;" width="54" x="46" y="414.7471"/><text fill="#000000" font-family="sans-serif" font-size="12" lengthAdjust="spacing" textLength="31" x="59" y="437.2041">68 03</text><rect fill="#F1F1F1" height="35.0938" rx="12.5" ry="12.5" style="stroke:#181818;stroke-width:0.5;" width="68" x="220" y="414.7471"/><text fill="#000000" font-family="sans-serif" font-size="12" lengthAdjust="spacing" textLength="48" x="230" y="437.2041">7F 28 31</text><polygon fill="#F1F1F1" points="163.5,455.8408,175.5,467.8408,163.5,479.8408,151.5,467.8408,163.5,455.8408" style="stroke:#181818;stroke-width:0.5;"/><rect fill="#F1F1F1" height="35.0938" rx="12.5" ry="12.5" style="stroke:#181818;stroke-width:0.5;" width="68" x="324.5" y="380.7471"/><text fill="#000000" font-family="sans-serif" font-size="12" lengthAdjust="spacing" textLength="48" x="334.5" y="403.2041">7F 28 13</text><polygon fill="#F1F1F1" points="261,485.8408,273,497.8408,261,509.8408,249,497.8408,261,485.8408" style="stroke:#181818;stroke-width:0.5;"/><rect fill="#F1F1F1" height="35.0938" rx="12.5" ry="12.5" style="stroke:#181818;stroke-width:0.5;" width="68" x="422.5" y="346.7471"/><text fill="#000000" font-family="sans-serif" font-size="12" lengthAdjust="spacing" textLength="48" x="432.5" y="369.2041">7F 28 12</text><polygon fill="#F1F1F1" points="358.75,515.8408,370.75,527.8408,358.75,539.8408,346.75,527.8408,358.75,515.8408" style="stroke:#181818;stroke-width:0.5;"/><rect fill="#F1F1F1" height="35.0938" rx="12.5" ry="12.5" style="stroke:#181818;stroke-width:0.5;" width="68" x="520.5" y="312.7471"/><text fill="#000000" font-family="sans-serif" font-size="12" lengthAdjust="spacing" textLength="48" x="530.5" y="335.2041">7F 28 13</text><polygon fill="#F1F1F1" points="456.625,545.8408,468.625,557.8408,456.625,569.8408,444.625,557.8408,456.625,545.8408" style="stroke:#181818;stroke-width:0.5;"/><rect fill="#F1F1F1" height="35.0938" rx="12.5" ry="12.5" style="stroke:#181818;stroke-width:0.5;" width="68" x="704.625" y="278.7471"/><text fill="#000000" font-family="sans-serif" font-size="12" lengthAdjust="spacing" textLength="48" x="714.625" y="301.2041">7F 28 7F</text><polygon fill="#F1F1F1" points="597.625,575.8408,609.625,587.8408,597.625,599.8408,585.625,587.8408,597.625,575.8408" style="stroke:#181818;stroke-width:0.5;"/><polygon fill="#F1F1F1" points="490.125,160.2188,705.125,160.2188,717.125,172.2188,705.125,184.2188,490.125,184.2188,478.125,172.2188,490.125,160.2188" style="stroke:#181818;stroke-width:0.5;"/><text fill="#000000" font-family="sans-serif" font-size="11" lengthAdjust="spacing" textLength="18" x="601.625" y="195.6377">yes</text><text fill="#000000" font-family="sans-serif" font-size="11" lengthAdjust="spacing" textLength="215" x="490.125" y="176.7197">Service $28 &#12522;&#12463;&#12456;&#12473;&#12488;&#12539;&#12513;&#12483;&#12475;&#12540;&#12472;&#12434;&#21463;&#20449;</text><text fill="#000000" font-family="sans-serif" font-size="11" lengthAdjust="spacing" textLength="12" x="717.125" y="169.8018">no</text><polygon fill="#F1F1F1" points="597.625,631.8408,609.625,643.8408,597.625,655.8408,585.625,643.8408,597.625,631.8408" style="stroke:#181818;stroke-width:0.5;"/><polygon fill="#F1F1F1" points="597.625,116.2188,609.625,128.2188,597.625,140.2188,585.625,128.2188,597.625,116.2188" style="stroke:#181818;stroke-width:0.5;"/><polygon fill="#F1F1F1" points="584.625,675.8408,610.625,675.8408,622.625,687.8408,610.625,699.8408,584.625,699.8408,572.625,687.8408,584.625,675.8408" style="stroke:#181818;stroke-width:0.5;"/><text fill="#000000" font-family="sans-serif" font-size="11" lengthAdjust="spacing" textLength="26" x="584.625" y="692.3418">TRUE</text><ellipse cx="597.625" cy="742.8408" fill="none" rx="11" ry="11" style="stroke:#222222;stroke-width:1.0;"/><ellipse cx="597.625" cy="742.8408" fill="#222222" rx="6" ry="6" style="stroke:#222222;stroke-width:1.0;"/><line style="stroke:#181818;stroke-width:1.0;" x1="83" x2="73" y1="392.7471" y2="392.7471"/><line style="stroke:#181818;stroke-width:1.0;" x1="73" x2="73" y1="392.7471" y2="414.7471"/><polygon fill="#181818" points="69,404.7471,73,414.7471,77,404.7471,73,408.7471" style="stroke:#181818;stroke-width:1.0;"/><line style="stroke:#181818;stroke-width:1.0;" x1="244" x2="254" y1="392.7471" y2="392.7471"/><line style="stroke:#181818;stroke-width:1.0;" x1="254" x2="254" y1="392.7471" y2="414.7471"/><polygon fill="#181818" points="250,404.7471,254,414.7471,258,404.7471,254,408.7471" style="stroke:#181818;stroke-width:1.0;"/><line style="stroke:#181818;stroke-width:1.0;" x1="73" x2="73" y1="449.8408" y2="467.8408"/><line style="stroke:#181818;stroke-width:1.0;" x1="73" x2="151.5" y1="467.8408" y2="467.8408"/><polygon fill="#181818" points="141.5,463.8408,151.5,467.8408,141.5,471.8408,145.5,467.8408" style="stroke:#181818;stroke-width:1.0;"/><line style="stroke:#181818;stroke-width:1.0;" x1="254" x2="254" y1="449.8408" y2="467.8408"/><line style="stroke:#181818;stroke-width:1.0;" x1="254" x2="175.5" y1="467.8408" y2="467.8408"/><polygon fill="#181818" points="185.5,463.8408,175.5,467.8408,185.5,471.8408,181.5,467.8408" style="stroke:#181818;stroke-width:1.0;"/><line style="stroke:#181818;stroke-width:1.0;" x1="173.5" x2="163.5" y1="358.7471" y2="358.7471"/><line style="stroke:#181818;stroke-width:1.0;" x1="163.5" x2="163.5" y1="358.7471" y2="380.7471"/><polygon fill="#181818" points="159.5,370.7471,163.5,380.7471,167.5,370.7471,163.5,374.7471" style="stroke:#181818;stroke-width:1.0;"/><line style="stroke:#181818;stroke-width:1.0;" x1="348.5" x2="358.5" y1="358.7471" y2="358.7471"/><line style="stroke:#181818;stroke-width:1.0;" x1="358.5" x2="358.5" y1="358.7471" y2="380.7471"/><polygon fill="#181818" points="354.5,370.7471,358.5,380.7471,362.5,370.7471,358.5,374.7471" style="stroke:#181818;stroke-width:1.0;"/><line style="stroke:#181818;stroke-width:1.0;" x1="163.5" x2="163.5" y1="479.8408" y2="497.8408"/><line style="stroke:#181818;stroke-width:1.0;" x1="163.5" x2="249" y1="497.8408" y2="497.8408"/><polygon fill="#181818" points="239,493.8408,249,497.8408,239,501.8408,243,497.8408" style="stroke:#181818;stroke-width:1.0;"/><line style="stroke:#181818;stroke-width:1.0;" x1="358.5" x2="358.5" y1="415.8408" y2="497.8408"/><line style="stroke:#181818;stroke-width:1.0;" x1="358.5" x2="273" y1="497.8408" y2="497.8408"/><polygon fill="#181818" points="283,493.8408,273,497.8408,283,501.8408,279,497.8408" style="stroke:#181818;stroke-width:1.0;"/><line style="stroke:#181818;stroke-width:1.0;" x1="297.25" x2="261" y1="324.7471" y2="324.7471"/><line style="stroke:#181818;stroke-width:1.0;" x1="261" x2="261" y1="324.7471" y2="346.7471"/><polygon fill="#181818" points="257,336.7471,261,346.7471,265,336.7471,261,340.7471" style="stroke:#181818;stroke-width:1.0;"/><line style="stroke:#181818;stroke-width:1.0;" x1="420.25" x2="456.5" y1="324.7471" y2="324.7471"/><line style="stroke:#181818;stroke-width:1.0;" x1="456.5" x2="456.5" y1="324.7471" y2="346.7471"/><polygon fill="#181818" points="452.5,336.7471,456.5,346.7471,460.5,336.7471,456.5,340.7471" style="stroke:#181818;stroke-width:1.0;"/><line style="stroke:#181818;stroke-width:1.0;" x1="261" x2="261" y1="509.8408" y2="527.8408"/><line style="stroke:#181818;stroke-width:1.0;" x1="261" x2="346.75" y1="527.8408" y2="527.8408"/><polygon fill="#181818" points="336.75,523.8408,346.75,527.8408,336.75,531.8408,340.75,527.8408" style="stroke:#181818;stroke-width:1.0;"/><line style="stroke:#181818;stroke-width:1.0;" x1="456.5" x2="456.5" y1="381.8408" y2="527.8408"/><line style="stroke:#181818;stroke-width:1.0;" x1="456.5" x2="370.75" y1="527.8408" y2="527.8408"/><polygon fill="#181818" points="380.75,523.8408,370.75,527.8408,380.75,531.8408,376.75,527.8408" style="stroke:#181818;stroke-width:1.0;"/><line style="stroke:#181818;stroke-width:1.0;" x1="369.125" x2="358.75" y1="290.7471" y2="290.7471"/><line style="stroke:#181818;stroke-width:1.0;" x1="358.75" x2="358.75" y1="290.7471" y2="312.7471"/><polygon fill="#181818" points="354.75,302.7471,358.75,312.7471,362.75,302.7471,358.75,306.7471" style="stroke:#181818;stroke-width:1.0;"/><line style="stroke:#181818;stroke-width:1.0;" x1="544.125" x2="554.5" y1="290.7471" y2="290.7471"/><line style="stroke:#181818;stroke-width:1.0;" x1="554.5" x2="554.5" y1="290.7471" y2="312.7471"/><polygon fill="#181818" points="550.5,302.7471,554.5,312.7471,558.5,302.7471,554.5,306.7471" style="stroke:#181818;stroke-width:1.0;"/><line style="stroke:#181818;stroke-width:1.0;" x1="358.75" x2="358.75" y1="539.8408" y2="557.8408"/><line style="stroke:#181818;stroke-width:1.0;" x1="358.75" x2="444.625" y1="557.8408" y2="557.8408"/><polygon fill="#181818" points="434.625,553.8408,444.625,557.8408,434.625,561.8408,438.625,557.8408" style="stroke:#181818;stroke-width:1.0;"/><line style="stroke:#181818;stroke-width:1.0;" x1="554.5" x2="554.5" y1="347.8408" y2="557.8408"/><line style="stroke:#181818;stroke-width:1.0;" x1="554.5" x2="468.625" y1="557.8408" y2="557.8408"/><polygon fill="#181818" points="478.625,553.8408,468.625,557.8408,478.625,561.8408,474.625,557.8408" style="stroke:#181818;stroke-width:1.0;"/><line style="stroke:#181818;stroke-width:1.0;" x1="466.625" x2="456.625" y1="256.7471" y2="256.7471"/><line style="stroke:#181818;stroke-width:1.0;" x1="456.625" x2="456.625" y1="256.7471" y2="278.7471"/><polygon fill="#181818" points="452.625,268.7471,456.625,278.7471,460.625,268.7471,456.625,272.7471" style="stroke:#181818;stroke-width:1.0;"/><line style="stroke:#181818;stroke-width:1.0;" x1="728.625" x2="738.625" y1="256.7471" y2="256.7471"/><line style="stroke:#181818;stroke-width:1.0;" x1="738.625" x2="738.625" y1="256.7471" y2="278.7471"/><polygon fill="#181818" points="734.625,268.7471,738.625,278.7471,742.625,268.7471,738.625,272.7471" style="stroke:#181818;stroke-width:1.0;"/><line style="stroke:#181818;stroke-width:1.0;" x1="456.625" x2="456.625" y1="569.8408" y2="587.8408"/><line style="stroke:#181818;stroke-width:1.0;" x1="456.625" x2="585.625" y1="587.8408" y2="587.8408"/><polygon fill="#181818" points="575.625,583.8408,585.625,587.8408,575.625,591.8408,579.625,587.8408" style="stroke:#181818;stroke-width:1.0;"/><line style="stroke:#181818;stroke-width:1.0;" x1="738.625" x2="738.625" y1="313.8408" y2="587.8408"/><line style="stroke:#181818;stroke-width:1.0;" x1="738.625" x2="609.625" y1="587.8408" y2="587.8408"/><polygon fill="#181818" points="619.625,583.8408,609.625,587.8408,619.625,591.8408,615.625,587.8408" style="stroke:#181818;stroke-width:1.0;"/><line style="stroke:#181818;stroke-width:1.0;" x1="597.625" x2="597.625" y1="184.2188" y2="244.7471"/><polygon fill="#181818" points="593.625,234.7471,597.625,244.7471,601.625,234.7471,597.625,238.7471" style="stroke:#181818;stroke-width:1.0;"/><line style="stroke:#181818;stroke-width:1.0;" x1="717.125" x2="794.625" y1="172.2188" y2="172.2188"/><polygon fill="#181818" points="790.625,403.4893,794.625,413.4893,798.625,403.4893,794.625,407.4893" style="stroke:#181818;stroke-width:1.0;"/><line style="stroke:#181818;stroke-width:1.0;" x1="794.625" x2="794.625" y1="172.2188" y2="643.8408"/><line style="stroke:#181818;stroke-width:1.0;" x1="794.625" x2="609.625" y1="643.8408" y2="643.8408"/><polygon fill="#181818" points="619.625,639.8408,609.625,643.8408,619.625,647.8408,615.625,643.8408" style="stroke:#181818;stroke-width:1.0;"/><line style="stroke:#181818;stroke-width:1.0;" x1="597.625" x2="597.625" y1="599.8408" y2="631.8408"/><polygon fill="#181818" points="593.625,621.8408,597.625,631.8408,601.625,621.8408,597.625,625.8408" style="stroke:#181818;stroke-width:1.0;"/><line style="stroke:#181818;stroke-width:1.0;" x1="597.625" x2="597.625" y1="140.2188" y2="160.2188"/><polygon fill="#181818" points="593.625,150.2188,597.625,160.2188,601.625,150.2188,597.625,154.2188" style="stroke:#181818;stroke-width:1.0;"/><line style="stroke:#181818;stroke-width:1.0;" x1="622.625" x2="812.625" y1="687.8408" y2="687.8408"/><polygon fill="#181818" points="808.625,423.4893,812.625,413.4893,816.625,423.4893,812.625,419.4893" style="stroke:#181818;stroke-width:1.0;"/><line style="stroke:#181818;stroke-width:1.0;" x1="812.625" x2="812.625" y1="128.2188" y2="687.8408"/><line style="stroke:#181818;stroke-width:1.0;" x1="812.625" x2="609.625" y1="128.2188" y2="128.2188"/><polygon fill="#181818" points="619.625,124.2188,609.625,128.2188,619.625,132.2188,615.625,128.2188" style="stroke:#181818;stroke-width:1.0;"/><line style="stroke:#181818;stroke-width:1.0;" x1="597.625" x2="597.625" y1="655.8408" y2="675.8408"/><polygon fill="#181818" points="593.625,665.8408,597.625,675.8408,601.625,665.8408,597.625,669.8408" style="stroke:#181818;stroke-width:1.0;"/><line style="stroke:#181818;stroke-width:1.0;" x1="597.625" x2="597.625" y1="68.6094" y2="116.2188"/><polygon fill="#181818" points="593.625,106.2188,597.625,116.2188,601.625,106.2188,597.625,110.2188" style="stroke:#181818;stroke-width:1.0;"/><line style="stroke:#181818;stroke-width:1.0;" x1="597.625" x2="597.625" y1="699.8408" y2="731.8408"/><polygon fill="#181818" points="593.625,721.8408,597.625,731.8408,601.625,721.8408,597.625,725.8408" style="stroke:#181818;stroke-width:1.0;"/><!--SRC=[dPF1IiD048RlUOg1UaXlQIAsAFMWRK7GIrln7EEqMPecCTbgYnHiSl4W21xqN50GBrwL2ZxCjk_XfabfOfEApcKMzl-_VpPXAA46GkEWiY6N19Ug3XM0byqFX1BBZAuWTqZQEjqpUdWr5pXeenfgIGl41ZeNH4C8fCn_PTuRyrwOzy7y6-PFc3zcliyyVlXatZlpxcTtZzElSHweZYQ80tJpmfmLJzPqr3frF8VSYKueDhfM9meFKtcewt8X6zrA_OB4haTINvBdRNC_R9MmLQUJvzdJGo8EOXMym41Jv64zTEaHvwfjpCDk6UJJ0SMu4HBEXLkpJEfOHdDW8vJBm0THCjDYBqWBvNRbPsYgFs9eLhVRCucc1X_jJmCiQXksIY0fEvaYD5mKJUiNIh46_EyhXJKSyuoqX7ybHFH2nfJfvBNK1L5U9QxI0XAaeZ86Io9I1ucSnThIcNGDmvrOPWj9JRY3SAaJ0yLc_RWQyeTyZotx6m00]--></g></svg>