<?xml version="1.0" encoding="us-ascii" standalone="no"?><svg xmlns="http://www.w3.org/2000/svg" xmlns:xlink="http://www.w3.org/1999/xlink" contentStyleType="text/css" height="607px" preserveAspectRatio="none" style="width:1771px;height:607px;background:#FFFFFF;" version="1.1" viewBox="0 0 1771 607" width="1771px" zoomAndPan="magnify"><defs/><g><text fill="#000000" font-family="sans-serif" font-size="14" font-weight="bold" lengthAdjust="spacing" textLength="47" x="860.9844" y="34.5332">SID$31</text><ellipse cx="1539.2188" cy="58.6094" fill="#222222" rx="10" ry="10" style="stroke:#222222;stroke-width:1.0;"/><rect fill="#F1F1F1" height="35.0938" rx="12.5" ry="12.5" style="stroke:#181818;stroke-width:0.5;" width="121" x="1478.7188" y="88.6094"/><text fill="#000000" font-family="sans-serif" font-size="12" lengthAdjust="spacing" textLength="101" x="1488.7188" y="111.0664">SID$31&#12434;&#21463;&#20449;&#12375;&#12383;</text><polygon fill="#F1F1F1" points="1434.2188,143.7031,1644.2188,143.7031,1656.2188,155.7031,1644.2188,167.7031,1434.2188,167.7031,1422.2188,155.7031,1434.2188,143.7031" style="stroke:#181818;stroke-width:0.5;"/><text fill="#000000" font-family="sans-serif" font-size="11" lengthAdjust="spacing" textLength="210" x="1434.2188" y="160.2041">&#12522;&#12463;&#12456;&#12473;&#12488;&#65381;&#12513;&#12483;&#12475;&#12540;&#12472;&#38263;&#12373;&#12364;4&#12496;&#12452;&#12488;&#20197;&#19978;</text><text fill="#000000" font-family="sans-serif" font-size="11" lengthAdjust="spacing" textLength="18" x="1404.2188" y="153.2861">yes</text><text fill="#000000" font-family="sans-serif" font-size="11" lengthAdjust="spacing" textLength="12" x="1656.2188" y="153.2861">no</text><polygon fill="#F1F1F1" points="1205.9688,177.7031,1540.9688,177.7031,1552.9688,189.7031,1540.9688,201.7031,1205.9688,201.7031,1193.9688,189.7031,1205.9688,177.7031" style="stroke:#181818;stroke-width:0.5;"/><text fill="#000000" font-family="sans-serif" font-size="11" lengthAdjust="spacing" textLength="335" x="1205.9688" y="194.2041">RID&#12364;&#12469;&#12509;&#12540;&#12488;&#12373;&#12428;&#12427;&#12288;&#12363;&#12388;&#12288;RID&#12364;&#29694;&#22312;&#12398;Session&#12391;&#12399;&#12469;&#12509;&#12540;&#12488;&#12377;&#12427;</text><text fill="#000000" font-family="sans-serif" font-size="11" lengthAdjust="spacing" textLength="18" x="1175.9688" y="187.2861">yes</text><text fill="#000000" font-family="sans-serif" font-size="11" lengthAdjust="spacing" textLength="12" x="1552.9688" y="187.2861">no</text><polygon fill="#F1F1F1" points="1123.4688,211.7031,1244.4688,211.7031,1256.4688,223.7031,1244.4688,235.7031,1123.4688,235.7031,1111.4688,223.7031,1123.4688,211.7031" style="stroke:#181818;stroke-width:0.5;"/><text fill="#000000" font-family="sans-serif" font-size="11" lengthAdjust="spacing" textLength="121" x="1123.4688" y="228.2041">&#12475;&#12461;&#12517;&#12522;&#12486;&#12451;&#35299;&#38500;&#12398;&#26908;&#26619;</text><text fill="#000000" font-family="sans-serif" font-size="11" lengthAdjust="spacing" textLength="18" x="1093.4688" y="221.2861">yes</text><text fill="#000000" font-family="sans-serif" font-size="11" lengthAdjust="spacing" textLength="12" x="1256.4688" y="221.2861">no</text><polygon fill="#F1F1F1" points="946.8125,245.7031,1130.8125,245.7031,1142.8125,257.7031,1130.8125,269.7031,946.8125,269.7031,934.8125,257.7031,946.8125,245.7031" style="stroke:#181818;stroke-width:0.5;"/><text fill="#000000" font-family="sans-serif" font-size="11" lengthAdjust="spacing" textLength="184" x="946.8125" y="262.2041">routineControlType&#12364;RID&#12395;&#35215;&#23450;&#12373;&#12428;&#12427;</text><text fill="#000000" font-family="sans-serif" font-size="11" lengthAdjust="spacing" textLength="18" x="916.8125" y="255.2861">yes</text><text fill="#000000" font-family="sans-serif" font-size="11" lengthAdjust="spacing" textLength="12" x="1142.8125" y="255.2861">no</text><polygon fill="#F1F1F1" points="802.5,279.7031,978.5,279.7031,990.5,291.7031,978.5,303.7031,802.5,303.7031,790.5,291.7031,802.5,279.7031" style="stroke:#181818;stroke-width:0.5;"/><text fill="#000000" font-family="sans-serif" font-size="11" lengthAdjust="spacing" textLength="176" x="802.5" y="296.2041">&#12522;&#12463;&#12456;&#12473;&#12488;&#12539;&#12513;&#12483;&#12475;&#12540;&#12472;&#38263;&#12373;&#12398;&#26908;&#26619;</text><text fill="#000000" font-family="sans-serif" font-size="11" lengthAdjust="spacing" textLength="18" x="772.5" y="289.2861">yes</text><text fill="#000000" font-family="sans-serif" font-size="11" lengthAdjust="spacing" textLength="12" x="990.5" y="289.2861">no</text><polygon fill="#F1F1F1" points="652.875,313.7031,818.875,313.7031,830.875,325.7031,818.875,337.7031,652.875,337.7031,640.875,325.7031,652.875,313.7031" style="stroke:#181818;stroke-width:0.5;"/><text fill="#000000" font-family="sans-serif" font-size="11" lengthAdjust="spacing" textLength="166" x="652.875" y="330.2041">routineControlOptionRecord&#12398;&#26908;&#26619;</text><text fill="#000000" font-family="sans-serif" font-size="11" lengthAdjust="spacing" textLength="18" x="622.875" y="323.2861">yes</text><text fill="#000000" font-family="sans-serif" font-size="11" lengthAdjust="spacing" textLength="12" x="830.875" y="323.2861">no</text><polygon fill="#F1F1F1" points="398.125,347.7031,739.125,347.7031,751.125,359.7031,739.125,371.7031,398.125,371.7031,386.125,359.7031,398.125,347.7031" style="stroke:#181818;stroke-width:0.5;"/><text fill="#000000" font-family="sans-serif" font-size="11" lengthAdjust="spacing" textLength="341" x="398.125" y="364.2041">RID&#12395;&#36554;&#20001;&#36939;&#36578;&#26465;&#20214;&#12364;&#12354;&#12426; &#12363;&#12388; &#36554;&#20001;&#36939;&#36578;&#26465;&#20214;&#12364;&#23455;&#34892;&#35377;&#21487;&#26465;&#20214;&#12434;&#28288;&#12383;&#12377;</text><text fill="#000000" font-family="sans-serif" font-size="11" lengthAdjust="spacing" textLength="18" x="368.125" y="357.2861">yes</text><text fill="#000000" font-family="sans-serif" font-size="11" lengthAdjust="spacing" textLength="12" x="751.125" y="357.2861">no</text><polygon fill="#F1F1F1" points="285.125,381.7031,467.125,381.7031,479.125,393.7031,467.125,405.7031,285.125,405.7031,273.125,393.7031,285.125,381.7031" style="stroke:#181818;stroke-width:0.5;"/><text fill="#000000" font-family="sans-serif" font-size="11" lengthAdjust="spacing" textLength="182" x="285.125" y="398.2041">routineControlType &#12398;&#23455;&#34892;&#38918;&#24207;&#12398;&#26908;&#26619;</text><text fill="#000000" font-family="sans-serif" font-size="11" lengthAdjust="spacing" textLength="18" x="255.125" y="391.2861">yes</text><text fill="#000000" font-family="sans-serif" font-size="11" lengthAdjust="spacing" textLength="12" x="479.125" y="391.2861">no</text><polygon fill="#F1F1F1" points="213.75,415.7031,290.75,415.7031,302.75,427.7031,290.75,439.7031,213.75,439.7031,201.75,427.7031,213.75,415.7031" style="stroke:#181818;stroke-width:0.5;"/><text fill="#000000" font-family="sans-serif" font-size="11" lengthAdjust="spacing" textLength="77" x="213.75" y="432.2041">&#12513;&#12514;&#12522;&#30064;&#24120;&#12394;&#12375;</text><text fill="#000000" font-family="sans-serif" font-size="11" lengthAdjust="spacing" textLength="18" x="183.75" y="425.2861">yes</text><text fill="#000000" font-family="sans-serif" font-size="11" lengthAdjust="spacing" textLength="12" x="302.75" y="425.2861">no</text><rect fill="#F1F1F1" height="35.0938" rx="12.5" ry="12.5" style="stroke:#181818;stroke-width:0.5;" width="178" x="57.5" y="449.7031"/><text fill="#000000" font-family="sans-serif" font-size="12" lengthAdjust="spacing" textLength="158" x="67.5" y="472.1602">routine&#12391;&#25351;&#23450;&#12375;&#12383;&#20966;&#29702;&#12434;&#23455;&#34892;</text><rect fill="#F1F1F1" height="35.0938" rx="12.5" ry="12.5" style="stroke:#181818;stroke-width:0.5;" width="271" x="11" y="519.7969"/><text fill="#000000" font-family="sans-serif" font-size="12" lengthAdjust="spacing" textLength="251" x="21" y="542.2539">"71 [RID] [routineControlOptionRecord]"&#12434;&#36820;&#36865;</text><ellipse cx="146.5" cy="585.8906" fill="none" rx="11" ry="11" style="stroke:#222222;stroke-width:1.0;"/><ellipse cx="146.5" cy="585.8906" fill="#222222" rx="6" ry="6" style="stroke:#222222;stroke-width:1.0;"/><rect fill="#F1F1F1" height="35.0938" rx="12.5" ry="12.5" style="stroke:#181818;stroke-width:0.5;" width="112" x="302" y="449.7031"/><text fill="#000000" font-family="sans-serif" font-size="12" lengthAdjust="spacing" textLength="92" x="312" y="472.1602">"7F 31 72"&#12434;&#36820;&#36865;</text><ellipse cx="358" cy="530.7969" fill="none" rx="11" ry="11" style="stroke:#222222;stroke-width:1.0;"/><ellipse cx="358" cy="530.7969" fill="#222222" rx="6" ry="6" style="stroke:#222222;stroke-width:1.0;"/><rect fill="#F1F1F1" height="35.0938" rx="12.5" ry="12.5" style="stroke:#181818;stroke-width:0.5;" width="112" x="444" y="415.7031"/><text fill="#000000" font-family="sans-serif" font-size="12" lengthAdjust="spacing" textLength="92" x="454" y="438.1602">"7F 31 24"&#12434;&#36820;&#36865;</text><ellipse cx="500" cy="496.7969" fill="none" rx="11" ry="11" style="stroke:#222222;stroke-width:1.0;"/><ellipse cx="500" cy="496.7969" fill="#222222" rx="6" ry="6" style="stroke:#222222;stroke-width:1.0;"/><rect fill="#F1F1F1" height="35.0938" rx="12.5" ry="12.5" style="stroke:#181818;stroke-width:0.5;" width="112" x="705.125" y="381.7031"/><text fill="#000000" font-family="sans-serif" font-size="12" lengthAdjust="spacing" textLength="92" x="715.125" y="404.1602">"7F 31 22"&#12434;&#36820;&#36865;</text><ellipse cx="761.125" cy="462.7969" fill="none" rx="11" ry="11" style="stroke:#222222;stroke-width:1.0;"/><ellipse cx="761.125" cy="462.7969" fill="#222222" rx="6" ry="6" style="stroke:#222222;stroke-width:1.0;"/><rect fill="#F1F1F1" height="35.0938" rx="12.5" ry="12.5" style="stroke:#181818;stroke-width:0.5;" width="112" x="847.125" y="347.7031"/><text fill="#000000" font-family="sans-serif" font-size="12" lengthAdjust="spacing" textLength="92" x="857.125" y="370.1602">"7F 31 31"&#12434;&#36820;&#36865;</text><ellipse cx="903.125" cy="428.7969" fill="none" rx="11" ry="11" style="stroke:#222222;stroke-width:1.0;"/><ellipse cx="903.125" cy="428.7969" fill="#222222" rx="6" ry="6" style="stroke:#222222;stroke-width:1.0;"/><rect fill="#F1F1F1" height="35.0938" rx="12.5" ry="12.5" style="stroke:#181818;stroke-width:0.5;" width="112" x="989.125" y="313.7031"/><text fill="#000000" font-family="sans-serif" font-size="12" lengthAdjust="spacing" textLength="92" x="999.125" y="336.1602">"7F 31 13"&#12434;&#36820;&#36865;</text><ellipse cx="1045.125" cy="394.7969" fill="none" rx="11" ry="11" style="stroke:#222222;stroke-width:1.0;"/><ellipse cx="1045.125" cy="394.7969" fill="#222222" rx="6" ry="6" style="stroke:#222222;stroke-width:1.0;"/><rect fill="#F1F1F1" height="35.0938" rx="12.5" ry="12.5" style="stroke:#181818;stroke-width:0.5;" width="112" x="1131.125" y="279.7031"/><text fill="#000000" font-family="sans-serif" font-size="12" lengthAdjust="spacing" textLength="92" x="1141.125" y="302.1602">"7F 31 12"&#12434;&#36820;&#36865;</text><ellipse cx="1187.125" cy="360.7969" fill="none" rx="11" ry="11" style="stroke:#222222;stroke-width:1.0;"/><ellipse cx="1187.125" cy="360.7969" fill="#222222" rx="6" ry="6" style="stroke:#222222;stroke-width:1.0;"/><rect fill="#F1F1F1" height="35.0938" rx="12.5" ry="12.5" style="stroke:#181818;stroke-width:0.5;" width="112" x="1273.125" y="245.7031"/><text fill="#000000" font-family="sans-serif" font-size="12" lengthAdjust="spacing" textLength="92" x="1283.125" y="268.1602">"7F 31 33"&#12434;&#36820;&#36865;</text><ellipse cx="1329.125" cy="326.7969" fill="none" rx="11" ry="11" style="stroke:#222222;stroke-width:1.0;"/><ellipse cx="1329.125" cy="326.7969" fill="#222222" rx="6" ry="6" style="stroke:#222222;stroke-width:1.0;"/><rect fill="#F1F1F1" height="35.0938" rx="12.5" ry="12.5" style="stroke:#181818;stroke-width:0.5;" width="112" x="1506.9688" y="211.7031"/><text fill="#000000" font-family="sans-serif" font-size="12" lengthAdjust="spacing" textLength="92" x="1516.9688" y="234.1602">"7F 31 31"&#12434;&#36820;&#36865;</text><ellipse cx="1562.9688" cy="292.7969" fill="none" rx="11" ry="11" style="stroke:#222222;stroke-width:1.0;"/><ellipse cx="1562.9688" cy="292.7969" fill="#222222" rx="6" ry="6" style="stroke:#222222;stroke-width:1.0;"/><rect fill="#F1F1F1" height="35.0938" rx="12.5" ry="12.5" style="stroke:#181818;stroke-width:0.5;" width="112" x="1648.9688" y="177.7031"/><text fill="#000000" font-family="sans-serif" font-size="12" lengthAdjust="spacing" textLength="92" x="1658.9688" y="200.1602">"7F 31 13"&#12434;&#36820;&#36865;</text><ellipse cx="1704.9688" cy="258.7969" fill="none" rx="11" ry="11" style="stroke:#222222;stroke-width:1.0;"/><ellipse cx="1704.9688" cy="258.7969" fill="#222222" rx="6" ry="6" style="stroke:#222222;stroke-width:1.0;"/><line style="stroke:#181818;stroke-width:1.0;" x1="1539.2188" x2="1539.2188" y1="68.6094" y2="88.6094"/><polygon fill="#181818" points="1535.2188,78.6094,1539.2188,88.6094,1543.2188,78.6094,1539.2188,82.6094" style="stroke:#181818;stroke-width:1.0;"/><line style="stroke:#181818;stroke-width:1.0;" x1="146.5" x2="146.5" y1="484.7969" y2="519.7969"/><polygon fill="#181818" points="142.5,509.7969,146.5,519.7969,150.5,509.7969,146.5,513.7969" style="stroke:#181818;stroke-width:1.0;"/><line style="stroke:#181818;stroke-width:1.0;" x1="146.5" x2="146.5" y1="554.8906" y2="574.8906"/><polygon fill="#181818" points="142.5,564.8906,146.5,574.8906,150.5,564.8906,146.5,568.8906" style="stroke:#181818;stroke-width:1.0;"/><line style="stroke:#181818;stroke-width:1.0;" x1="358" x2="358" y1="484.7969" y2="519.7969"/><polygon fill="#181818" points="354,509.7969,358,519.7969,362,509.7969,358,513.7969" style="stroke:#181818;stroke-width:1.0;"/><line style="stroke:#181818;stroke-width:1.0;" x1="201.75" x2="146.5" y1="427.7031" y2="427.7031"/><line style="stroke:#181818;stroke-width:1.0;" x1="146.5" x2="146.5" y1="427.7031" y2="449.7031"/><polygon fill="#181818" points="142.5,439.7031,146.5,449.7031,150.5,439.7031,146.5,443.7031" style="stroke:#181818;stroke-width:1.0;"/><line style="stroke:#181818;stroke-width:1.0;" x1="302.75" x2="358" y1="427.7031" y2="427.7031"/><line style="stroke:#181818;stroke-width:1.0;" x1="358" x2="358" y1="427.7031" y2="449.7031"/><polygon fill="#181818" points="354,439.7031,358,449.7031,362,439.7031,358,443.7031" style="stroke:#181818;stroke-width:1.0;"/><line style="stroke:#181818;stroke-width:1.0;" x1="500" x2="500" y1="450.7969" y2="485.7969"/><polygon fill="#181818" points="496,475.7969,500,485.7969,504,475.7969,500,479.7969" style="stroke:#181818;stroke-width:1.0;"/><line style="stroke:#181818;stroke-width:1.0;" x1="273.125" x2="252.25" y1="393.7031" y2="393.7031"/><line style="stroke:#181818;stroke-width:1.0;" x1="252.25" x2="252.25" y1="393.7031" y2="415.7031"/><polygon fill="#181818" points="248.25,405.7031,252.25,415.7031,256.25,405.7031,252.25,409.7031" style="stroke:#181818;stroke-width:1.0;"/><line style="stroke:#181818;stroke-width:1.0;" x1="479.125" x2="500" y1="393.7031" y2="393.7031"/><line style="stroke:#181818;stroke-width:1.0;" x1="500" x2="500" y1="393.7031" y2="415.7031"/><polygon fill="#181818" points="496,405.7031,500,415.7031,504,405.7031,500,409.7031" style="stroke:#181818;stroke-width:1.0;"/><line style="stroke:#181818;stroke-width:1.0;" x1="761.125" x2="761.125" y1="416.7969" y2="451.7969"/><polygon fill="#181818" points="757.125,441.7969,761.125,451.7969,765.125,441.7969,761.125,445.7969" style="stroke:#181818;stroke-width:1.0;"/><line style="stroke:#181818;stroke-width:1.0;" x1="386.125" x2="376.125" y1="359.7031" y2="359.7031"/><line style="stroke:#181818;stroke-width:1.0;" x1="376.125" x2="376.125" y1="359.7031" y2="381.7031"/><polygon fill="#181818" points="372.125,371.7031,376.125,381.7031,380.125,371.7031,376.125,375.7031" style="stroke:#181818;stroke-width:1.0;"/><line style="stroke:#181818;stroke-width:1.0;" x1="751.125" x2="761.125" y1="359.7031" y2="359.7031"/><line style="stroke:#181818;stroke-width:1.0;" x1="761.125" x2="761.125" y1="359.7031" y2="381.7031"/><polygon fill="#181818" points="757.125,371.7031,761.125,381.7031,765.125,371.7031,761.125,375.7031" style="stroke:#181818;stroke-width:1.0;"/><line style="stroke:#181818;stroke-width:1.0;" x1="903.125" x2="903.125" y1="382.7969" y2="417.7969"/><polygon fill="#181818" points="899.125,407.7969,903.125,417.7969,907.125,407.7969,903.125,411.7969" style="stroke:#181818;stroke-width:1.0;"/><line style="stroke:#181818;stroke-width:1.0;" x1="640.875" x2="568.625" y1="325.7031" y2="325.7031"/><line style="stroke:#181818;stroke-width:1.0;" x1="568.625" x2="568.625" y1="325.7031" y2="347.7031"/><polygon fill="#181818" points="564.625,337.7031,568.625,347.7031,572.625,337.7031,568.625,341.7031" style="stroke:#181818;stroke-width:1.0;"/><line style="stroke:#181818;stroke-width:1.0;" x1="830.875" x2="903.125" y1="325.7031" y2="325.7031"/><line style="stroke:#181818;stroke-width:1.0;" x1="903.125" x2="903.125" y1="325.7031" y2="347.7031"/><polygon fill="#181818" points="899.125,337.7031,903.125,347.7031,907.125,337.7031,903.125,341.7031" style="stroke:#181818;stroke-width:1.0;"/><line style="stroke:#181818;stroke-width:1.0;" x1="1045.125" x2="1045.125" y1="348.7969" y2="383.7969"/><polygon fill="#181818" points="1041.125,373.7969,1045.125,383.7969,1049.125,373.7969,1045.125,377.7969" style="stroke:#181818;stroke-width:1.0;"/><line style="stroke:#181818;stroke-width:1.0;" x1="790.5" x2="735.875" y1="291.7031" y2="291.7031"/><line style="stroke:#181818;stroke-width:1.0;" x1="735.875" x2="735.875" y1="291.7031" y2="313.7031"/><polygon fill="#181818" points="731.875,303.7031,735.875,313.7031,739.875,303.7031,735.875,307.7031" style="stroke:#181818;stroke-width:1.0;"/><line style="stroke:#181818;stroke-width:1.0;" x1="990.5" x2="1045.125" y1="291.7031" y2="291.7031"/><line style="stroke:#181818;stroke-width:1.0;" x1="1045.125" x2="1045.125" y1="291.7031" y2="313.7031"/><polygon fill="#181818" points="1041.125,303.7031,1045.125,313.7031,1049.125,303.7031,1045.125,307.7031" style="stroke:#181818;stroke-width:1.0;"/><line style="stroke:#181818;stroke-width:1.0;" x1="1187.125" x2="1187.125" y1="314.7969" y2="349.7969"/><polygon fill="#181818" points="1183.125,339.7969,1187.125,349.7969,1191.125,339.7969,1187.125,343.7969" style="stroke:#181818;stroke-width:1.0;"/><line style="stroke:#181818;stroke-width:1.0;" x1="934.8125" x2="890.5" y1="257.7031" y2="257.7031"/><line style="stroke:#181818;stroke-width:1.0;" x1="890.5" x2="890.5" y1="257.7031" y2="279.7031"/><polygon fill="#181818" points="886.5,269.7031,890.5,279.7031,894.5,269.7031,890.5,273.7031" style="stroke:#181818;stroke-width:1.0;"/><line style="stroke:#181818;stroke-width:1.0;" x1="1142.8125" x2="1187.125" y1="257.7031" y2="257.7031"/><line style="stroke:#181818;stroke-width:1.0;" x1="1187.125" x2="1187.125" y1="257.7031" y2="279.7031"/><polygon fill="#181818" points="1183.125,269.7031,1187.125,279.7031,1191.125,269.7031,1187.125,273.7031" style="stroke:#181818;stroke-width:1.0;"/><line style="stroke:#181818;stroke-width:1.0;" x1="1329.125" x2="1329.125" y1="280.7969" y2="315.7969"/><polygon fill="#181818" points="1325.125,305.7969,1329.125,315.7969,1333.125,305.7969,1329.125,309.7969" style="stroke:#181818;stroke-width:1.0;"/><line style="stroke:#181818;stroke-width:1.0;" x1="1111.4688" x2="1038.8125" y1="223.7031" y2="223.7031"/><line style="stroke:#181818;stroke-width:1.0;" x1="1038.8125" x2="1038.8125" y1="223.7031" y2="245.7031"/><polygon fill="#181818" points="1034.8125,235.7031,1038.8125,245.7031,1042.8125,235.7031,1038.8125,239.7031" style="stroke:#181818;stroke-width:1.0;"/><line style="stroke:#181818;stroke-width:1.0;" x1="1256.4688" x2="1329.125" y1="223.7031" y2="223.7031"/><line style="stroke:#181818;stroke-width:1.0;" x1="1329.125" x2="1329.125" y1="223.7031" y2="245.7031"/><polygon fill="#181818" points="1325.125,235.7031,1329.125,245.7031,1333.125,235.7031,1329.125,239.7031" style="stroke:#181818;stroke-width:1.0;"/><line style="stroke:#181818;stroke-width:1.0;" x1="1562.9688" x2="1562.9688" y1="246.7969" y2="281.7969"/><polygon fill="#181818" points="1558.9688,271.7969,1562.9688,281.7969,1566.9688,271.7969,1562.9688,275.7969" style="stroke:#181818;stroke-width:1.0;"/><line style="stroke:#181818;stroke-width:1.0;" x1="1193.9688" x2="1183.9688" y1="189.7031" y2="189.7031"/><line style="stroke:#181818;stroke-width:1.0;" x1="1183.9688" x2="1183.9688" y1="189.7031" y2="211.7031"/><polygon fill="#181818" points="1179.9688,201.7031,1183.9688,211.7031,1187.9688,201.7031,1183.9688,205.7031" style="stroke:#181818;stroke-width:1.0;"/><line style="stroke:#181818;stroke-width:1.0;" x1="1552.9688" x2="1562.9688" y1="189.7031" y2="189.7031"/><line style="stroke:#181818;stroke-width:1.0;" x1="1562.9688" x2="1562.9688" y1="189.7031" y2="211.7031"/><polygon fill="#181818" points="1558.9688,201.7031,1562.9688,211.7031,1566.9688,201.7031,1562.9688,205.7031" style="stroke:#181818;stroke-width:1.0;"/><line style="stroke:#181818;stroke-width:1.0;" x1="1704.9688" x2="1704.9688" y1="212.7969" y2="247.7969"/><polygon fill="#181818" points="1700.9688,237.7969,1704.9688,247.7969,1708.9688,237.7969,1704.9688,241.7969" style="stroke:#181818;stroke-width:1.0;"/><line style="stroke:#181818;stroke-width:1.0;" x1="1422.2188" x2="1373.4688" y1="155.7031" y2="155.7031"/><line style="stroke:#181818;stroke-width:1.0;" x1="1373.4688" x2="1373.4688" y1="155.7031" y2="177.7031"/><polygon fill="#181818" points="1369.4688,167.7031,1373.4688,177.7031,1377.4688,167.7031,1373.4688,171.7031" style="stroke:#181818;stroke-width:1.0;"/><line style="stroke:#181818;stroke-width:1.0;" x1="1656.2188" x2="1704.9688" y1="155.7031" y2="155.7031"/><line style="stroke:#181818;stroke-width:1.0;" x1="1704.9688" x2="1704.9688" y1="155.7031" y2="177.7031"/><polygon fill="#181818" points="1700.9688,167.7031,1704.9688,177.7031,1708.9688,167.7031,1704.9688,171.7031" style="stroke:#181818;stroke-width:1.0;"/><line style="stroke:#181818;stroke-width:1.0;" x1="1539.2188" x2="1539.2188" y1="123.7031" y2="143.7031"/><polygon fill="#181818" points="1535.2188,133.7031,1539.2188,143.7031,1543.2188,133.7031,1539.2188,137.7031" style="stroke:#181818;stroke-width:1.0;"/><!--SRC=[jPCnQzj068Pt_OeZTB17nu50CZO4CXMIRY53QHGgC9Anr26RxmwSO1iKGar8IN2Ls8b9gDqERTMeRNxC9ydIrB_GasGfDRRa4xGtISVtlUzpttkdILf5H3jR6y_A9K7LNjKqOItw0tBgw6Vsem7u371tNP0E2a3lW8o0381y1thy-sSVg06K0h60_W1Y-frlW3k0soj0Ju3qM95jzMspMKJQ6r4k78fgKK1iCR7jhGrM2EGBqCkWcnu7hOJjjA1U1zm2t6CVKTbO_-LS300FTqHLbHGPy2tWqNJpEUkCVD2JKRm2UaP9FWBj1yUW3I3NtksrVzvZgcxlmkrQgSqJWPhoLfDayRaYQpMbylAmAZAoaE_Ukz6TuVla09bACSxqC85QASFaeKkbV57LsBYsnTTARJ-VrDyntNjMqpOD7xSywygzD6phQv0T9a2QA8eApIrnXbtFQ7k3puu-ccoIK_U1nTjbWN5pf0R0p8UHX_-XuJpe-OyubGYR_nNBPTpvv9Wcu3jsztCB1MjjGigkgTi-2cz6y8YSevlnIIDuMI7oEh_Uqce9xR8ezj1kUhvxIqpQUtpdrp6_jAefLQvYiQAA1Lafve7UHEKIMbt-lrpoldGW_5Fwc7nv9Iyv5_LYOcxQX3JNZ1TIPXDoqSLavH8lMIPLEj52cfYaLEOXIQMOJv3fdZWlJ6UkwwnZgbioxSmpphWyESmeP-UNA4KAKztfymwxmeu_]--></g></svg>