<?xml version="1.0" encoding="us-ascii" standalone="no"?><svg xmlns="http://www.w3.org/2000/svg" xmlns:xlink="http://www.w3.org/1999/xlink" contentStyleType="text/css" height="636px" preserveAspectRatio="none" style="width:565px;height:636px;background:#FFFFFF;" version="1.1" viewBox="0 0 565 636" width="565px" zoomAndPan="magnify"><defs/><g><text fill="#000000" font-family="sans-serif" font-size="14" font-weight="bold" lengthAdjust="spacing" textLength="48" x="257.25" y="34.5332">SID$3E</text><ellipse cx="365.375" cy="58.6094" fill="#222222" rx="10" ry="10" style="stroke:#222222;stroke-width:1.0;"/><rect fill="#ADD8E6" height="505.2314" style="stroke:#000000;stroke-width:1.5;" width="543.5" x="11" y="78.6094"/><path d="M68,78.6094 L68,89.2188 L58,99.2188 L11,99.2188 " fill="none" style="stroke:#000000;stroke-width:1.5;"/><text fill="#000000" font-family="sans-serif" font-size="14" lengthAdjust="spacing" textLength="47" x="14" y="94.1426">SID$3E</text><rect fill="#F5F5F5" height="276.7031" style="stroke:#000000;stroke-width:1.5;" width="487.5" x="23" y="207.1377"/><path d="M96,207.1377 L96,217.7471 L86,227.7471 L23,227.7471 " fill="none" style="stroke:#000000;stroke-width:1.5;"/><text fill="#000000" font-family="sans-serif" font-size="14" lengthAdjust="spacing" textLength="63" x="26" y="222.6709">checkReq</text><polygon fill="#F1F1F1" points="289.875,244.7471,440.875,244.7471,452.875,256.7471,440.875,268.7471,289.875,268.7471,277.875,256.7471,289.875,244.7471" style="stroke:#181818;stroke-width:0.5;"/><text fill="#000000" font-family="sans-serif" font-size="11" lengthAdjust="spacing" textLength="151" x="289.875" y="261.248">len(RequestMessage) &gt;= 2byte</text><text fill="#000000" font-family="sans-serif" font-size="11" lengthAdjust="spacing" textLength="18" x="259.875" y="254.3301">yes</text><text fill="#000000" font-family="sans-serif" font-size="11" lengthAdjust="spacing" textLength="12" x="452.875" y="254.3301">no</text><polygon fill="#F1F1F1" points="204.75,278.7471,328.75,278.7471,340.75,290.7471,328.75,302.7471,204.75,302.7471,192.75,290.7471,204.75,278.7471" style="stroke:#181818;stroke-width:0.5;"/><text fill="#000000" font-family="sans-serif" font-size="11" lengthAdjust="spacing" textLength="124" x="204.75" y="295.248">zeroSubFunction == 0x00</text><text fill="#000000" font-family="sans-serif" font-size="11" lengthAdjust="spacing" textLength="18" x="174.75" y="288.3301">yes</text><text fill="#000000" font-family="sans-serif" font-size="11" lengthAdjust="spacing" textLength="12" x="340.75" y="288.3301">no</text><polygon fill="#F1F1F1" points="93,312.7471,244,312.7471,256,324.7471,244,336.7471,93,336.7471,81,324.7471,93,312.7471" style="stroke:#181818;stroke-width:0.5;"/><text fill="#000000" font-family="sans-serif" font-size="11" lengthAdjust="spacing" textLength="151" x="93" y="329.248">len(RequestMessage) == 2byte</text><text fill="#000000" font-family="sans-serif" font-size="11" lengthAdjust="spacing" textLength="18" x="63" y="322.3301">yes</text><text fill="#000000" font-family="sans-serif" font-size="11" lengthAdjust="spacing" textLength="12" x="256" y="322.3301">no</text><rect fill="#F1F1F1" height="35.0938" rx="12.5" ry="12.5" style="stroke:#181818;stroke-width:0.5;" width="52" x="45" y="346.7471"/><text fill="#000000" font-family="sans-serif" font-size="12" lengthAdjust="spacing" textLength="32" x="55" y="369.2041">7E 00</text><rect fill="#F1F1F1" height="35.0938" rx="12.5" ry="12.5" style="stroke:#181818;stroke-width:0.5;" width="69" x="231.5" y="346.7471"/><text fill="#000000" font-family="sans-serif" font-size="12" lengthAdjust="spacing" textLength="49" x="241.5" y="369.2041">7F 3E 13</text><polygon fill="#F1F1F1" points="168.5,387.8408,180.5,399.8408,168.5,411.8408,156.5,399.8408,168.5,387.8408" style="stroke:#181818;stroke-width:0.5;"/><rect fill="#F1F1F1" height="35.0938" rx="12.5" ry="12.5" style="stroke:#181818;stroke-width:0.5;" width="69" x="330.5" y="312.7471"/><text fill="#000000" font-family="sans-serif" font-size="12" lengthAdjust="spacing" textLength="49" x="340.5" y="335.2041">7F 3E 12</text><polygon fill="#F1F1F1" points="266.75,417.8408,278.75,429.8408,266.75,441.8408,254.75,429.8408,266.75,417.8408" style="stroke:#181818;stroke-width:0.5;"/><rect fill="#F1F1F1" height="35.0938" rx="12.5" ry="12.5" style="stroke:#181818;stroke-width:0.5;" width="69" x="429.5" y="278.7471"/><text fill="#000000" font-family="sans-serif" font-size="12" lengthAdjust="spacing" textLength="49" x="439.5" y="301.2041">7F 3E 13</text><polygon fill="#F1F1F1" points="365.375,447.8408,377.375,459.8408,365.375,471.8408,353.375,459.8408,365.375,447.8408" style="stroke:#181818;stroke-width:0.5;"/><polygon fill="#F1F1F1" points="257.875,160.2188,472.875,160.2188,484.875,172.2188,472.875,184.2188,257.875,184.2188,245.875,172.2188,257.875,160.2188" style="stroke:#181818;stroke-width:0.5;"/><text fill="#000000" font-family="sans-serif" font-size="11" lengthAdjust="spacing" textLength="18" x="369.375" y="195.6377">yes</text><text fill="#000000" font-family="sans-serif" font-size="11" lengthAdjust="spacing" textLength="215" x="257.875" y="176.7197">Service $3E &#12522;&#12463;&#12456;&#12473;&#12488;&#12539;&#12513;&#12483;&#12475;&#12540;&#12472;&#12434;&#21463;&#20449;</text><text fill="#000000" font-family="sans-serif" font-size="11" lengthAdjust="spacing" textLength="12" x="484.875" y="169.8018">no</text><polygon fill="#F1F1F1" points="365.375,503.8408,377.375,515.8408,365.375,527.8408,353.375,515.8408,365.375,503.8408" style="stroke:#181818;stroke-width:0.5;"/><polygon fill="#F1F1F1" points="365.375,116.2188,377.375,128.2188,365.375,140.2188,353.375,128.2188,365.375,116.2188" style="stroke:#181818;stroke-width:0.5;"/><polygon fill="#F1F1F1" points="352.375,547.8408,378.375,547.8408,390.375,559.8408,378.375,571.8408,352.375,571.8408,340.375,559.8408,352.375,547.8408" style="stroke:#181818;stroke-width:0.5;"/><text fill="#000000" font-family="sans-serif" font-size="11" lengthAdjust="spacing" textLength="26" x="352.375" y="564.3418">TRUE</text><ellipse cx="365.375" cy="614.8408" fill="none" rx="11" ry="11" style="stroke:#222222;stroke-width:1.0;"/><ellipse cx="365.375" cy="614.8408" fill="#222222" rx="6" ry="6" style="stroke:#222222;stroke-width:1.0;"/><line style="stroke:#181818;stroke-width:1.0;" x1="81" x2="71" y1="324.7471" y2="324.7471"/><line style="stroke:#181818;stroke-width:1.0;" x1="71" x2="71" y1="324.7471" y2="346.7471"/><polygon fill="#181818" points="67,336.7471,71,346.7471,75,336.7471,71,340.7471" style="stroke:#181818;stroke-width:1.0;"/><line style="stroke:#181818;stroke-width:1.0;" x1="256" x2="266" y1="324.7471" y2="324.7471"/><line style="stroke:#181818;stroke-width:1.0;" x1="266" x2="266" y1="324.7471" y2="346.7471"/><polygon fill="#181818" points="262,336.7471,266,346.7471,270,336.7471,266,340.7471" style="stroke:#181818;stroke-width:1.0;"/><line style="stroke:#181818;stroke-width:1.0;" x1="71" x2="71" y1="381.8408" y2="399.8408"/><line style="stroke:#181818;stroke-width:1.0;" x1="71" x2="156.5" y1="399.8408" y2="399.8408"/><polygon fill="#181818" points="146.5,395.8408,156.5,399.8408,146.5,403.8408,150.5,399.8408" style="stroke:#181818;stroke-width:1.0;"/><line style="stroke:#181818;stroke-width:1.0;" x1="266" x2="266" y1="381.8408" y2="399.8408"/><line style="stroke:#181818;stroke-width:1.0;" x1="266" x2="180.5" y1="399.8408" y2="399.8408"/><polygon fill="#181818" points="190.5,395.8408,180.5,399.8408,190.5,403.8408,186.5,399.8408" style="stroke:#181818;stroke-width:1.0;"/><line style="stroke:#181818;stroke-width:1.0;" x1="192.75" x2="168.5" y1="290.7471" y2="290.7471"/><line style="stroke:#181818;stroke-width:1.0;" x1="168.5" x2="168.5" y1="290.7471" y2="312.7471"/><polygon fill="#181818" points="164.5,302.7471,168.5,312.7471,172.5,302.7471,168.5,306.7471" style="stroke:#181818;stroke-width:1.0;"/><line style="stroke:#181818;stroke-width:1.0;" x1="340.75" x2="365" y1="290.7471" y2="290.7471"/><line style="stroke:#181818;stroke-width:1.0;" x1="365" x2="365" y1="290.7471" y2="312.7471"/><polygon fill="#181818" points="361,302.7471,365,312.7471,369,302.7471,365,306.7471" style="stroke:#181818;stroke-width:1.0;"/><line style="stroke:#181818;stroke-width:1.0;" x1="168.5" x2="168.5" y1="411.8408" y2="429.8408"/><line style="stroke:#181818;stroke-width:1.0;" x1="168.5" x2="254.75" y1="429.8408" y2="429.8408"/><polygon fill="#181818" points="244.75,425.8408,254.75,429.8408,244.75,433.8408,248.75,429.8408" style="stroke:#181818;stroke-width:1.0;"/><line style="stroke:#181818;stroke-width:1.0;" x1="365" x2="365" y1="347.8408" y2="429.8408"/><line style="stroke:#181818;stroke-width:1.0;" x1="365" x2="278.75" y1="429.8408" y2="429.8408"/><polygon fill="#181818" points="288.75,425.8408,278.75,429.8408,288.75,433.8408,284.75,429.8408" style="stroke:#181818;stroke-width:1.0;"/><line style="stroke:#181818;stroke-width:1.0;" x1="277.875" x2="266.75" y1="256.7471" y2="256.7471"/><line style="stroke:#181818;stroke-width:1.0;" x1="266.75" x2="266.75" y1="256.7471" y2="278.7471"/><polygon fill="#181818" points="262.75,268.7471,266.75,278.7471,270.75,268.7471,266.75,272.7471" style="stroke:#181818;stroke-width:1.0;"/><line style="stroke:#181818;stroke-width:1.0;" x1="452.875" x2="464" y1="256.7471" y2="256.7471"/><line style="stroke:#181818;stroke-width:1.0;" x1="464" x2="464" y1="256.7471" y2="278.7471"/><polygon fill="#181818" points="460,268.7471,464,278.7471,468,268.7471,464,272.7471" style="stroke:#181818;stroke-width:1.0;"/><line style="stroke:#181818;stroke-width:1.0;" x1="266.75" x2="266.75" y1="441.8408" y2="459.8408"/><line style="stroke:#181818;stroke-width:1.0;" x1="266.75" x2="353.375" y1="459.8408" y2="459.8408"/><polygon fill="#181818" points="343.375,455.8408,353.375,459.8408,343.375,463.8408,347.375,459.8408" style="stroke:#181818;stroke-width:1.0;"/><line style="stroke:#181818;stroke-width:1.0;" x1="464" x2="464" y1="313.8408" y2="459.8408"/><line style="stroke:#181818;stroke-width:1.0;" x1="464" x2="377.375" y1="459.8408" y2="459.8408"/><polygon fill="#181818" points="387.375,455.8408,377.375,459.8408,387.375,463.8408,383.375,459.8408" style="stroke:#181818;stroke-width:1.0;"/><line style="stroke:#181818;stroke-width:1.0;" x1="365.375" x2="365.375" y1="184.2188" y2="244.7471"/><polygon fill="#181818" points="361.375,234.7471,365.375,244.7471,369.375,234.7471,365.375,238.7471" style="stroke:#181818;stroke-width:1.0;"/><line style="stroke:#181818;stroke-width:1.0;" x1="484.875" x2="520.5" y1="172.2188" y2="172.2188"/><polygon fill="#181818" points="516.5,339.4893,520.5,349.4893,524.5,339.4893,520.5,343.4893" style="stroke:#181818;stroke-width:1.0;"/><line style="stroke:#181818;stroke-width:1.0;" x1="520.5" x2="520.5" y1="172.2188" y2="515.8408"/><line style="stroke:#181818;stroke-width:1.0;" x1="520.5" x2="377.375" y1="515.8408" y2="515.8408"/><polygon fill="#181818" points="387.375,511.8408,377.375,515.8408,387.375,519.8408,383.375,515.8408" style="stroke:#181818;stroke-width:1.0;"/><line style="stroke:#181818;stroke-width:1.0;" x1="365.375" x2="365.375" y1="471.8408" y2="503.8408"/><polygon fill="#181818" points="361.375,493.8408,365.375,503.8408,369.375,493.8408,365.375,497.8408" style="stroke:#181818;stroke-width:1.0;"/><line style="stroke:#181818;stroke-width:1.0;" x1="365.375" x2="365.375" y1="140.2188" y2="160.2188"/><polygon fill="#181818" points="361.375,150.2188,365.375,160.2188,369.375,150.2188,365.375,154.2188" style="stroke:#181818;stroke-width:1.0;"/><line style="stroke:#181818;stroke-width:1.0;" x1="390.375" x2="538.5" y1="559.8408" y2="559.8408"/><polygon fill="#181818" points="534.5,359.4893,538.5,349.4893,542.5,359.4893,538.5,355.4893" style="stroke:#181818;stroke-width:1.0;"/><line style="stroke:#181818;stroke-width:1.0;" x1="538.5" x2="538.5" y1="128.2188" y2="559.8408"/><line style="stroke:#181818;stroke-width:1.0;" x1="538.5" x2="377.375" y1="128.2188" y2="128.2188"/><polygon fill="#181818" points="387.375,124.2188,377.375,128.2188,387.375,132.2188,383.375,128.2188" style="stroke:#181818;stroke-width:1.0;"/><line style="stroke:#181818;stroke-width:1.0;" x1="365.375" x2="365.375" y1="527.8408" y2="547.8408"/><polygon fill="#181818" points="361.375,537.8408,365.375,547.8408,369.375,537.8408,365.375,541.8408" style="stroke:#181818;stroke-width:1.0;"/><line style="stroke:#181818;stroke-width:1.0;" x1="365.375" x2="365.375" y1="68.6094" y2="116.2188"/><polygon fill="#181818" points="361.375,106.2188,365.375,116.2188,369.375,106.2188,365.375,110.2188" style="stroke:#181818;stroke-width:1.0;"/><line style="stroke:#181818;stroke-width:1.0;" x1="365.375" x2="365.375" y1="571.8408" y2="603.8408"/><polygon fill="#181818" points="361.375,593.8408,365.375,603.8408,369.375,593.8408,365.375,597.8408" style="stroke:#181818;stroke-width:1.0;"/><!--SRC=[ZPAnJiCm48RtFCL9PKYsq0wLYiA0I2KaM1eGSnekZTNWXDW12kfYBsn8BCpT44jN44WyZE4zS9CM4fA1cqww__l_atsSy1Z1EzZVwha6utx63T2LwePmaj3r23g7P1BnlJZ7sqAGOOf-gIKXc1vcboH0M4cLV5PYgSIJ4gzAtYdvfkH2IQc4RjwLU57YuUl-yVDZOG6Fa88vGsOPXLSrEOWmc8xm0Zgd4U7edITJ7RwMbR4nKbChScJy21dp9sZ1hWFTyOnZrHn-g0rvWrdYvUDXJeCYp770lhRjsaRmfqZO6kYq13ROJGtwBjZsJcEECKEJ9ktWe3y4_R3RlHQEdf7G-9VJngLRTwaxh6Xeu2qBLB5v-Ik_h55NbCS2Ln69qJmUdRYb-rmVN99-0m00]--></g></svg>